<svg width="1329" height="534" viewBox="0 0 1329 534" fill="none" xmlns="http://www.w3.org/2000/svg">
<path d="M260.438 115.346L260.438 115.345L260.436 115.354C259.152 120.277 258.5 124.271 258.5 127.32C258.5 129.926 258.972 131.971 259.996 133.375C261.041 134.808 262.606 135.5 264.6 135.5C267.213 135.5 269.609 134.014 271.793 131.229C273.977 128.445 275.998 124.305 277.873 118.843C280.017 112.623 283.917 96.6981 289.568 71.1098C291.369 63.2708 295.936 51.4186 303.293 35.5311C306.693 28.3072 310.46 22.0482 314.592 16.7498C316.708 14.1056 318.687 12.145 320.528 10.8488C322.366 9.55402 324.038 8.94211 325.552 8.94C327.05 8.98927 328.174 9.7313 328.954 11.2664C329.754 12.8417 330.18 15.241 330.18 18.52C330.18 28.035 327.748 38.5803 322.861 50.1628C320.468 55.638 318.183 59.7105 316.011 62.4063C313.825 65.1189 311.833 66.34 310.04 66.34C308.593 66.34 307.502 65.9312 306.708 65.1612C305.907 64.3839 305.353 63.183 305.095 61.4912C305.033 60.9992 304.873 60.5613 304.59 60.2076C304.304 59.8491 303.916 59.6104 303.457 59.4792C303.015 59.3528 302.578 59.3302 302.159 59.4349C301.739 59.5399 301.368 59.7651 301.046 60.0864C300.377 60.7562 300.145 61.6703 300.263 62.7352L300.264 62.7443L300.265 62.7533C300.702 65.7015 301.708 67.9809 303.336 69.523C304.971 71.0714 307.172 71.82 309.88 71.82C312.192 71.82 314.498 71.3243 316.794 70.3408C324.442 67.1713 330.485 59.6095 334.987 47.8198C338.203 39.5633 339.82 31.8751 339.82 24.76C339.82 21.8489 339.55 18.9906 339.011 16.1856L339.011 16.1842C338.147 11.7568 336.624 8.37234 334.398 6.09084C332.159 3.79596 329.251 2.66 325.72 2.66C321.277 2.66 316.682 5.64802 311.935 11.3604C307.215 17.0404 302.265 25.5085 297.08 36.74H296.915C299.739 25.0648 302.459 14.937 305.075 6.35529C305.468 5.2267 305.472 4.19957 304.812 3.46552C304.182 2.76567 303.084 2.5 301.72 2.5C300.893 2.5 300.024 2.83232 299.126 3.42198C298.224 4.01353 297.259 4.88656 296.229 6.02454L296.228 6.02551C294.22 8.2573 292.49 12.4172 290.995 18.3987L290.995 18.3987L290.993 18.405C290.652 19.848 290.279 21.2433 289.862 22.8022C288.593 27.5478 286.919 33.8099 284.508 47.5536C283.706 52.0969 282.885 57.8657 282.145 63.0899L282.081 63.5428C281.377 68.5173 280.752 72.9319 280.291 75.2744L276.036 81.1053L276.028 81.1166L276.02 81.1284C268.954 92.0484 263.759 103.454 260.438 115.346ZM264.756 115.153C268.292 104.151 272.871 94.0605 278.491 84.8803C275.644 99.6792 273.014 110.865 270.603 118.449C269.327 122.464 268.12 125.444 266.987 127.41C266.42 128.395 265.885 129.101 265.387 129.556C264.89 130.011 264.47 130.18 264.12 130.18C263.48 130.18 263.046 129.939 262.744 129.455C262.417 128.932 262.22 128.084 262.22 126.84C262.22 124.364 263.051 120.481 264.756 115.153Z" fill="white" stroke="white"/>
<path d="M353.144 27.7547L353.144 27.7546L353.142 27.759C349.282 36.551 347.34 44.6735 347.34 52.12C347.34 58.5062 348.397 63.3831 350.583 66.6765C352.794 70.0061 356.12 71.66 360.48 71.66C364.384 71.66 368.631 68.9843 373.212 63.8945C377.771 58.8289 382.746 51.2769 388.139 41.26H388.371C387.578 46.1574 387.18 50.4718 387.18 54.2C387.18 60.0015 388.171 64.4411 390.227 67.4426C392.307 70.4781 395.433 71.98 399.52 71.98C402.19 71.98 405.196 70.1378 408.519 66.7081C411.956 63.1632 415.017 59.2431 417.702 54.9489C420.483 50.6692 423.369 45.7515 426.36 40.1971L426.362 40.1936C429.346 34.5459 431.326 30.6409 432.294 28.4901C433.359 26.2535 434.21 24.4985 434.847 23.2236L435.209 22.5H434.4H430.08H429.769L429.631 22.779L424.191 33.819C420.576 41.1564 416.268 48.4962 411.267 55.8385C408.769 59.5056 406.566 62.2322 404.657 64.0366C402.727 65.8605 401.183 66.66 400 66.66C399.479 66.66 399.044 66.5257 398.675 66.2696C398.303 66.0104 397.97 65.6063 397.691 65.0239C397.126 63.8457 396.82 62.016 396.82 59.48C396.82 58.3298 396.925 56.4304 397.138 53.7698C397.458 51.1154 399.371 41.2803 402.89 24.221L402.891 24.214L402.892 24.2069C403.216 22.3736 403.38 20.7435 403.38 19.32C403.38 17.0467 403.045 15.259 402.31 14.0243C401.55 12.7486 400.385 12.1 398.88 12.1C397.903 12.1 397.053 12.7139 396.319 13.7018C395.58 14.6955 394.894 16.1514 394.247 18.0378C392.984 21.7216 388.795 30.0534 381.642 43.0793L381.642 43.0793L381.639 43.0843C378.346 49.2446 374.739 54.6549 370.817 59.3182L370.817 59.319C368.913 61.593 367.159 63.277 365.555 64.3891C363.949 65.5028 362.528 66.02 361.28 66.02C360.718 66.02 360.243 65.8595 359.836 65.5445C359.421 65.224 359.05 64.7225 358.739 64.0021C358.113 62.5503 357.78 60.3127 357.78 57.24C357.78 47.2995 360.318 36.7572 365.415 25.6079L365.416 25.6057C368.123 19.6077 370.972 15.1485 373.952 12.1951C376.925 9.24794 380.005 7.82 383.2 7.82C385.056 7.82 386.355 8.23383 387.188 8.9737L387.209 8.99298L387.233 9.00962C388.218 9.6991 388.62 10.4177 388.62 11.16C388.62 11.7211 388.761 12.2287 389.108 12.6145C389.455 12.9998 389.946 13.1948 390.505 13.2569L390.532 13.26H390.56C391.158 13.26 391.7 13.1266 392.094 12.7717C392.499 12.4077 392.66 11.8915 392.66 11.32C392.66 9.03621 391.741 6.99346 389.954 5.20645C388.132 3.38479 385.646 2.5 382.56 2.5C379.61 2.5 376.666 3.10118 373.731 4.29695L373.725 4.29968L373.718 4.30261C365.35 7.99737 358.506 15.8517 353.144 27.7547Z" fill="white" stroke="white"/>
<path d="M432.749 10.4264L432.749 10.4264L432.748 10.4317C429.761 27.0723 427.521 39.8613 426.027 48.7976C425.28 53.2654 424.719 56.7725 424.345 59.3173C423.974 61.8426 423.78 63.4616 423.78 64.12C423.78 66.4516 424.157 68.2869 424.981 69.5528C425.83 70.8559 427.116 71.5 428.76 71.5C429.645 71.5 430.372 71.0619 430.926 70.2922C431.466 69.5417 431.858 68.4613 432.13 67.0981C432.655 64.4722 434.456 58.7472 437.552 49.8849C440.636 41.0586 444.732 31.8015 449.842 22.1133C452.394 17.276 454.757 13.6784 456.929 11.2969C459.093 8.9254 460.99 7.84276 462.628 7.82036C463.499 8.01471 464.085 8.43244 464.449 9.05286C464.83 9.70407 465.004 10.6414 464.902 11.9201C464.694 14.5175 463.913 17.3955 462.542 20.5584C461.855 22.0924 461.245 23.2151 460.715 23.9467C460.45 24.3132 460.218 24.5627 460.022 24.7165C459.823 24.872 459.7 24.9 459.64 24.9H459.064L459.145 25.4707C459.263 26.2973 459.566 26.993 460.086 27.5136L460.106 27.5331L460.128 27.5504C460.77 28.0642 461.582 28.3 462.52 28.3C464.637 28.3 466.511 27.7552 468.122 26.6527C469.73 25.5527 471.048 23.9173 472.09 21.779L472.091 21.7757C473.286 19.2769 473.9 16.9623 473.9 14.84C473.9 12.6665 473.629 10.7443 473.074 9.08189C472.357 6.92857 471.252 5.27226 469.736 4.15728C468.22 3.04145 466.336 2.5 464.12 2.5C460.042 2.5 455.886 5.32499 451.648 10.6901C447.511 15.9259 443.217 23.6802 438.758 33.9291L441.089 21.983C441.09 21.9818 441.09 21.9806 441.09 21.9794C441.522 19.9271 441.74 18.0267 441.74 16.28C441.74 14.4184 441.466 12.7079 440.912 11.1541C439.925 8.30651 438.36 6.66 436.12 6.66C435.229 6.66 434.477 7.00222 433.9 7.67461C433.341 8.32749 432.97 9.26352 432.749 10.4264Z" fill="white" stroke="white"/>
<path d="M481.144 25.7547L481.144 25.7546L481.142 25.759C477.282 34.551 475.34 42.6735 475.34 50.12C475.34 56.5062 476.397 61.3831 478.583 64.6765C480.794 68.0061 484.12 69.66 488.48 69.66C492.384 69.66 496.631 66.9843 501.212 61.8945C505.771 56.8289 510.746 49.2769 516.139 39.26H516.371C515.578 44.1574 515.18 48.4718 515.18 52.2C515.18 58.0015 516.171 62.4411 518.227 65.4426C520.307 68.4781 523.433 69.98 527.52 69.98C530.19 69.98 533.196 68.1378 536.519 64.7081C539.956 61.1632 543.017 57.2431 545.702 52.9489C548.483 48.6692 551.369 43.7515 554.36 38.1971L554.362 38.1936C557.346 32.5459 559.326 28.6409 560.294 26.4901C561.359 24.2535 562.21 22.4985 562.847 21.2236L563.209 20.5H562.4H558.08H557.769L557.631 20.779L552.191 31.819C548.576 39.1564 544.268 46.4962 539.267 53.8385C536.769 57.5056 534.566 60.2322 532.657 62.0366C530.727 63.8605 529.183 64.66 528 64.66C527.479 64.66 527.044 64.5257 526.675 64.2696C526.303 64.0104 525.97 63.6063 525.691 63.0239C525.126 61.8457 524.82 60.016 524.82 57.48C524.82 56.3298 524.925 54.4304 525.138 51.7698C525.458 49.1154 527.371 39.2803 530.89 22.221L530.891 22.214L530.892 22.2069C531.216 20.3736 531.38 18.7435 531.38 17.32C531.38 15.0467 531.045 13.259 530.31 12.0243C529.55 10.7486 528.385 10.1 526.88 10.1C525.903 10.1 525.053 10.7139 524.319 11.7018C523.58 12.6955 522.894 14.1514 522.247 16.0378C520.984 19.7216 516.795 28.0534 509.642 41.0793L509.642 41.0793L509.639 41.0843C506.346 47.2446 502.739 52.6549 498.817 57.3182L498.817 57.319C496.913 59.593 495.159 61.277 493.555 62.3891C491.949 63.5028 490.528 64.02 489.28 64.02C488.718 64.02 488.243 63.8595 487.836 63.5445C487.421 63.224 487.05 62.7225 486.739 62.0021C486.113 60.5503 485.78 58.3127 485.78 55.24C485.78 45.2995 488.318 34.7572 493.415 23.6079L493.416 23.6057C496.123 17.6077 498.972 13.1485 501.952 10.1951C504.925 7.24794 508.005 5.82 511.2 5.82C513.056 5.82 514.355 6.23383 515.188 6.9737L515.209 6.99298L515.233 7.00962C516.218 7.6991 516.62 8.41769 516.62 9.16C516.62 9.72112 516.761 10.2287 517.108 10.6145C517.455 10.9998 517.946 11.1948 518.505 11.2569L518.532 11.26H518.56C519.158 11.26 519.7 11.1266 520.094 10.7717C520.499 10.4077 520.66 9.89148 520.66 9.32C520.66 7.03621 519.741 4.99346 517.954 3.20645C516.132 1.38479 513.646 0.5 510.56 0.5C507.61 0.5 504.666 1.10118 501.731 2.29695L501.725 2.29968L501.718 2.30261C493.35 5.99737 486.506 13.8517 481.144 25.7547Z" fill="white" stroke="white"/>
<path d="M571.313 120.5C565.45 143.086 562.5 158.617 562.5 167.04C562.5 170.694 562.822 174.295 563.467 177.843C564.014 181.336 565.333 184.112 567.456 186.123L567.466 186.132L567.476 186.141C569.703 188.034 572.325 188.98 575.32 188.98C578.401 188.98 581.617 187.158 584.959 183.708C588.397 180.163 591.457 176.243 594.142 171.949C596.923 167.669 599.809 162.751 602.8 157.197L602.802 157.194C605.786 151.546 607.765 147.641 608.734 145.49C609.799 143.254 610.65 141.498 611.287 140.224L611.649 139.5H610.84H606.52H606.209L606.072 139.779L600.632 150.819C597.016 158.156 592.708 165.496 587.707 172.839C585.209 176.506 583.006 179.232 581.097 181.037C579.167 182.86 577.623 183.66 576.44 183.66C575.686 183.66 575.045 183.453 574.497 183.048C573.944 182.639 573.458 182.006 573.056 181.115C572.247 179.319 571.82 176.565 571.82 172.8C571.82 162.577 575.077 145.159 581.624 120.5H592.12C593.149 120.5 594.008 120.214 594.462 119.468C594.715 119.085 594.86 118.674 594.86 118.24C594.86 117.813 594.719 117.406 594.473 117.028C594.035 116.181 593.182 115.82 592.12 115.82H582.856L585.722 105.413L585.724 105.405L585.726 105.397C586.371 102.712 586.7 100.482 586.7 98.72C586.7 96.9855 586.538 95.4985 586.203 94.269C585.818 92.842 585.283 91.7164 584.567 90.9408C583.837 90.1497 582.933 89.74 581.88 89.74C581.048 89.74 580.331 90.0505 579.757 90.6561C579.197 91.2468 578.795 92.0957 578.516 93.1527L578.513 93.1648L578.511 93.177C578.086 95.1939 577.555 97.4253 576.917 99.8719C576.917 99.8725 576.916 99.8731 576.916 99.8738L574.677 108.19L574.677 108.191C573.873 111.206 573.211 113.749 572.69 115.82H564.76C563.961 115.82 563.27 115.975 562.771 116.367C562.249 116.777 562.02 117.38 562.02 118.08C562.02 118.542 562.241 119.067 562.571 119.617L562.585 119.639L562.6 119.66C563.06 120.273 563.845 120.5 564.76 120.5H571.313Z" fill="white" stroke="white"/>
<path d="M631.593 175.869L631.591 175.873C628.114 180.824 624.459 183.18 620.64 183.18C619.228 183.18 618.015 182.85 616.985 182.206C615.953 181.561 615.075 180.583 614.361 179.245C612.926 176.553 612.18 172.452 612.18 166.88C612.18 158.101 614.084 149.153 617.901 140.033C619.81 135.474 621.834 132.096 623.962 129.865C626.083 127.64 628.28 126.58 630.56 126.58H631.254L631.034 125.922C630.667 124.818 629.823 123.884 628.588 123.098C627.874 122.643 626.922 122.497 625.803 122.581C624.677 122.666 623.325 122.987 621.757 123.527L621.743 123.532L621.73 123.537C615.57 126.067 610.488 132.461 606.416 142.533L606.416 142.533C603.304 150.259 601.74 157.523 601.74 164.32C601.74 167.337 602.009 170.3 602.548 173.211L602.55 173.218L602.551 173.225C603.633 178.255 605.633 182.086 608.592 184.657C611.556 187.233 615.428 188.5 620.16 188.5C625.263 188.5 629.978 185.831 634.304 180.64L634.307 180.636C638.616 175.359 641.95 169.171 644.314 162.08C646.721 155.066 648.261 147.999 648.931 140.878C650.417 141.052 651.655 141.14 652.64 141.14C657.127 141.14 660.734 139.713 663.404 136.823C666.135 133.981 667.54 130.931 667.54 127.68C667.54 127.353 667.434 127.052 667.224 126.8C667.025 126.561 666.753 126.389 666.445 126.263C665.882 125.989 665.272 126.003 664.657 126.239C664.351 126.306 664.063 126.429 663.846 126.646C663.607 126.886 663.5 127.193 663.5 127.52C663.5 129.038 662.642 130.786 660.757 132.776C658.922 134.713 656.809 135.66 654.4 135.66C652.185 135.66 650.493 135.484 649.3 135.15V135.149V135.147V135.145V135.143V135.14V135.138V135.136V135.133V135.131V135.129V135.126V135.124V135.122V135.12V135.117V135.115V135.113V135.11V135.108V135.106V135.103V135.101V135.099V135.097V135.094V135.092V135.09V135.087V135.085V135.083V135.081V135.078V135.076V135.074V135.072V135.069V135.067V135.065V135.062V135.06V135.058V135.056V135.053V135.051V135.049V135.047V135.044V135.042V135.04V135.038V135.035V135.033V135.031V135.029V135.026V135.024V135.022V135.02V135.017V135.015V135.013V135.011V135.008V135.006V135.004V135.002V135V134.997V134.995V134.993V134.991V134.988V134.986V134.984V134.982V134.979V134.977V134.975V134.973V134.971V134.968V134.966V134.964V134.962V134.96V134.957V134.955V134.953V134.951V134.949V134.946V134.944V134.942V134.94V134.938V134.935V134.933V134.931V134.929V134.927V134.924V134.922V134.92V134.918V134.916V134.913V134.911V134.909V134.907V134.905V134.903V134.9V134.898V134.896V134.894V134.892V134.889V134.887V134.885V134.883V134.881V134.879V134.876V134.874V134.872V134.87V134.868V134.866V134.864V134.861V134.859V134.857V134.855V134.853V134.851V134.848V134.846V134.844V134.842V134.84V134.838V134.836V134.833V134.831V134.829V134.827V134.825V134.823V134.821V134.819V134.816V134.814V134.812V134.81V134.808V134.806V134.804V134.802V134.799V134.797V134.795V134.793V134.791V134.789V134.787V134.785V134.782V134.78V134.778V134.776V134.774V134.772V134.77V134.768V134.766V134.764V134.761V134.759V134.757V134.755V134.753V134.751V134.749V134.747V134.745V134.743V134.741V134.738V134.736V134.734V134.732V134.73V134.728V134.726V134.724V134.722V134.72V134.718V134.716V134.714V134.711V134.709V134.707V134.705V134.703V134.701V134.699V134.697V134.695V134.693V134.691V134.689V134.687V134.685V134.683V134.681V134.679V134.677V134.674V134.672V134.67V134.668V134.666V134.664V134.662V134.66V134.658V134.656V134.654V134.652V134.65V134.648V134.646V134.644V134.642V134.64V134.638V134.636V134.634V134.632V134.63V134.628V134.626V134.624V134.622V134.62V134.618V134.616V134.614V134.612V134.61V134.608V134.606V134.604V134.602V134.6V134.598V134.596V134.594V134.592V134.59V134.588V134.586V134.584V134.582V134.58V134.578V134.576V134.574V134.572V134.57V134.568V134.566V134.564V134.562V134.56V134.558V134.556V134.554V134.552V134.55V134.548V134.546V134.544V134.542V134.54V134.538V134.536V134.534V134.532V134.53V134.528V134.526V134.524V134.522V134.521V134.519V134.517V134.515V134.513V134.511V134.509V134.507V134.505V134.503V134.501V134.499V134.497V134.495V134.493V134.491V134.489V134.488V134.486V134.484V134.482V134.48V134.478V134.476V134.474V134.472V134.47V134.468V134.466V134.464V134.463V134.461V134.459V134.457V134.455V134.453V134.451V134.449V134.447V134.445V134.443V134.442V134.44V134.438V134.436V134.434V134.432V134.43V134.428V134.426V134.424V134.423V134.421V134.419V134.417V134.415V134.413V134.411V134.409V134.407V134.406V134.404V134.402V134.4C649.3 129.351 648.603 125.173 647.183 121.89C646.525 120.194 645.687 118.877 644.646 117.981C643.594 117.075 642.358 116.62 640.96 116.62C639.58 116.62 638.384 117.011 637.403 117.813C636.431 118.609 635.708 119.778 635.208 121.275C634.758 122.515 634.54 123.96 634.54 125.6C634.54 127.19 635.048 129.127 636.019 131.394C637.519 135.034 640.117 137.691 643.787 139.351C642.27 154.485 638.196 166.647 631.593 175.869Z" fill="white" stroke="white"/>
<path d="M706.126 155.7C705.018 162.165 704.46 167.441 704.46 171.52C704.46 177.214 705.424 181.573 707.426 184.521C709.452 187.503 712.498 188.98 716.48 188.98C719.147 188.98 722.206 187.141 725.634 183.714L725.639 183.708C729.076 180.163 732.137 176.243 734.822 171.949C737.603 167.669 740.489 162.752 743.48 157.197L743.482 157.194C746.466 151.546 748.446 147.641 749.414 145.49C750.479 143.254 751.33 141.499 751.967 140.224L752.329 139.5H751.52H747.2H746.885L746.749 139.784L741.471 150.819C741.471 150.82 741.471 150.821 741.47 150.821C737.856 158.156 733.496 165.494 728.39 172.834L728.387 172.839C725.889 176.505 723.673 179.231 721.739 181.034C719.786 182.855 718.201 183.66 716.96 183.66C716.391 183.66 715.913 183.506 715.506 183.207C715.092 182.904 714.723 182.431 714.415 181.753C713.793 180.385 713.46 178.271 713.46 175.36C713.46 169.544 714.466 161.796 716.489 152.104C718.622 142.294 720.541 133.712 722.246 126.356C724.058 118.896 726.51 109.569 729.602 98.3731C732.69 87.1923 734.299 81.2949 734.41 80.7381L734.412 80.7302L734.413 80.7222C734.543 79.9409 734.344 79.2182 733.844 78.5846C733.313 77.8007 732.511 77.42 731.52 77.42C729.388 77.42 727.521 78.5992 725.917 80.7841C724.318 82.9615 722.938 86.1881 721.758 90.4258C718.131 103.441 715.409 113.742 713.594 121.324L713.593 121.329C711.895 128.754 708.975 136.987 704.826 146.032L704.824 146.036C700.782 155.076 696.05 163.529 690.628 171.396C687.92 175.326 685.454 178.248 683.232 180.183C681 182.125 679.075 183.02 677.44 183.02C676.878 183.02 676.403 182.86 675.996 182.545C675.581 182.224 675.21 181.723 674.899 181.002C674.273 179.55 673.94 177.313 673.94 174.24C673.94 164.3 676.478 153.757 681.575 142.608L681.576 142.606C684.283 136.608 687.132 132.149 690.112 129.195C693.085 126.248 696.165 124.82 699.36 124.82C701.216 124.82 702.515 125.234 703.348 125.974L703.37 125.993L703.393 126.01C704.378 126.699 704.78 127.418 704.78 128.16C704.78 128.721 704.921 129.229 705.268 129.615C705.615 130 706.106 130.195 706.665 130.257L706.692 130.26H706.72C707.318 130.26 707.86 130.127 708.254 129.772C708.659 129.408 708.82 128.892 708.82 128.32C708.82 126.036 707.901 123.993 706.114 122.206C704.292 120.385 701.806 119.5 698.72 119.5C695.77 119.5 692.826 120.101 689.891 121.297L689.885 121.3L689.878 121.303C681.51 124.997 674.666 132.852 669.304 144.755L669.302 144.759C665.442 153.551 663.5 161.674 663.5 169.12C663.5 175.506 664.557 180.383 666.743 183.677C668.954 187.006 672.28 188.66 676.64 188.66C680.555 188.66 684.925 185.756 689.737 180.249C694.534 174.759 699.867 166.569 705.738 155.7H706.126Z" fill="white" stroke="white"/>
<path d="M745.144 144.755L745.144 144.755L745.142 144.759C741.282 153.551 739.34 161.673 739.34 169.12C739.34 175.506 740.397 180.383 742.583 183.677C744.794 187.006 748.12 188.66 752.48 188.66C756.384 188.66 760.631 185.984 765.212 180.894C769.771 175.829 774.746 168.277 780.139 158.26H780.371C779.578 163.157 779.18 167.472 779.18 171.2C779.18 177.002 780.171 181.441 782.227 184.443C784.307 187.478 787.433 188.98 791.52 188.98C794.19 188.98 797.196 187.138 800.519 183.708C803.956 180.163 807.017 176.243 809.702 171.949C812.483 167.669 815.369 162.752 818.36 157.197L818.362 157.194C821.346 151.546 823.326 147.641 824.294 145.49C825.359 143.254 826.21 141.498 826.847 140.224L827.209 139.5H826.4H822.08H821.769L821.631 139.779L816.191 150.819C812.576 158.156 808.268 165.496 803.267 172.839C800.769 176.506 798.566 179.232 796.657 181.037C794.727 182.86 793.183 183.66 792 183.66C791.479 183.66 791.044 183.526 790.675 183.27C790.303 183.01 789.97 182.606 789.691 182.024C789.126 180.846 788.82 179.016 788.82 176.48C788.82 175.33 788.925 173.43 789.138 170.77C789.458 168.115 791.371 158.28 794.89 141.221L794.891 141.214L794.892 141.207C795.216 139.374 795.38 137.743 795.38 136.32C795.38 134.047 795.045 132.259 794.31 131.024C793.55 129.749 792.385 129.1 790.88 129.1C789.903 129.1 789.053 129.714 788.319 130.702C787.58 131.695 786.894 133.151 786.247 135.038C784.984 138.722 780.795 147.053 773.642 160.079L773.642 160.079L773.639 160.084C770.346 166.245 766.739 171.655 762.817 176.318L762.817 176.319C760.913 178.593 759.159 180.277 757.555 181.389C755.949 182.503 754.528 183.02 753.28 183.02C752.718 183.02 752.243 182.86 751.836 182.544C751.421 182.224 751.05 181.723 750.739 181.002C750.113 179.55 749.78 177.313 749.78 174.24C749.78 164.3 752.318 153.757 757.415 142.608L757.416 142.606C760.123 136.608 762.972 132.149 765.952 129.195C768.925 126.248 772.005 124.82 775.2 124.82C777.056 124.82 778.355 125.234 779.188 125.974L779.209 125.993L779.233 126.01C780.218 126.699 780.62 127.418 780.62 128.16C780.62 128.721 780.761 129.229 781.108 129.614C781.455 130 781.946 130.195 782.505 130.257L782.532 130.26H782.56C783.158 130.26 783.7 130.127 784.094 129.772C784.499 129.408 784.66 128.891 784.66 128.32C784.66 126.036 783.741 123.993 781.954 122.206C780.132 120.385 777.646 119.5 774.56 119.5C771.61 119.5 768.666 120.101 765.731 121.297L765.725 121.3L765.718 121.303C757.35 124.997 750.506 132.852 745.144 144.755Z" fill="white" stroke="white"/>
<path d="M7.14408 370.755L7.14406 370.755L7.14214 370.759C3.28226 379.551 1.33997 387.674 1.33997 395.12C1.33997 401.506 2.39698 406.383 4.5834 409.677C6.79375 413.006 10.1201 414.66 14.48 414.66C18.3837 414.66 22.6308 411.984 27.2116 406.895C31.7706 401.829 36.7455 394.277 42.1388 384.26H42.3711C41.5783 389.157 41.18 393.472 41.18 397.2C41.18 403.002 42.1709 407.441 44.2275 410.443C46.3074 413.478 49.4334 414.98 53.52 414.98C56.1902 414.98 59.1963 413.138 62.5189 409.708C65.9564 406.163 69.0173 402.243 71.7016 397.949C74.4832 393.669 77.3693 388.752 80.3602 383.197L80.3621 383.194C83.3457 377.546 85.3255 373.641 86.2937 371.49C87.3588 369.254 88.2097 367.499 88.8472 366.224L89.209 365.5H88.4H84.08H83.7689L83.6315 365.779L78.1915 376.819C74.5759 384.156 70.268 391.496 65.2667 398.839C62.7689 402.506 60.5656 405.232 58.6565 407.037C56.7269 408.861 55.1831 409.66 54 409.66C53.4786 409.66 53.0438 409.526 52.6755 409.27C52.303 409.01 51.9699 408.606 51.6909 408.024C51.1263 406.846 50.82 405.016 50.82 402.48C50.82 401.33 50.9249 399.43 51.1376 396.77C51.4579 394.115 53.3712 384.28 56.8897 367.221L56.8911 367.214L56.8924 367.207C57.2159 365.374 57.38 363.743 57.38 362.32C57.38 360.047 57.0446 358.259 56.3096 357.024C55.5503 355.749 54.3846 355.1 52.88 355.1C51.9027 355.1 51.0525 355.714 50.3186 356.702C49.5805 357.696 48.8938 359.151 48.247 361.038C46.984 364.722 42.7953 373.053 35.6417 386.079L35.6417 386.079L35.639 386.084C32.3464 392.245 28.7387 397.655 24.8173 402.318L24.8166 402.319C22.9128 404.593 21.1586 406.277 19.555 407.389C17.9494 408.503 16.5283 409.02 15.28 409.02C14.7175 409.02 14.2433 408.86 13.8358 408.545C13.4215 408.224 13.0497 407.723 12.7391 407.002C12.1134 405.55 11.78 403.313 11.78 400.24C11.78 390.3 14.3179 379.757 19.4147 368.608L19.4157 368.606C22.1228 362.608 24.9724 358.149 27.952 355.195C30.9252 352.248 34.0054 350.82 37.2 350.82C39.0564 350.82 40.3554 351.234 41.1878 351.974L41.2095 351.993L41.2332 352.01C42.2182 352.699 42.62 353.418 42.62 354.16C42.62 354.721 42.7611 355.229 43.1083 355.615C43.4551 356 43.9456 356.195 44.5047 356.257L44.5323 356.26H44.56C45.1581 356.26 45.7001 356.127 46.0944 355.772C46.4988 355.408 46.66 354.892 46.66 354.32C46.66 352.036 45.7405 349.993 43.9535 348.206C42.1319 346.385 39.6459 345.5 36.56 345.5C33.6103 345.5 30.6664 346.101 27.7313 347.297L27.7246 347.3L27.718 347.303C19.3504 350.997 12.5058 358.852 7.14408 370.755Z" fill="white" stroke="white"/>
<path d="M220.944 393.314L219.757 391.336C217.089 386.688 212.563 384.5 206.8 384.5C196.717 384.5 187.203 387.306 178.299 392.865C169.429 398.137 162.217 405.216 156.68 414.075L156.674 414.084L156.668 414.094C151.502 422.523 147.419 431.366 144.424 440.621C141.403 449.688 139.9 459.286 139.9 469.4C139.9 479.725 142.691 490.499 148.153 501.696L148.158 501.707L148.164 501.718C152.694 510.778 160.032 517.93 170.021 523.205C180.321 528.77 192.477 531.5 206.4 531.5C234.685 531.5 256.415 522.634 271.135 504.583C278.435 495.66 284.663 486.321 289.811 476.567L289.812 476.566C300.331 456.606 308.819 418.567 315.448 362.879C324.824 361.82 333.665 359.643 341.961 356.339C342.315 366.942 344.209 375.955 347.749 383.287C349.749 387.43 352.293 390.704 355.456 392.941C358.644 395.196 362.324 396.3 366.4 396.3C368.79 396.3 371.015 395.861 372.742 394.642C374.577 393.347 375.507 391.415 375.691 389.208L375.917 386.5H373.2C371.252 386.5 369.655 386.008 368.313 385.088C366.951 384.155 365.706 382.682 364.648 380.506C362.498 376.087 361.3 369.144 361.3 359.4C361.3 355.302 361.638 350.721 362.323 345.648C366.07 343.085 369.588 340.288 372.875 337.256C389.124 322.897 397.7 308.144 397.7 293C397.7 289.06 396.792 285.64 394.534 283.201C392.243 280.727 388.97 279.7 385.2 279.7C373.087 279.7 363.318 286.728 355.837 299.745C348.641 312.011 344.196 326.167 342.456 342.164C334.856 345.806 326.376 348.427 316.997 350.009C317.199 348.25 317.3 346.447 317.3 344.6V344.605C317.3 344.605 317.301 344.575 317.304 344.499C317.309 344.416 317.316 344.303 317.325 344.156C317.345 343.863 317.376 343.463 317.417 342.951C317.499 341.928 317.624 340.487 317.79 338.622C318.123 334.895 318.622 329.5 319.289 322.435C320.612 308.405 322.998 292.759 326.451 275.49L326.454 275.479C328.567 264.648 330.919 256.329 333.475 250.438C336.27 244.605 339.934 239.692 344.461 235.669C348.805 231.807 353.815 229.9 359.6 229.9H362.649L362.051 226.91L361.651 224.91L361.603 224.667L361.508 224.438C360.675 222.44 359.402 220.803 357.635 219.686C355.881 218.578 353.823 218.1 351.6 218.1C337.006 218.1 325.454 225.198 317.068 238.895L317.051 238.922L317.034 238.951C312.974 245.989 308.931 254.214 304.902 263.615C302.786 268.553 300.243 278.435 297.251 292.997C294.349 307.12 290.985 325.852 287.161 349.179C280.786 347.627 275.401 345.389 270.962 342.504L267.1 339.993V344.6V352.2V353.478L268.136 354.227C272.76 357.566 278.456 360.041 285.153 361.707C280.487 390.002 275.825 414.235 271.169 434.415C267.729 448.173 263.917 459.175 259.764 467.482L259.75 467.51L259.736 467.539C255.802 475.932 250.942 484.342 245.15 492.768C239.499 500.727 232.89 506.412 225.343 509.935L225.312 509.949L225.282 509.964C217.547 513.832 210.329 515.7 203.6 515.7C196.492 515.7 190.989 515.17 187.006 514.175L186.98 514.168L186.954 514.162C178.582 512.259 171.993 508.555 167.05 503.118C162.094 497.668 158.657 490.323 156.855 480.929L156.848 480.893L156.84 480.858C155.81 476.221 155.3 471.736 155.3 467.4C155.3 453.525 159.403 439.983 167.713 426.736C180.368 406.854 197.342 397.1 218.8 397.1H223.215L220.944 393.314ZM449.569 212.546L449.576 212.54C458.463 205.32 463.3 197.207 463.3 188.2C463.3 182.707 462.147 178.121 459.408 174.885C456.602 171.569 452.505 170.1 447.6 170.1C444.191 170.1 441.177 171.042 438.773 173.102C436.398 175.137 434.858 178.06 433.975 181.594L433.198 184.7H436.185C436.201 184.707 436.22 184.714 436.24 184.723C436.295 184.747 436.362 184.777 436.44 184.815C437.195 185.238 437.588 185.798 437.731 186.695C437.901 187.757 437.719 189.388 436.854 191.736L436.837 191.781L436.822 191.827C435.376 196.276 431.878 199.812 425.763 202.282C419.587 204.777 410.918 206.1 399.6 206.1C384.776 206.1 363.065 201.922 334.323 193.407C305.67 184.571 281.409 180.1 261.6 180.1C242.002 180.1 223.348 184.595 205.668 193.571L205.657 193.576L205.647 193.582C178.411 207.744 159.457 229.573 148.849 258.951L148.848 258.953C143.967 272.51 141.5 285.464 141.5 297.8C141.5 310.165 144.113 321.99 149.332 333.251L149.335 333.258L149.338 333.266C154.988 345.255 162.904 354.36 173.12 360.448C183.322 366.527 195.655 369.5 210 369.5C213.419 369.5 216.433 368.103 218.968 365.568C221.293 363.242 222.9 360.639 222.9 357.8V355.3H220.4C211.658 355.3 203.903 353.631 197.084 350.348L197.078 350.344L197.071 350.341C177.433 341.025 167.3 322.001 167.3 292.2C167.3 271.415 173.654 251.91 186.448 233.634L186.449 233.632C205.167 206.856 231.19 193.5 264.8 193.5C280.394 193.5 303.554 198.33 334.44 208.182C365.453 218.074 390.145 223.1 408.4 223.1C426.737 223.1 440.638 219.748 449.569 212.546ZM373.821 303.747L373.829 303.732L373.836 303.718C375.905 299.579 377.923 296.654 379.84 294.795C381.742 292.951 383.384 292.3 384.8 292.3C384.921 292.3 385.015 292.307 385.084 292.316C385.093 292.385 385.1 292.479 385.1 292.6C385.1 294.22 384.87 296.002 384.384 297.957C381.598 307.785 375.43 317.211 365.682 326.207C367.848 317.531 370.567 310.052 373.821 303.747Z" fill="white" stroke="white" stroke-width="5"/>
<path d="M419.23 391.288L419.225 391.299L419.221 391.31C410.115 411.973 405.5 431.136 405.5 448.766C405.5 463.794 407.989 475.501 413.33 483.517C418.791 491.712 427.033 495.752 437.643 495.752C447.388 495.752 457.685 489.126 468.485 477.171C478.466 466.122 489.244 450.113 500.828 429.228C499.568 438.267 498.933 446.402 498.933 453.626C498.933 467.293 501.268 477.986 506.314 485.323C511.477 492.829 519.248 496.5 529.2 496.5C536.034 496.5 543.418 491.839 551.254 483.78C559.38 475.432 566.614 466.202 572.956 456.095C579.502 446.061 586.287 434.542 593.312 421.544L593.317 421.535L593.321 421.526C600.311 408.346 604.971 399.191 607.263 394.119C609.757 388.903 611.746 384.815 613.234 381.85L615.052 378.229H611H600.869H599.316L598.628 379.621L585.87 405.415C577.421 422.498 567.35 439.593 555.653 456.701C549.819 465.234 544.714 471.516 540.337 475.638C535.859 479.855 532.563 481.407 530.325 481.407C529.345 481.407 528.594 481.16 527.974 480.73C527.333 480.286 526.686 479.544 526.106 478.337C524.912 475.856 524.195 471.823 524.195 465.963C524.195 463.337 524.436 458.955 524.933 452.755C525.685 446.587 530.154 423.692 538.402 383.853L538.409 383.817L538.415 383.782C539.184 379.445 539.579 375.555 539.579 372.131C539.579 366.73 538.787 362.265 536.88 359.073C534.852 355.677 531.678 353.93 527.699 353.93C524.799 353.93 522.46 355.751 520.629 358.207C518.778 360.689 517.114 364.24 515.579 368.7C512.662 377.175 502.905 396.53 486.11 426.999L486.103 427.011L486.096 427.024C478.412 441.347 470.002 453.908 460.873 464.724L460.87 464.728C456.448 469.99 452.421 473.829 448.792 476.336C445.154 478.85 442.083 479.911 439.519 479.911C438.475 479.911 437.651 479.622 436.941 479.076C436.197 478.502 435.445 477.54 434.778 475.998C433.421 472.86 432.639 467.853 432.639 460.729C432.639 437.735 438.531 413.293 450.422 387.379L450.427 387.368C456.741 373.431 463.342 363.174 470.169 356.433C476.964 349.723 483.87 346.593 490.926 346.593C495.113 346.593 497.787 347.527 499.4 348.956L499.508 349.052L499.627 349.135C501.721 350.595 502.31 351.915 502.31 353.065C502.31 354.595 502.698 356.14 503.799 357.358C504.896 358.573 506.392 359.12 507.912 359.289L508.049 359.304H508.187C509.76 359.304 511.406 358.957 512.67 357.824C513.985 356.644 514.439 355.021 514.439 353.439C514.439 347.699 512.105 342.599 507.7 338.21L505.935 339.981L507.7 338.21C503.122 333.649 496.923 331.5 489.425 331.5C482.324 331.5 475.251 332.943 468.222 335.796L468.189 335.809L468.156 335.824C448.124 344.636 431.881 363.308 419.23 391.288Z" fill="white" stroke="white" stroke-width="5"/>
<path d="M747.444 349.425C737.951 359.941 728.47 374.744 718.979 393.75C721.585 378.64 722.9 365.584 722.9 354.6C722.9 346.596 720.457 339.62 715.529 333.809C710.741 327.842 704.132 324.9 696 324.9C683.999 324.9 672.234 332.141 660.703 345.571C650.657 357.273 640.544 373.946 630.339 395.499L634.05 376.699C635.142 371.504 635.7 366.667 635.7 362.2C635.7 357.425 634.998 353.006 633.558 348.971C631.027 341.665 626.802 336.9 620.4 336.9C617.74 336.9 615.42 337.868 613.702 339.873C612.077 341.769 611.168 344.382 610.732 347.401C603.268 388.983 597.669 420.947 593.934 443.288C592.066 454.46 590.663 463.238 589.727 469.611C588.804 475.888 588.3 480.041 588.3 481.8C588.3 487.725 589.25 492.601 591.505 496.064C593.881 499.713 597.513 501.5 602 501.5C604.475 501.5 606.602 500.505 608.205 498.619C609.715 496.842 610.665 494.394 611.241 491.544C614.136 479.738 623.916 453.407 640.714 412.347L640.719 412.335L640.723 412.323C648.406 392.983 656.999 376.071 666.492 361.569L666.497 361.561L666.503 361.552C671.242 354.18 675.6 348.789 679.561 345.269C683.549 341.724 686.876 340.3 689.6 340.3C691.361 340.3 692.537 340.978 693.429 342.54C694.441 344.311 695.1 347.29 695.1 351.8C695.1 356.105 694.036 365.243 691.83 379.416C689.635 393.514 686.34 412.421 681.942 436.144L681.94 436.156L681.937 436.168C679.669 449.11 677.965 459.366 676.828 466.928C675.703 474.407 675.1 479.441 675.1 481.8C675.1 487.725 676.05 492.601 678.305 496.064C680.681 499.713 684.313 501.5 688.8 501.5C691.404 501.5 693.561 500.295 695.169 498.241C696.7 496.284 697.74 493.566 698.443 490.331L698.445 490.321L698.447 490.31C699.739 484.11 704.205 470.152 711.952 448.247C719.901 426.522 730.376 403.844 743.387 380.211C750.006 368.297 756.115 359.512 761.697 353.738C767.334 347.907 772.086 345.5 776 345.5C777.286 345.5 779.235 346.709 781.048 349.773C782.763 352.67 783.9 356.532 783.9 360.2C783.9 363.729 782.491 368.715 779.917 376.845C779.565 377.957 779.193 379.12 778.805 380.339C776.402 387.867 773.329 397.5 769.986 409.95C762.239 438.534 758.3 460.659 758.3 476.2C758.3 488.518 760.248 498.186 764.492 504.844C768.857 511.693 775.489 515.1 784 515.1C787.725 515.1 791.072 514 793.935 511.773C796.563 509.729 798.5 507.218 798.5 504.2V501.7H796C795.026 501.7 794.221 501.393 793.475 500.719C792.676 499.998 791.861 498.774 791.145 496.834C789.702 492.924 788.9 486.783 788.9 478.2C788.9 466.79 792.165 446.916 798.832 418.379C805.746 389.925 809.3 370.956 809.3 361.8C809.3 352.564 806.913 344.873 801.905 338.981C796.881 333.071 790.309 330.1 782.4 330.1C770.46 330.1 758.805 336.839 747.444 349.425Z" fill="white" stroke="white" stroke-width="5"/>
<path d="M948.4 376.5H946.845L946.157 377.895L932.557 405.495C923.547 423.782 912.807 442.081 900.334 460.393C894.111 469.528 888.661 476.261 883.983 480.683C879.201 485.202 875.649 486.9 873.2 486.9C872.06 486.9 871.181 486.644 870.475 486.215C869.763 485.781 869.088 485.086 868.493 483.999C867.261 481.749 866.5 478.054 866.5 472.6C866.5 461.339 867.941 448.441 870.851 433.89L870.856 433.869L870.86 433.847C872.456 425.065 873.918 417.628 875.243 411.531C876.569 405.433 878.428 397.594 880.825 388.006C883.226 378.402 884.966 371.176 886.04 366.342L886.043 366.329L886.046 366.315C887.144 361.102 887.7 356.129 887.7 351.4C887.7 346.697 887.15 342.557 885.981 339.037C884.848 335.366 883.289 332.354 881.168 330.232C878.977 328.041 876.279 326.9 873.2 326.9C870.685 326.9 868.542 327.959 866.902 329.873C865.34 331.695 864.283 334.222 863.571 337.207C862.762 340.445 861.956 344.075 861.152 348.093C860.364 351.769 859.587 354.732 858.828 357.009L858.787 357.132L858.759 357.258C858.23 359.639 857.435 363.087 856.371 367.607C845.439 410.804 839.9 442.263 839.9 461.8C839.9 474.851 842.403 485.099 847.82 492.126C853.332 499.277 861.549 502.7 872 502.7C879.218 502.7 887.048 497.756 895.395 489.14C904.049 480.216 911.753 470.349 918.508 459.544C925.483 448.812 932.713 436.491 940.201 422.585L940.206 422.577L940.21 422.568C947.662 408.463 952.628 398.671 955.069 393.251C957.727 387.668 959.849 383.292 961.436 380.118L963.245 376.5H959.2H948.4ZM926.342 253.775L926.415 253.684L926.48 253.587C928.736 250.202 930.1 246.909 930.1 243.8C930.1 242.033 929.651 240.37 928.634 238.947C927.647 237.565 926.251 236.585 924.627 235.919C921.646 234.445 918.495 233.7 915.2 233.7C911.11 233.7 907.414 236.446 904.09 240.585C895.234 250.519 887.569 260.47 881.102 270.44L881.098 270.447L881.093 270.454C878.003 275.291 875.647 279.347 874.054 282.601C872.524 285.729 871.5 288.496 871.5 290.6C871.5 292.396 871.903 294.21 873.15 295.582C874.438 296.999 876.217 297.5 878 297.5C879.316 297.5 880.685 297.003 881.968 296.361C883.305 295.693 884.812 294.731 886.473 293.52C889.795 291.097 893.947 287.518 898.906 282.828C909.116 273.423 918.263 263.739 926.342 253.775Z" fill="white" stroke="white" stroke-width="5"/>
<path d="M987.1 504.2V501.7H984.6C981.309 501.7 978.539 500.877 976.195 499.301C973.834 497.713 971.76 495.262 970.04 491.79C966.564 484.776 964.7 473.941 964.7 459C964.7 442.645 967.881 415.46 974.304 377.329C974.43 377.477 974.573 377.62 974.738 377.752C975.253 378.164 975.894 378.4 976.581 378.4C977.217 378.4 977.739 378.199 978.101 378.006C978.783 377.642 979.324 377.076 979.72 376.6L979.727 376.592C984.876 370.359 990.667 362.273 997.097 352.36L997.103 352.352C1021.2 314.871 1039.69 277.359 1052.56 239.815C1059.25 220.547 1062.7 205.295 1062.7 194.2C1062.7 186.87 1061.26 180.911 1057.96 176.747C1054.57 172.472 1049.56 170.5 1043.4 170.5C1035.56 170.5 1028 173.877 1020.75 180.219C1013.53 186.542 1006.5 195.907 999.622 208.172C985.897 232.395 974.758 260.869 966.182 293.566C957.633 326.156 950.685 357.421 945.339 387.359C940.002 416.982 937.3 439.165 937.3 453.8C937.3 473.551 940.04 488.762 945.817 499.118C948.726 504.334 952.43 508.359 956.967 511.071C961.508 513.785 966.748 515.1 972.6 515.1C976.324 515.1 979.672 514 982.535 511.773C985.163 509.729 987.1 507.218 987.1 504.2ZM1034.27 247.3C1018.15 288.769 999.298 325.741 977.709 358.229C985.222 318.721 995.11 280.576 1007.37 243.794C1014.15 223.735 1020.73 208.867 1027.1 199.061C1033.5 189.191 1039.2 185.185 1044.05 185.101C1045.24 185.281 1046.23 185.963 1047.04 187.668C1047.94 189.577 1048.5 192.61 1048.5 197C1048.5 201.179 1047.38 207.442 1044.99 215.923C1042.62 224.355 1039.05 234.808 1034.27 247.3Z" fill="white" stroke="white" stroke-width="5"/>
<path d="M1064.62 292.558C1065.22 294.535 1066.51 296.049 1068.34 297.012C1070.09 297.938 1072.24 298.3 1074.6 298.3C1078.24 298.3 1082.2 296.669 1086.36 293.896C1094.95 288.451 1099.5 281.052 1099.5 271.8C1099.5 267.43 1098.7 263.699 1096.71 261.01C1094.61 258.182 1091.49 256.9 1087.8 256.9C1084.8 256.9 1082.08 257.698 1079.75 259.366C1077.43 261.018 1075.65 263.413 1074.32 266.374L1074.31 266.402L1074.3 266.43C1072.1 271.645 1070.45 277.002 1069.35 282.497C1068.85 284.893 1068.23 286.418 1067.64 287.288C1067.09 288.087 1066.75 288.1 1066.6 288.1H1063.13L1064.23 291.391L1064.62 292.558ZM1137.4 376.5H1135.84L1135.16 377.895L1121.56 405.495C1112.55 423.782 1101.81 442.081 1089.33 460.393C1083.11 469.528 1077.66 476.261 1072.98 480.683C1068.2 485.202 1064.65 486.9 1062.2 486.9C1061.06 486.9 1060.18 486.644 1059.47 486.215C1058.76 485.781 1058.09 485.086 1057.49 483.999C1056.26 481.749 1055.5 478.054 1055.5 472.6C1055.5 461.339 1056.94 448.441 1059.85 433.89L1059.86 433.869L1059.86 433.847C1061.46 425.065 1062.92 417.628 1064.24 411.531C1065.57 405.433 1067.43 397.594 1069.83 388.006C1072.23 378.402 1073.97 371.176 1075.04 366.342L1075.04 366.329L1075.05 366.315C1076.14 361.102 1076.7 356.129 1076.7 351.4C1076.7 346.697 1076.15 342.557 1074.98 339.037C1073.85 335.366 1072.29 332.354 1070.17 330.232C1067.98 328.041 1065.28 326.9 1062.2 326.9C1059.69 326.9 1057.54 327.959 1055.9 329.873C1054.34 331.695 1053.28 334.222 1052.57 337.207C1051.76 340.445 1050.96 344.075 1050.15 348.093C1049.36 351.769 1048.59 354.732 1047.83 357.009L1047.79 357.132L1047.76 357.258C1047.23 359.639 1046.43 363.087 1045.37 367.607C1034.44 410.804 1028.9 442.263 1028.9 461.8C1028.9 474.851 1031.4 485.099 1036.82 492.126C1042.33 499.277 1050.55 502.7 1061 502.7C1068.22 502.7 1076.05 497.756 1084.39 489.14C1093.05 480.216 1100.75 470.349 1107.51 459.544C1114.48 448.812 1121.71 436.491 1129.2 422.585L1129.21 422.577L1129.21 422.568C1136.66 408.463 1141.63 398.671 1144.07 393.251C1146.73 387.668 1148.85 383.292 1150.44 380.118L1152.24 376.5H1148.2H1137.4Z" fill="white" stroke="white" stroke-width="5"/>
<path d="M1128.23 391.288L1128.23 391.299L1128.22 391.31C1119.12 411.973 1114.5 431.136 1114.5 448.766C1114.5 463.794 1116.99 475.501 1122.33 483.517C1127.79 491.712 1136.03 495.752 1146.64 495.752C1156.39 495.752 1166.69 489.126 1177.48 477.171C1187.47 466.122 1198.24 450.113 1209.83 429.228C1208.57 438.267 1207.93 446.402 1207.93 453.626C1207.93 467.293 1210.27 477.986 1215.31 485.323C1220.48 492.829 1228.25 496.5 1238.2 496.5C1245.03 496.5 1252.42 491.839 1260.25 483.78C1268.38 475.432 1275.61 466.202 1281.96 456.095C1288.5 446.061 1295.29 434.542 1302.31 421.544L1302.32 421.535L1302.32 421.526C1309.31 408.346 1313.97 399.191 1316.26 394.119C1318.76 388.903 1320.75 384.815 1322.23 381.85L1324.05 378.229H1320H1309.87H1308.32L1307.63 379.621L1294.87 405.415C1286.42 422.498 1276.35 439.593 1264.65 456.701C1258.82 465.234 1253.71 471.516 1249.34 475.638C1244.86 479.855 1241.56 481.407 1239.33 481.407C1238.34 481.407 1237.59 481.16 1236.97 480.73C1236.33 480.286 1235.69 479.544 1235.11 478.337C1233.91 475.856 1233.2 471.823 1233.2 465.963C1233.2 463.337 1233.44 458.955 1233.93 452.755C1234.69 446.587 1239.15 423.692 1247.4 383.853L1247.41 383.817L1247.42 383.782C1248.18 379.445 1248.58 375.555 1248.58 372.131C1248.58 366.73 1247.79 362.265 1245.88 359.073C1243.85 355.677 1240.68 353.93 1236.7 353.93C1233.8 353.93 1231.46 355.751 1229.63 358.207C1227.78 360.689 1226.11 364.24 1224.58 368.7C1221.66 377.175 1211.91 396.53 1195.11 426.999L1195.1 427.011L1195.1 427.024C1187.41 441.347 1179 453.908 1169.87 464.724L1169.87 464.728C1165.45 469.99 1161.42 473.829 1157.79 476.336C1154.15 478.85 1151.08 479.911 1148.52 479.911C1147.47 479.911 1146.65 479.622 1145.94 479.076C1145.2 478.502 1144.45 477.54 1143.78 475.998C1142.42 472.86 1141.64 467.853 1141.64 460.729C1141.64 437.735 1147.53 413.293 1159.42 387.379L1159.43 387.368C1165.74 373.431 1172.34 363.174 1179.17 356.433C1185.96 349.723 1192.87 346.593 1199.93 346.593C1204.11 346.593 1206.79 347.527 1208.4 348.956L1208.51 349.052L1208.63 349.135C1210.72 350.595 1211.31 351.915 1211.31 353.065C1211.31 354.595 1211.7 356.14 1212.8 357.358C1213.9 358.573 1215.39 359.12 1216.91 359.289L1217.05 359.304H1217.19C1218.76 359.304 1220.41 358.957 1221.67 357.824C1222.99 356.644 1223.44 355.021 1223.44 353.439C1223.44 347.699 1221.1 342.599 1216.7 338.21L1214.94 339.981L1216.7 338.21C1212.12 333.649 1205.92 331.5 1198.43 331.5C1191.32 331.5 1184.25 332.943 1177.22 335.796L1177.19 335.809L1177.16 335.824C1157.12 344.636 1140.88 363.308 1128.23 391.288Z" fill="white" stroke="white" stroke-width="5"/>
</svg>
