<?xml version="1.0" ?><svg viewBox="0 0 64 64" xmlns="http://www.w3.org/2000/svg"><g data-name="21-Christmas Balls" id="_21-Christmas_Balls"><path d="M32,15A24,24,0,1,1,8,39,24.006,24.006,0,0,1,32,15Z" style="fill:#df2d3d"/><path d="M37,11v4H35.62a1,1,0,0,1-.9-.55L34,12v2a1,1,0,0,1-1,1H31a1,1,0,0,1-1-1V12l-.72,2.45a1,1,0,0,1-.9.55H27V11a2.006,2.006,0,0,1,2-2h6A2.006,2.006,0,0,1,37,11Z" style="fill:#edc332"/><ellipse cx="32" cy="5" rx="3" ry="4" style="fill:#fff"/><path d="M34.72,14.45,34,12v2a1,1,0,0,1-1,1H32a24.082,24.082,0,0,1,5,.526V15H35.62A1,1,0,0,1,34.72,14.45Z" style="fill:#8a0314"/><path d="M31,15a1,1,0,0,1-1-1V12l-.72,2.45a1,1,0,0,1-.9.55H27v.526A24.082,24.082,0,0,1,32,15Z" style="fill:#8a0314"/><rect height="3" rx="1" ry="1" style="fill:#ffdc63" width="2" x="31" y="10"/><rect height="3" rx="1" ry="1" style="fill:#ffdc63" width="2" x="35" y="10"/><rect height="3" rx="1" ry="1" style="fill:#ffdc63" width="2" x="27" y="10"/><path d="M30.96,15.03C30.31,15.43,20.89,21.39,18,32c-2.53,9.31.72,21.93,7.17,30a23.991,23.991,0,0,1,5.79-46.97Z" style="fill:#007145"/><path d="M33.03,15.03A23.991,23.991,0,0,1,46.5,58.12,31.017,31.017,0,0,0,50,41C49,25,33.79,15.66,33.03,15.03Z" style="fill:#007145"/><path d="M31.02,15.02c.27.48,7,12.21,7.98,22.98a168.43,168.43,0,0,1,0,23.96,23.947,23.947,0,0,1-4.09.86C31.96,56.98,29.97,55.86,27,42c-2.92-13.62,3.62-26.3,3.98-26.97l.01-.01Z" style="fill:#007145"/><path d="M30.98,15.03C30.62,15.7,24.08,28.38,27,42c2.97,13.86,4.96,14.98,7.91,20.82A23.2,23.2,0,0,1,32,63a23.7,23.7,0,0,1-6.83-1c-6.45-8.07-9.7-20.69-7.17-30,2.89-10.61,12.31-16.57,12.96-16.97h.01C30.98,15.02,30.98,15.03,30.98,15.03Z" style="fill:#ff273a"/><path d="M33.03,15.03C33.79,15.66,49,25,50,41a31.017,31.017,0,0,1-3.5,17.12A24.112,24.112,0,0,1,39,61.96,168.43,168.43,0,0,0,39,38c-.98-10.77-7.71-22.5-7.98-22.98.32-.01.65-.02.98-.02C32.35,15,32.69,15.01,33.03,15.03Z" style="fill:#ff273a"/><path d="M30.96,15.03c-.244.01-.486.031-.728.049.234-.017.471-.026.707-.036Z" style="fill:#007145"/><path d="M25.087,61.972c.028.008.055.02.083.028l0,0Z" style="fill:#007145"/><path d="M46.5,58.12c.3-.225.584-.461.87-.7-.278.232-.566.45-.854.669Z" style="fill:#007145"/><path d="M34.91,62.82c.031,0,.061-.011.092-.015l-.094.011Z" style="fill:#007145"/><path d="M31.031,15.039l-.011-.019h-.03l-.01.01-.006.011Z" style="fill:#007145"/><path d="M38.773,62.018c.074-.022.152-.035.227-.058v-.011Z" style="fill:#007145"/><path d="M25.17,62l.065.017L25.167,62Z" style="fill:#ff273a"/><path d="M30.974,15.041l.006-.011s0-.01-.01,0h-.01l-.021.013Z" style="fill:#ff273a"/><path d="M34.78,62.832c.043-.005.087-.007.13-.012l0,0Z" style="fill:#ff273a"/><path d="M39,61.96c.073-.022.142-.053.215-.076L39,61.949Z" style="fill:#ff273a"/><path d="M46.3,58.257c.064-.048.134-.089.2-.137l.016-.031C46.444,58.144,46.375,58.2,46.3,58.257Z" style="fill:#ff273a"/><path d="M34.379,62.882c.134-.014.267-.034.4-.05-.135.016-.272.025-.407.038Z" style="fill:#d79d44"/><path d="M35.4,62.756,35.4,62.74c-.132.018-.26.048-.394.065C35.135,62.788,35.269,62.774,35.4,62.756Z" style="fill:#d79d44"/><path d="M39.513,61.793v-.016c-.1.033-.2.074-.3.107C39.314,61.852,39.415,61.825,39.513,61.793Z" style="fill:#d79d44"/><path d="M38.519,62.1c.085-.024.169-.053.254-.078-.085.025-.172.042-.256.066Z" style="fill:#d79d44"/><path d="M29.964,15.092l-.007,0c.091-.007.184-.012.275-.018C30.143,15.085,30.053,15.085,29.964,15.092Z" style="fill:#d79d44"/><path d="M24.358,61.749c.24.081.485.149.729.223-.255-.077-.5-.172-.753-.256Z" style="fill:#d79d44"/><path d="M25.64,62.141a.109.109,0,0,0,0-.018c-.134-.037-.273-.066-.406-.106C25.37,62.057,25.5,62.1,25.64,62.141Z" style="fill:#d79d44"/><path d="M30.232,15.079c-.091.006-.184.011-.275.018A24,24,0,0,0,8,39c0,.324.027.642.04.963l6.982-6.4A16.983,16.983,0,0,1,26.4,17.965q.558-.195,1.132-.351a29.262,29.262,0,0,1,3.41-2.571C30.7,15.053,30.466,15.062,30.232,15.079Z" style="fill:#007145"/><path d="M31.031,15.039l-.057,0c-.088.165-.466.9-.975,2.087.192-.023.385-.04.579-.056.316-.027.637-.04.958-.049.156,0,.308-.023.464-.023.031,0,.06,0,.091,0C31.51,15.884,31.112,15.183,31.031,15.039Z" style="fill:#007145"/><path d="M30.939,15.043a29.262,29.262,0,0,0-3.41,2.571c.371-.1.741-.2,1.121-.28.25-.05.507-.078.761-.116.2-.03.39-.067.588-.09.509-1.189.887-1.922.975-2.087Z" style="fill:#c22026"/><path d="M33.972,15.092l-.007-.005c-.326-.027-.653-.049-.982-.062l0,0h.05C33.346,15.043,33.659,15.067,33.972,15.092Z" style="fill:#d79d44"/><path d="M46.12,58.4c.062-.045.12-.1.182-.142-.061.045-.126.085-.188.13Z" style="fill:#d79d44"/><path d="M47.446,57.36v0l-.077.062C47.4,57.4,47.421,57.381,47.446,57.36Z" style="fill:#d79d44"/><path d="M48.978,33.563l0,.043c0,.132.02.261.02.394,0,.369-.032.73-.055,1.093A26.575,26.575,0,0,1,50,41a31.014,31.014,0,0,1-3.484,17.089c.288-.219.576-.437.854-.669l.077-.062a23.941,23.941,0,0,0,8.524-17.385Z" style="fill:#004a2d"/><path d="M32,51a16.963,16.963,0,0,1-2.222-.162c-.187-.024-.372-.054-.557-.085,1.888,6.044,3.532,7.8,5.687,12.063L35,62.805c.134-.017.262-.047.394-.065a23.93,23.93,0,0,0,3.121-.656c.084-.024.171-.041.256-.066L39,61.949c.042-.573.436-6.025.443-12.683-.165.081-.33.164-.5.24A16.925,16.925,0,0,1,32,51Z" style="fill:#004a2d"/><path d="M16.761,41.5A16.893,16.893,0,0,1,15,34c0-.148.018-.29.022-.437l-6.982,6.4A23.967,23.967,0,0,0,24.334,61.716c.251.084.5.179.753.256l.08.024a38.909,38.909,0,0,1-7.8-19.374C17.151,42.256,16.95,41.882,16.761,41.5Z" style="fill:#004a2d"/><path d="M33.972,15.092c-.313-.025-.626-.049-.942-.062.216.179,1.6,1.061,3.484,2.6.415.114.823.245,1.225.389A16.984,16.984,0,0,1,48.978,33.563l6.993,6.41c.013-.323.029-.646.029-.973A23.991,23.991,0,0,0,33.972,15.092Z" style="fill:#007145"/><path d="M28.676,50.67a17,17,0,0,1-10.69-7.054c-.22-.321-.42-.657-.619-.994A38.909,38.909,0,0,0,25.167,62l.068.021c.133.04.272.069.406.106A23.676,23.676,0,0,0,32,63a23.171,23.171,0,0,0,2.373-.13c.135-.013.272-.022.407-.038l.128-.016c-2.155-4.266-3.8-6.019-5.687-12.063C29.04,50.724,28.855,50.706,28.676,50.67Z" style="fill:#911a1c"/><path d="M50,41a26.575,26.575,0,0,0-1.055-5.907q-.047.717-.15,1.415a16.994,16.994,0,0,1-8.85,12.516c-.164.087-.334.16-.5.242-.007,6.658-.4,12.11-.443,12.683l.214-.065c.1-.033.2-.074.3-.107a24.078,24.078,0,0,0,6.6-3.39c.062-.045.127-.085.188-.13s.142-.113.214-.168A31.014,31.014,0,0,0,50,41Z" style="fill:#911a1c"/><path d="M33.03,15.03h-.05C32.657,15.01,32.333,15,32,15s-.66.01-.98.02l.011.019c.081.144.479.845,1.06,1.966.2,0,.384.021.577.029a17.046,17.046,0,0,1,2.645.294c.407.081.8.188,1.2.3C34.626,16.091,33.246,15.209,33.03,15.03Z" style="fill:#c22026"/><path d="M48.98,33.606l0-.043-.022-.02C48.964,33.564,48.973,33.585,48.98,33.606Z" style="fill:#007145"/><path d="M17.417,32.308a4.7,4.7,0,0,0-2.282,1.151l-.113.1c0,.147-.022.289-.022.437a16.893,16.893,0,0,0,1.761,7.5c.189.383.39.757.606,1.123a28.9,28.9,0,0,1,.58-10.388A4.757,4.757,0,0,0,17.417,32.308Z" style="fill:#007145"/><path d="M38.945,37.486a4.892,4.892,0,0,1-.485.2A4.979,4.979,0,0,1,36.751,38h-9.5c-.115,0-.226-.017-.34-.025a5.184,5.184,0,0,1-.516-.056A33.306,33.306,0,0,0,27,42c.8,3.728,1.527,6.529,2.221,8.753.185.031.37.061.557.085a16.5,16.5,0,0,0,9.168-1.332c.168-.076.333-.159.5-.24,0-3.6-.105-7.546-.444-11.266C38.984,37.829,38.963,37.657,38.945,37.486Z" style="fill:#007145"/><path d="M48.98,33.606c-.007-.021-.016-.042-.024-.063l-.091-.084a4.9,4.9,0,0,0-.643-.487q.4,1.033.723,2.121C48.968,34.73,49,34.369,49,34,49,33.867,48.983,33.738,48.98,33.606Z" style="fill:#007145"/><path d="M37.739,18.014c-.4-.144-.81-.275-1.225-.389,3.559,2.893,8.921,8.115,11.708,15.347a4.9,4.9,0,0,1,.643.487l.091.084.022.02A16.984,16.984,0,0,0,37.739,18.014Z" style="fill:#00995d"/><path d="M26.4,17.965a16.983,16.983,0,0,0-11.375,15.6l.113-.1a4.7,4.7,0,0,1,2.282-1.151,4.757,4.757,0,0,1,.53-.074c.02-.077.032-.158.053-.234,1.845-6.772,6.343-11.639,9.529-14.386Q26.955,17.77,26.4,17.965Z" style="fill:#00995d"/><path d="M32,17c-.156,0-.308.019-.464.023-.321.009-.642.022-.958.049-.194.016-.387.033-.579.056a44.987,44.987,0,0,0-3.606,20.791,5.184,5.184,0,0,0,.516.056c.114.008.225.025.34.025h9.5a4.979,4.979,0,0,0,1.709-.314,4.892,4.892,0,0,0,.485-.2c-.874-8.135-4.894-16.7-6.854-20.481C32.06,17,32.031,17,32,17Z" style="fill:#00995d"/><path d="M26.393,37.919a5.189,5.189,0,0,1-.515-.115,5,5,0,0,1-3.2-2.773h0a4.725,4.725,0,0,0-4.218-2.811,4.662,4.662,0,0,0-.515.014,28.9,28.9,0,0,0-.58,10.388c.2.337.4.673.619.994a17,17,0,0,0,10.69,7.054c.179.036.364.054.545.083C28.527,48.529,27.8,45.728,27,42A33.306,33.306,0,0,1,26.393,37.919Z" style="fill:#c22026"/><path d="M48.222,32.972a4.724,4.724,0,0,0-6.9,2.059h0a4.984,4.984,0,0,1-2.375,2.455c.018.171.039.343.055.514.339,3.72.448,7.668.444,11.266.167-.082.337-.155.5-.242A16.994,16.994,0,0,0,48.8,36.508q.1-.7.15-1.415Q48.622,34.006,48.222,32.972Z" style="fill:#c22026"/><path d="M29.411,17.218c-.254.038-.511.066-.761.116-.38.076-.75.179-1.121.28C24.343,20.361,19.845,25.228,18,32c-.021.076-.033.157-.053.234a4.662,4.662,0,0,1,.515-.014,4.725,4.725,0,0,1,4.218,2.811h0a5,5,0,0,0,3.2,2.773,5.189,5.189,0,0,0,.515.115A44.987,44.987,0,0,1,30,17.128C29.8,17.151,29.607,17.188,29.411,17.218Z" style="fill:#ff273a"/><path d="M36.514,17.625c-.4-.109-.794-.216-1.2-.3a17.046,17.046,0,0,0-2.645-.294c-.193-.008-.382-.028-.577-.029,1.96,3.783,5.98,12.346,6.854,20.481a4.984,4.984,0,0,0,2.375-2.455h0a4.724,4.724,0,0,1,6.9-2.059C45.435,25.74,40.073,20.518,36.514,17.625Z" style="fill:#ff273a"/><path d="M50.91,38.87a1.9,1.9,0,0,0-.877-1.413,2.5,2.5,0,0,0-.571-.293A26.174,26.174,0,0,1,50,41a36.634,36.634,0,0,1-.006,4.681,4.833,4.833,0,0,0,.558-1.269A16.025,16.025,0,0,0,50.91,38.87Z" style="fill:#007145"/><path d="M50,41a26.174,26.174,0,0,0-.538-3.836,2.8,2.8,0,0,0-.55-.133c-.068-.009-.138-.012-.208-.016a16.946,16.946,0,0,1-3.671,7.873A2.533,2.533,0,0,0,46.99,46.92a2.694,2.694,0,0,0,2.451-.616l.019-.014a2.858,2.858,0,0,0,.534-.609A36.634,36.634,0,0,0,50,41Z" style="fill:#eb2335"/><path d="M48.52,37a2.23,2.23,0,0,0-2.4,2.03,14.879,14.879,0,0,1-.99,4.79,2.174,2.174,0,0,0-.1,1.068A16.946,16.946,0,0,0,48.7,37.015C48.642,37.011,48.583,37,48.52,37Z" style="fill:#ff273a"/><path d="M48.245,29.073a10.781,10.781,0,0,0-5.69-6.269c-.318-.145-.653-.279-1-.4a34.456,34.456,0,0,1,6.669,10.57c.056.144.1.3.151.443a1.866,1.866,0,0,0,.358-.438,1.809,1.809,0,0,0,.181-.435A16.911,16.911,0,0,0,48.245,29.073Z" style="fill:#00e088"/><path d="M35.2,25.1a4,4,0,0,0,1.557,4.5,4.423,4.423,0,0,0,.634.378c-.57-1.942-1.233-3.81-1.912-5.532A4.043,4.043,0,0,0,35.2,25.1Z" style="fill:#00e088"/><path d="M48.222,32.972a4.662,4.662,0,0,0-4.418-.366c.679.339,1.329.694,1.926,1.064a2.192,2.192,0,0,0,2.211.055,2.114,2.114,0,0,0,.432-.31C48.32,33.27,48.278,33.116,48.222,32.972Z" style="fill:#ff273a"/><path d="M41.553,22.4c-.2-.073-.407-.148-.623-.212-.11-.033-.223-.047-.334-.071a4.7,4.7,0,0,0-4.7,1.661l-.06.09c-.013.017-.022.034-.034.051a4.084,4.084,0,0,0-.331.526c.679,1.722,1.342,3.59,1.912,5.532a4.7,4.7,0,0,0,.493.2l.09.032A49.417,49.417,0,0,1,43.8,32.606a4.662,4.662,0,0,1,4.418.366A34.456,34.456,0,0,0,41.553,22.4Z" style="fill:#ffa1a1"/><path d="M30.99,15.02h.03c.32-.01.65-.02.98-.02.35,0,.69.01,1.03.03a23.992,23.992,0,0,1,1.88,47.79A23.2,23.2,0,0,1,32,63a23.7,23.7,0,0,1-6.83-1,23.991,23.991,0,0,1,5.79-46.97" style="fill:none;stroke:#000;stroke-linejoin:round;stroke-width:2px"/><path d="M33,15a1,1,0,0,0,1-1V12l.72,2.45a1,1,0,0,0,.9.55H37V11a2.006,2.006,0,0,0-2-2H29a2.006,2.006,0,0,0-2,2v4h1.38a1,1,0,0,0,.9-.55L30,12v2a1,1,0,0,0,1,1h2Z" style="fill:none;stroke:#000;stroke-linejoin:round;stroke-width:2px"/><ellipse cx="32" cy="5" rx="3" ry="4" style="fill:none;stroke:#000;stroke-linejoin:round;stroke-width:2px"/><path d="M25.17,62c-6.45-8.07-9.7-20.69-7.17-30,2.89-10.61,12.31-16.57,12.96-16.97h.01c.01-.01.01,0,.01,0" style="fill:none;stroke:#000;stroke-linejoin:round;stroke-width:2px"/><path d="M31,15l-.01.01v.01l-.01.01C30.62,15.7,24.08,28.38,27,42c2.97,13.86,4.96,14.98,7.91,20.82" style="fill:none;stroke:#000;stroke-linejoin:round;stroke-width:2px"/><path d="M31,15s0,.01.02.02c.27.48,7,12.21,7.98,22.98a168.43,168.43,0,0,1,0,23.96V62" style="fill:none;stroke:#000;stroke-linejoin:round;stroke-width:2px"/><path d="M46.5,58.12A31.017,31.017,0,0,0,50,41C49,25,33.79,15.66,33.03,15.03L33,15" style="fill:none;stroke:#000;stroke-linejoin:round;stroke-width:2px"/></g></svg>