<?xml version="1.0" ?><svg viewBox="0 0 64 64" xmlns="http://www.w3.org/2000/svg"><g data-name="05-Christmas Balls" id="_05-Christmas_Balls"><path d="M37,11v4H35.62a1,1,0,0,1-.9-.55L34,12v2a1,1,0,0,1-1,1H31a1,1,0,0,1-1-1V12l-.72,2.45a1,1,0,0,1-.9.55H27V11a2.006,2.006,0,0,1,2-2h6A2.006,2.006,0,0,1,37,11Z" style="fill:#edc332"/><ellipse cx="32" cy="5" rx="3" ry="4" style="fill:#fff"/><ellipse cx="32" cy="5" rx="2" ry="3" style="fill:none"/><path d="M34.72,14.45,34,12v2a1,1,0,0,1-1,1H32a24.082,24.082,0,0,1,5,.526V15H35.62A1,1,0,0,1,34.72,14.45Z" style="fill:#8a0314"/><path d="M31,15a1,1,0,0,1-1-1V12l-.72,2.45a1,1,0,0,1-.9.55H27v.526A24.082,24.082,0,0,1,32,15Z" style="fill:#8a0314"/><rect height="3" rx="1" ry="1" style="fill:#ffdc63" width="2" x="31" y="10"/><rect height="3" rx="1" ry="1" style="fill:#ffdc63" width="2" x="35" y="10"/><rect height="3" rx="1" ry="1" style="fill:#ffdc63" width="2" x="27" y="10"/><path d="M52.62,26.73a23.932,23.932,0,0,1,.23,24.13A2.326,2.326,0,0,0,51,50c-2,0-4,1-4,3,0,0,0-4-6-4a4.3,4.3,0,0,0-4,4s0-4-6-4a4.3,4.3,0,0,0-4,4s0-4-6-4a4.352,4.352,0,0,0-3.95,3.47C17.03,51.62,16.52,50,13,50a3.614,3.614,0,0,0-1.94.72,23.955,23.955,0,0,1-.23-23.01A2.384,2.384,0,0,0,12,28c2,0,4-1,4-3,0,0,0,4,6,4a4.3,4.3,0,0,0,4-4s0,4,6,4a4.3,4.3,0,0,0,4-4s0,4,6,4a4.352,4.352,0,0,0,3.95-3.47c.02.85.53,2.47,4.05,2.47A4.208,4.208,0,0,0,52.62,26.73ZM52,38l-3-4-1,5,3,5ZM35,39l-3-6-3,6,3,6ZM16,39l-1-5-3,4,1,6Z" style="fill:#007145"/><polygon points="49 34 52 38 51 44 48 39 49 34" style="fill:#eff1f8"/><path d="M51,50a2.326,2.326,0,0,1,1.85.86,23.625,23.625,0,0,1-4.34,5.55A4.627,4.627,0,0,1,47,53C47,51,49,50,51,50Z" style="fill:#c22026"/><path d="M49.46,22.54a23.978,23.978,0,0,1,3.16,4.19A4.208,4.208,0,0,1,50,28c-3.52,0-4.03-1.62-4.05-2.47A4.352,4.352,0,0,1,42,29c-6,0-6-4-6-4a4.3,4.3,0,0,1-4,4c-6,0-6-4-6-4a4.3,4.3,0,0,1-4,4c-6,0-6-4-6-4a4.749,4.749,0,0,0-1.03-2.91,23.992,23.992,0,0,1,34.49.45Z" style="fill:#c22026"/><path d="M17,53a1.859,1.859,0,0,0,.05-.52A3.052,3.052,0,0,0,17,53Zm20,0a4.3,4.3,0,0,1,4-4c6,0,6,4,6,4a4.627,4.627,0,0,0,1.51,3.41,23.987,23.987,0,0,1-37.45-5.69A3.614,3.614,0,0,1,13,50c3.52,0,4.03,1.62,4.05,2.47A4.352,4.352,0,0,1,21,49c6,0,6,4,6,4a4.3,4.3,0,0,1,4-4C37,49,37,53,37,53Z" style="fill:#c22026"/><polygon points="32 33 35 39 32 45 29 39 32 33" style="fill:#eff1f8"/><polygon points="15 34 16 39 13 44 12 38 15 34" style="fill:#eff1f8"/><path d="M14.97,22.09A4.749,4.749,0,0,1,16,25c0,2-2,3-4,3a2.384,2.384,0,0,1-1.17-.29A23.877,23.877,0,0,1,14.97,22.09Z" style="fill:#c22026"/><path d="M17.074,51A4.82,4.82,0,0,1,21,48.5a9.945,9.945,0,0,1,2.742.354,17.039,17.039,0,0,1-7.68-8.985l-2.633,4.388a.5.5,0,0,1-.922-.175l-1-6A.5.5,0,0,1,11.6,37.7L14,34.5l-5.967,5.47a23.808,23.808,0,0,0,2.8,10.306A4.039,4.039,0,0,1,13,49.5C15.389,49.5,16.531,50.222,17.074,51Z" style="fill:#004a2d"/><path d="M11,50.607c.021.037.038.076.059.113l0,0Z" style="fill:#007145"/><path d="M26.96,51.207a4.986,4.986,0,0,1,.539-.829,16.85,16.85,0,0,1-1.783-.592A4.516,4.516,0,0,1,26.96,51.207Z" style="fill:#007145"/><path d="M47.99,28.273a16.936,16.936,0,0,1,.986,5.245.493.493,0,0,1,.424.182l.6.8,5.967,5.47c.013-.323.032-.645.032-.971a23.8,23.8,0,0,0-3.134-11.827A4.631,4.631,0,0,1,50,28.5,8.077,8.077,0,0,1,47.99,28.273Z" style="fill:#007145"/><path d="M36.96,51.207a5.14,5.14,0,0,1,.933-1.278q-.74.275-1.511.48A4.518,4.518,0,0,1,36.96,51.207Z" style="fill:#007145"/><path d="M52.686,26.848c-.023-.039-.043-.079-.066-.118l0,0Z" style="fill:#007145"/><path d="M10.83,27.71l-.017.034.018-.034Z" style="fill:#007145"/><path d="M14.6,33.7a.491.491,0,0,1,.424-.182A16.939,16.939,0,0,1,16.377,27.3a4.7,4.7,0,0,1-.383-.593A4.756,4.756,0,0,1,12,28.5a2.869,2.869,0,0,1-1.392-.344A23.757,23.757,0,0,0,8,39c0,.326.019.648.032.971L14,34.5Z" style="fill:#007145"/><path d="M50,34.5l2.4,3.2a.5.5,0,0,1,.093.382l-1,6a.5.5,0,0,1-.4.409A.507.507,0,0,1,51,44.5a.5.5,0,0,1-.429-.243l-2.633-4.388a17.021,17.021,0,0,1-7.124,8.647c.062,0,.124-.016.186-.016,3.758,0,5.337,1.522,6.006,2.8A4.756,4.756,0,0,1,51,49.5a2.819,2.819,0,0,1,2.092.905,23.7,23.7,0,0,0,2.876-10.434Z" style="fill:#004a2d"/><path d="M48.51,56.41c.02-.019.038-.04.058-.059l-.06.057Z" style="fill:#c22026"/><path d="M51,50.5c-1.686,0-3.5.782-3.5,2.5a4.116,4.116,0,0,0,1.33,3.026.154.154,0,0,1,.025.032,23.619,23.619,0,0,0,3.737-4.778.447.447,0,0,1-.124-.1A1.821,1.821,0,0,0,51,50.5Z" style="fill:#911a1c"/><path d="M52.62,26.73c-.024-.041-.051-.079-.076-.12.025.041.049.082.073.123Z" style="fill:#c22026"/><path d="M15.327,21.749c.009.01.021.014.029.024A5.255,5.255,0,0,1,16.5,25v0a3.03,3.03,0,0,0,.374,1.269,16.961,16.961,0,0,1,26.681-4.711,3.5,3.5,0,0,1,2.937,3.371l0,.028c0,.016.005.03.005.046,0,.045-.01.092-.013.138a17,17,0,0,1,1.009,1.9A5.617,5.617,0,0,0,50,27.5a3.734,3.734,0,0,0,2.275-1.132.383.383,0,0,1,.083-.052,24.053,24.053,0,0,0-2.506-3.337A3.437,3.437,0,0,0,49.7,24a.5.5,0,0,1-1,0,4.28,4.28,0,0,1,.3-1.653.5.5,0,0,1,.11-.161,23.979,23.979,0,0,0-34.139-.1l.008.012C15.094,21.984,15.208,21.864,15.327,21.749Z" style="fill:#ae0000"/><path d="M49.46,22.54c-.067-.071-.139-.138-.207-.209.134.139.266.28.4.421C49.585,22.683,49.525,22.609,49.46,22.54Z" style="fill:#c22026"/><path d="M11.06,50.72c.023.04.049.078.071.118l-.067-.12Z" style="fill:#c22026"/><path d="M46.5,53h0c0-.144-.106-3.5-5.5-3.5A3.792,3.792,0,0,0,37.5,53,2.5,2.5,0,0,0,40,55.5,2.3,2.3,0,0,0,42.5,53a.5.5,0,0,1,1,0A3.28,3.28,0,0,1,40,56.5a3.5,3.5,0,0,1-3.5-3.494v0a3.265,3.265,0,0,0-1.257-2.321,16.906,16.906,0,0,1-6.686-.032A3.5,3.5,0,0,0,27.5,53,2.5,2.5,0,0,0,30,55.5,2.3,2.3,0,0,0,32.5,53a.5.5,0,0,1,1,0A3.28,3.28,0,0,1,30,56.5a3.5,3.5,0,0,1-3.5-3.494v0c0-.144-.106-3.5-5.5-3.5a3.87,3.87,0,0,0-3.452,3.035,2.59,2.59,0,0,1-.044.5A2.5,2.5,0,0,0,20,55.5,2.3,2.3,0,0,0,22.5,53a.5.5,0,0,1,1,0A3.28,3.28,0,0,1,20,56.5a3.5,3.5,0,0,1-3.492-3.426l0-.028c0-.016,0-.03,0-.046a3.334,3.334,0,0,1,.049-.513C16.514,51.2,15.255,50.5,13,50.5a3.141,3.141,0,0,0-1.656.631.113.113,0,0,1-.028.012,23.962,23.962,0,0,0,36.823,5.6A5.106,5.106,0,0,1,46.5,53Z" style="fill:#911a1c"/><path d="M48.432,56.48c.026-.024.053-.046.078-.07l0,0Z" style="fill:#c22026"/><path d="M14.97,22.09c-.09.091-.172.19-.261.283.088-.092.179-.181.269-.271Z" style="fill:#c22026"/><path d="M15.5,25a4.283,4.283,0,0,0-.877-2.534,23.844,23.844,0,0,0-3.541,4.81A1.89,1.89,0,0,0,12,27.5C13.686,27.5,15.5,26.718,15.5,25Z" style="fill:#ae0000"/><path d="M10.845,27.685l-.015.025h0Z" style="fill:#c22026"/><path d="M49.854,22.969c-.067-.074-.137-.144-.2-.217.068.075.134.151.2.227Z" style="fill:#d79d44"/><path d="M49.112,22.182l0,0c.048.049.1.1.144.145C49.205,22.282,49.16,22.23,49.112,22.182Z" style="fill:#d79d44"/><path d="M48.7,24a.5.5,0,0,0,1,0,3.437,3.437,0,0,1,.152-1.021c-.068-.076-.134-.152-.2-.227-.131-.141-.263-.282-.4-.421-.047-.049-.1-.1-.144-.145a.5.5,0,0,0-.11.161A4.28,4.28,0,0,0,48.7,24Z" style="fill:#edc332"/><polygon points="52 38 49 34 50 39 52 38" style="fill:#fff"/><path d="M50,39l-1-5a16.991,16.991,0,0,1-.75,5Z" style="fill:#dbe0e9"/><path d="M48.25,39c-.028.09-.062.176-.091.265L51,44l-1-5Z" style="fill:#bfc4cc"/><polygon points="51 44 52 38 50 39 51 44" style="fill:#dbe0e9"/><polygon points="14 39 15 34 12 38 14 39" style="fill:#eff1f8"/><polygon points="12 38 13 44 14 39 12 38" style="fill:#bfc4cc"/><path d="M14,39l-1,5,2.841-4.735c-.029-.089-.063-.175-.091-.265Z" style="fill:#dbe0e9"/><path d="M15.75,39A16.991,16.991,0,0,1,15,34l-1,5Z" style="fill:#fff"/><path d="M52.366,26.311l-.008,0c.061.1.126.2.186.294C52.484,26.511,52.428,26.409,52.366,26.311Z" style="fill:#d79d44"/><path d="M52.874,27.166c-.061-.107-.126-.212-.188-.318.063.107.118.217.18.325Z" style="fill:#d79d44"/><path d="M14.62,22.462l0,0c.029-.031.057-.063.086-.093C14.68,22.4,14.649,22.432,14.62,22.462Z" style="fill:#d79d44"/><path d="M11.069,27.271h0c-.077.136-.147.276-.221.415.074-.14.16-.272.237-.409Z" style="fill:#d79d44"/><path d="M10.6,28.151l.012,0c.069-.137.133-.277.205-.412C10.741,27.88,10.666,28.014,10.6,28.151Z" style="fill:#d79d44"/><path d="M50,28a7.037,7.037,0,0,1-2.221-.3c.075.19.142.384.211.577A8.077,8.077,0,0,0,50,28.5a4.631,4.631,0,0,0,2.866-1.327c-.062-.108-.117-.218-.18-.325l-.069-.115A4.209,4.209,0,0,1,50,28Z" style="fill:#edc332"/><path d="M15.994,26.7a4.7,4.7,0,0,0,.383.593c.073-.17.162-.331.24-.5A3.67,3.67,0,0,1,16,25c0,2-2,3-4,3a2.38,2.38,0,0,1-1.169-.29l-.018.034c-.072.135-.136.275-.205.412A2.869,2.869,0,0,0,12,28.5,4.756,4.756,0,0,0,15.994,26.7Z" style="fill:#edc332"/><path d="M16.5,25v0a5.255,5.255,0,0,0-1.144-3.222c-.008-.01-.02-.014-.029-.024-.119.115-.233.235-.349.353A4.748,4.748,0,0,1,16,25a3.67,3.67,0,0,0,.617,1.8c.084-.178.167-.358.257-.533A3.03,3.03,0,0,1,16.5,25Z" style="fill:#edc332"/><path d="M46.487,25.138c0-.046.013-.093.013-.138,0-.016,0-.03-.005-.046l0-.028a3.5,3.5,0,0,0-2.937-3.371A17.068,17.068,0,0,1,46.487,25.138Z" style="fill:#edc332"/><path d="M50,27.5a5.617,5.617,0,0,1-2.5-.466c.1.219.193.438.283.662A7.037,7.037,0,0,0,50,28a4.209,4.209,0,0,0,2.617-1.267c-.024-.041-.048-.082-.073-.123-.06-.1-.125-.2-.186-.294a.383.383,0,0,0-.083.052A3.734,3.734,0,0,1,50,27.5Z" style="fill:#edc332"/><path d="M12,28c2,0,4-1,4-3a4.748,4.748,0,0,0-1.022-2.9c-.09.09-.181.179-.269.271-.029.03-.057.062-.086.093A4.283,4.283,0,0,1,15.5,25c0,1.718-1.814,2.5-3.5,2.5a1.89,1.89,0,0,1-.918-.224c-.077.137-.163.269-.237.409l-.014.025A2.38,2.38,0,0,0,12,28Z" style="fill:#edc332"/><path d="M48.146,56.753c.1-.089.191-.182.286-.273-.1.09-.2.177-.293.266Z" style="fill:#d79d44"/><path d="M17,53a1.859,1.859,0,0,0,.05-.52A3.052,3.052,0,0,0,17,53Z" style="fill:#d79d44"/><path d="M48.864,56.069l-.009-.011c-.1.1-.188.2-.287.293C48.666,56.256,48.767,56.164,48.864,56.069Z" style="fill:#d79d44"/><path d="M11.306,51.148l.01-.005c-.06-.1-.126-.2-.185-.3C11.19,50.941,11.246,51.046,11.306,51.148Z" style="fill:#d79d44"/><path d="M10.818,50.283c.059.109.123.215.183.324-.06-.109-.114-.221-.172-.33Z" style="fill:#d79d44"/><path d="M52.592,51.28c.006,0,.011.011.017.015.173-.288.342-.578.5-.874l-.019-.016c-.082.151-.157.306-.242.455S52.675,51.139,52.592,51.28Z" style="fill:#d79d44"/><path d="M13,50c3.52,0,4.03,1.62,4.05,2.47A4.352,4.352,0,0,1,21,49c6,0,6,4,6,4a3.9,3.9,0,0,1,1.027-2.486q-.265-.065-.528-.136a4.986,4.986,0,0,0-.539.829,4.516,4.516,0,0,0-1.244-1.421,16.954,16.954,0,0,1-1.974-.932A9.945,9.945,0,0,0,21,48.5,4.82,4.82,0,0,0,17.074,51c-.543-.774-1.685-1.5-4.074-1.5a4.039,4.039,0,0,0-2.171.777c.058.109.112.221.172.33l.063.111A3.607,3.607,0,0,1,13,50Z" style="fill:#d98311"/><path d="M47.006,51.3c-.669-1.274-2.248-2.8-6.006-2.8-.062,0-.124.013-.186.016a16.859,16.859,0,0,1-2.921,1.413,5.14,5.14,0,0,0-.933,1.278,4.518,4.518,0,0,0-.578-.8c-.179.047-.357.1-.538.138A3.767,3.767,0,0,1,37,53a4.3,4.3,0,0,1,4-4c6,0,6,4,6,4,0-2,2-3,4-3a2.326,2.326,0,0,1,1.85.86c.085-.149.16-.3.242-.455A2.819,2.819,0,0,0,51,49.5,4.756,4.756,0,0,0,47.006,51.3Z" style="fill:#d98311"/><path d="M51,50c-2,0-4,1-4,3a4.626,4.626,0,0,0,1.508,3.408l.06-.057c.1-.094.19-.2.287-.293a.154.154,0,0,0-.025-.032A4.116,4.116,0,0,1,47.5,53c0-1.718,1.814-2.5,3.5-2.5a1.821,1.821,0,0,1,1.468.682.447.447,0,0,0,.124.1c.083-.141.177-.276.258-.42A2.326,2.326,0,0,0,51,50Z" style="fill:#d98311"/><path d="M47,53s0-4-6-4a4.3,4.3,0,0,0-4,4,3.767,3.767,0,0,0-1.156-2.453c-.2.046-.4.1-.6.135A3.265,3.265,0,0,1,36.5,53v0A3.5,3.5,0,0,0,40,56.5,3.28,3.28,0,0,0,43.5,53a.5.5,0,0,0-1,0A2.3,2.3,0,0,1,40,55.5,2.5,2.5,0,0,1,37.5,53,3.792,3.792,0,0,1,41,49.5c5.394,0,5.5,3.359,5.5,3.5h0a5.106,5.106,0,0,0,1.639,3.742c.1-.089.2-.176.293-.266l.076-.072A4.626,4.626,0,0,1,47,53Z" style="fill:#d98311"/><path d="M13,50.5c2.255,0,3.514.7,3.549,1.987A3.334,3.334,0,0,0,16.5,53c0,.016,0,.03,0,.046l0,.028A3.5,3.5,0,0,0,20,56.5,3.28,3.28,0,0,0,23.5,53a.5.5,0,0,0-1,0A2.3,2.3,0,0,1,20,55.5a2.5,2.5,0,0,1-2.5-2.464,2.59,2.59,0,0,0,.044-.5A3.87,3.87,0,0,1,21,49.5c5.394,0,5.5,3.359,5.5,3.5v0A3.5,3.5,0,0,0,30,56.5,3.28,3.28,0,0,0,33.5,53a.5.5,0,0,0-1,0A2.3,2.3,0,0,1,30,55.5,2.5,2.5,0,0,1,27.5,53a3.5,3.5,0,0,1,1.057-2.35c-.18-.037-.352-.093-.53-.136A3.9,3.9,0,0,0,27,53s0-4-6-4a4.352,4.352,0,0,0-3.95,3.47C17.03,51.62,16.52,50,13,50a3.607,3.607,0,0,0-1.936.718l.067.12c.059.1.125.2.185.3a.113.113,0,0,0,.028-.012A3.141,3.141,0,0,1,13,50.5Zm4.05,1.98A1.859,1.859,0,0,1,17,53,3.052,3.052,0,0,1,17.05,52.48Z" style="fill:#d98311"/><path d="M48.976,33.518l0,.045L50,34.5l-.6-.8A.493.493,0,0,0,48.976,33.518Z" style="fill:#d79d44"/><path d="M49,34l3,4-1,6-2.841-4.735c-.067.2-.147.4-.221.6l2.633,4.388A.5.5,0,0,0,51,44.5a.507.507,0,0,0,.094-.009.5.5,0,0,0,.4-.409l1-6A.5.5,0,0,0,52.4,37.7L50,34.5l-1.023-.938C48.982,33.71,49,33.852,49,34Z" style="fill:#d98311"/><path d="M15.024,33.518a.491.491,0,0,0-.424.182l-.6.8,1.023-.938Z" style="fill:#d79d44"/><path d="M13,44l-1-6,3-4c0-.148.018-.29.022-.437L14,34.5l-2.4,3.2a.5.5,0,0,0-.093.382l1,6a.5.5,0,0,0,.922.175l2.633-4.388c-.074-.2-.154-.4-.221-.6Z" style="fill:#d98311"/><path d="M47.51,38.9l1-5a.5.5,0,0,1,.38-.39c.011,0,.023,0,.035,0l-.06-.056a4.746,4.746,0,0,0-7.545,1.572h0A5,5,0,0,1,36.751,38H35.059l.388.776a.5.5,0,0,1,0,.448l-3,6a.5.5,0,0,1-.894,0l-3-6a.5.5,0,0,1,0-.448L28.941,38H27.249a5,5,0,0,1-4.569-2.969h0a4.746,4.746,0,0,0-7.545-1.572l-.06.056c.012,0,.024-.005.035,0a.5.5,0,0,1,.38.39l1,5a.5.5,0,0,1-.061.355l-.367.612a17.039,17.039,0,0,0,7.68,8.985,5.967,5.967,0,0,1,1.974.932,16.85,16.85,0,0,0,1.783.592A4.632,4.632,0,0,1,31,48.5c2.9,0,4.494.909,5.382,1.909q.771-.206,1.511-.48a4.545,4.545,0,0,1,2.921-1.413,17.021,17.021,0,0,0,7.124-8.647l-.367-.612A.5.5,0,0,1,47.51,38.9Z" style="fill:#007145"/><path d="M15.135,33.459a4.746,4.746,0,0,1,7.545,1.572h0A5,5,0,0,0,27.249,38h1.692l2.612-5.224a.521.521,0,0,1,.894,0L35.059,38h1.692a5,5,0,0,0,4.569-2.969h0a4.746,4.746,0,0,1,7.545-1.572l.06.056a.449.449,0,0,1,.051,0,16.936,16.936,0,0,0-.986-5.245A3.427,3.427,0,0,1,45.926,27,4.82,4.82,0,0,1,42,29.5c-3.67,0-5.264-1.452-5.96-2.707A4.814,4.814,0,0,1,32,29.5c-3.67,0-5.264-1.452-5.96-2.707A4.814,4.814,0,0,1,22,29.5c-3.185,0-4.8-1.094-5.623-2.2a16.939,16.939,0,0,0-1.353,6.221.449.449,0,0,1,.051,0Z" style="fill:#00995d"/><path d="M47.5,27.034a17,17,0,0,0-1.009-1.9c-.008.124-.016.25-.036.375A1.707,1.707,0,0,0,47.5,27.034Z" style="fill:#c22026"/><path d="M22,28.5A3.792,3.792,0,0,0,25.5,25,2.5,2.5,0,0,0,23,22.5,2.3,2.3,0,0,0,20.5,25a.5.5,0,0,1-1,0A3.28,3.28,0,0,1,23,21.5a3.5,3.5,0,0,1,3.5,3.494v0c0,.144.106,3.5,5.5,3.5A3.792,3.792,0,0,0,35.5,25,2.5,2.5,0,0,0,33,22.5,2.3,2.3,0,0,0,30.5,25a.5.5,0,0,1-1,0A3.28,3.28,0,0,1,33,21.5a3.5,3.5,0,0,1,3.5,3.494v0c0,.144.106,3.5,5.5,3.5a3.87,3.87,0,0,0,3.452-3.035,2.59,2.59,0,0,1,.044-.5A2.5,2.5,0,0,0,43,22.5,2.3,2.3,0,0,0,40.5,25a.5.5,0,0,1-1,0A3.28,3.28,0,0,1,43,21.5a3.5,3.5,0,0,1,.555.055,16.961,16.961,0,0,0-26.681,4.711C17.413,27.27,18.734,28.5,22,28.5Z" style="fill:#ff273a"/><path d="M28.557,50.65a16.906,16.906,0,0,0,6.686.032A6.513,6.513,0,0,0,31,49.5,3.536,3.536,0,0,0,28.557,50.65Z" style="fill:#c22026"/><path d="M48.25,39A16.991,16.991,0,0,0,49,34l-1,5Z" style="fill:#dbe0e9"/><polygon points="32 39 35 39 34.5 38 32 38 32 39" style="fill:#fff"/><polygon points="34.5 38 32 33 32 38 34.5 38" style="fill:#fff"/><polygon points="32 33 29.5 38 32 38 32 33" style="fill:#eff1f8"/><polygon points="32 39 32 38 29.5 38 29 39 32 39" style="fill:#eff1f8"/><polygon points="29 39 32 45 32 39 29 39" style="fill:#bfc4cc"/><polygon points="32 45 35 39 32 39 32 45" style="fill:#dbe0e9"/><path d="M15.841,39.265,16,39h-.25C15.778,39.09,15.812,39.176,15.841,39.265Z" style="fill:#dbe0e9"/><path d="M16,39l-1-5a16.991,16.991,0,0,0,.75,5Z" style="fill:#fff"/><path d="M45.95,25.52A3.052,3.052,0,0,0,46,25,1.859,1.859,0,0,0,45.95,25.52Z" style="fill:#d79d44"/><path d="M22,29.5a4.814,4.814,0,0,0,4.04-2.707c.7,1.255,2.29,2.707,5.96,2.707a4.814,4.814,0,0,0,4.04-2.707c.7,1.255,2.29,2.707,5.96,2.707A4.82,4.82,0,0,0,45.926,27a3.427,3.427,0,0,0,2.064,1.269c-.069-.193-.136-.387-.211-.577A2.31,2.31,0,0,1,45.95,25.53,4.352,4.352,0,0,1,42,29c-6,0-6-4-6-4a4.3,4.3,0,0,1-4,4c-6,0-6-4-6-4a4.3,4.3,0,0,1-4,4c-3.2,0-4.687-1.138-5.383-2.2-.078.167-.167.328-.24.5C17.2,28.406,18.815,29.5,22,29.5Z" style="fill:#f9e905"/><path d="M47.5,27.034a1.707,1.707,0,0,1-1.045-1.521c.02-.125.028-.251.036-.375a17.068,17.068,0,0,0-2.932-3.583A3.5,3.5,0,0,0,43,21.5,3.28,3.28,0,0,0,39.5,25a.5.5,0,0,0,1,0A2.3,2.3,0,0,1,43,22.5a2.5,2.5,0,0,1,2.5,2.464,2.59,2.59,0,0,0-.044.5A3.87,3.87,0,0,1,42,28.5c-5.394,0-5.5-3.359-5.5-3.5v0A3.5,3.5,0,0,0,33,21.5,3.28,3.28,0,0,0,29.5,25a.5.5,0,0,0,1,0A2.3,2.3,0,0,1,33,22.5,2.5,2.5,0,0,1,35.5,25,3.792,3.792,0,0,1,32,28.5c-5.394,0-5.5-3.359-5.5-3.5v0A3.5,3.5,0,0,0,23,21.5,3.28,3.28,0,0,0,19.5,25a.5.5,0,0,0,1,0A2.3,2.3,0,0,1,23,22.5,2.5,2.5,0,0,1,25.5,25,3.792,3.792,0,0,1,22,28.5c-3.266,0-4.587-1.23-5.126-2.234-.09.175-.173.355-.257.533C17.313,27.862,18.8,29,22,29a4.3,4.3,0,0,0,4-4s0,4,6,4a4.3,4.3,0,0,0,4-4s0,4,6,4a4.352,4.352,0,0,0,3.95-3.47A2.31,2.31,0,0,0,47.779,27.7C47.689,27.472,47.594,27.253,47.5,27.034Z" style="fill:#f9e905"/><path d="M37.893,49.929a16.859,16.859,0,0,0,2.921-1.413A4.545,4.545,0,0,0,37.893,49.929Z" style="fill:#edc332"/><path d="M25.716,49.786a5.967,5.967,0,0,0-1.974-.932A16.954,16.954,0,0,0,25.716,49.786Z" style="fill:#edc332"/><path d="M31,48.5a4.632,4.632,0,0,0-3.5,1.878q.262.072.528.136A4.094,4.094,0,0,1,31,49c2.542,0,4,.719,4.844,1.547.181-.042.359-.091.538-.138C35.494,49.409,33.9,48.5,31,48.5Z" style="fill:#edc332"/><path d="M28.027,50.514c.178.043.35.1.53.136A3.536,3.536,0,0,1,31,49.5a6.513,6.513,0,0,1,4.243,1.182c.2-.039.4-.089.6-.135C35,49.719,33.542,49,31,49A4.094,4.094,0,0,0,28.027,50.514Z" style="fill:#edc332"/><path d="M48.978,33.563l0-.045a.449.449,0,0,0-.051,0Z" style="fill:#d79d44"/><path d="M48,39l1-5c0-.148-.018-.29-.022-.437l-.053-.048c-.012,0-.024-.005-.035,0a.5.5,0,0,0-.38.39l-1,5a.5.5,0,0,0,.061.355l.367.612c.074-.2.154-.4.221-.6Z" style="fill:#f9e905"/><path d="M15.075,33.515a.449.449,0,0,0-.051,0l0,.045Z" style="fill:#d79d44"/><path d="M16.49,38.9l-1-5a.5.5,0,0,0-.38-.39c-.011,0-.023,0-.035,0l-.053.048c0,.147-.022.289-.022.437l1,5-.159.265c.067.2.147.4.221.6l.367-.612A.5.5,0,0,0,16.49,38.9Z" style="fill:#edc332"/><path d="M35,39l-3,6-3-6,.5-1h-.559l-.388.776a.5.5,0,0,0,0,.448l3,6a.5.5,0,0,0,.894,0l3-6a.5.5,0,0,0,0-.448L35.059,38H34.5Z" style="fill:#edc332"/><path d="M31.553,32.776,28.941,38H29.5L32,33l2.5,5h.559l-2.612-5.224A.521.521,0,0,0,31.553,32.776Z" style="fill:#f9e905"/><path d="M47.938,39.869a16.98,16.98,0,0,1-2.907,5.013A2.535,2.535,0,0,0,46.99,46.92a2.7,2.7,0,0,0,2.47-.63,3.992,3.992,0,0,0,1.133-2.011c-.006-.009-.016-.013-.022-.022Z" style="fill:#007145"/><path d="M48.159,39.265c-.067.2-.147.4-.221.6l2.633,4.388c.006.009.016.013.022.022.063-.222.12-.446.165-.682Z" style="fill:#fff463"/><path d="M47.571,39.257a.5.5,0,0,1-.061-.355l.364-1.819A2.1,2.1,0,0,0,46.12,39.03a14.879,14.879,0,0,1-.99,4.79,2.186,2.186,0,0,0-.1,1.062,16.98,16.98,0,0,0,2.907-5.013Z" style="fill:#00995d"/><path d="M50.91,38.87a1.72,1.72,0,0,0-.057-.3,2.064,2.064,0,0,0-1.2-1.33,2.733,2.733,0,0,0-.929-.228c-.067,0-.131-.016-.2-.016-.042,0-.081.009-.122.01L48,39l.159.265,2.6,4.332c.028-.141.054-.282.076-.427A19.437,19.437,0,0,0,50.91,38.87Z" style="fill:#fff"/><path d="M48.4,37.01a2.781,2.781,0,0,0-.524.073L47.51,38.9a.5.5,0,0,0,.061.355l.367.612c.074-.2.154-.4.221-.6L48,39Z" style="fill:#fffcd1"/><path d="M48.97,31.71A15.644,15.644,0,0,0,48.219,29a16.928,16.928,0,0,1,.691,3.55A1.794,1.794,0,0,0,48.97,31.71Z" style="fill:#00995d"/><path d="M43.791,32.6c.683.342,1.338.7,1.939,1.071a2.19,2.19,0,0,0,2.833-.455A4.728,4.728,0,0,0,43.791,32.6Z" style="fill:#00995d"/><path d="M45.926,27A4.82,4.82,0,0,1,42,29.5c-3.67,0-5.264-1.452-5.96-2.707a5.058,5.058,0,0,1-.716,1.057,4.225,4.225,0,0,0,2.556,2.33A49.625,49.625,0,0,1,43.791,32.6a4.728,4.728,0,0,1,4.772.616,1.841,1.841,0,0,0,.347-.665A16.928,16.928,0,0,0,48.219,29c-.1-.252-.2-.5-.312-.754A3.4,3.4,0,0,1,45.926,27Z" style="fill:#00e088"/><path d="M47.129,26.8c-.185-.3-.391-.582-.609-.865A1.638,1.638,0,0,0,47.129,26.8Z" style="fill:#ffa1a1"/><path d="M36.5,25c0,.144.106,3.5,5.5,3.5a3.87,3.87,0,0,0,3.452-3.035,2.59,2.59,0,0,1,.044-.5c0-.067-.016-.13-.022-.2a10.6,10.6,0,0,0-3.338-2.147A2.25,2.25,0,0,0,40.5,25a.5.5,0,0,1-1,0,3.364,3.364,0,0,1,1.312-2.835A4.711,4.711,0,0,0,36.151,23.5a3.458,3.458,0,0,1,.348,1.491Z" style="fill:#ffa1a1"/><path d="M35.449,24.5a3.905,3.905,0,0,0-.438,2.1A3.149,3.149,0,0,0,35.5,25,2.514,2.514,0,0,0,35.449,24.5Z" style="fill:#ffa1a1"/><path d="M42,29.5A4.82,4.82,0,0,0,45.926,27a3.4,3.4,0,0,0,1.981,1.242c-.095-.21-.2-.417-.3-.623A2.272,2.272,0,0,1,45.95,25.53,4.352,4.352,0,0,1,42,29c-6,0-6-4-6-4a3.814,3.814,0,0,1-.865,2.294,4.091,4.091,0,0,0,.189.556,5.058,5.058,0,0,0,.716-1.057C36.736,28.048,38.33,29.5,42,29.5Z" style="fill:#fff89e"/><path d="M42,29a4.352,4.352,0,0,0,3.95-3.47A2.272,2.272,0,0,0,47.6,27.623c-.146-.279-.3-.555-.473-.826a1.638,1.638,0,0,1-.609-.865c-.171-.222-.354-.439-.547-.651-.009.08-.009.161-.023.239a2.217,2.217,0,0,1,.008-.255c-.154-.169-.315-.335-.484-.5.006.065.021.128.022.2a2.59,2.59,0,0,0-.044.5A3.87,3.87,0,0,1,42,28.5c-5.394,0-5.5-3.359-5.5-3.5v0a3.458,3.458,0,0,0-.348-1.491c-.085.092-.175.178-.251.277l-.06.09a4.133,4.133,0,0,0-.391.628,2.514,2.514,0,0,1,.051.5,3.149,3.149,0,0,1-.489,1.594,3.965,3.965,0,0,0,.124.7A3.814,3.814,0,0,0,36,25S36,29,42,29Z" style="fill:#fff89e"/><path d="M39.5,25a.5.5,0,0,0,1,0,2.25,2.25,0,0,1,1.636-2.378,12.451,12.451,0,0,0-1.206-.432c-.039-.012-.079-.015-.118-.025A3.364,3.364,0,0,0,39.5,25Z" style="fill:#fff89e"/><path d="M52.62,26.73A24,24,0,1,1,11.06,50.72,24,24,0,0,1,52.62,26.73Z" style="fill:none;stroke:#000;stroke-linejoin:round;stroke-width:2px"/><path d="M32,15h1a1,1,0,0,0,1-1V12l.72,2.45a1,1,0,0,0,.9.55H37V11a2.006,2.006,0,0,0-2-2H29a2.006,2.006,0,0,0-2,2v4h1.38a1,1,0,0,0,.9-.55L30,12v2a1,1,0,0,0,1,1Z" style="fill:none;stroke:#000;stroke-linejoin:round;stroke-width:2px"/><ellipse cx="32" cy="5" rx="3" ry="4" style="fill:none;stroke:#000;stroke-linejoin:round;stroke-width:2px"/></g></svg>