<?xml version="1.0" ?><svg viewBox="0 0 64 64" xmlns="http://www.w3.org/2000/svg"><g data-name="17-Christmas Balls" id="_17-Christmas_Balls"><path d="M32,15A24,24,0,1,1,8,39,24.006,24.006,0,0,1,32,15Z" style="fill:#d8e2f7"/><path d="M37,11v4H35.62a1,1,0,0,1-.9-.55L34,12v2a1,1,0,0,1-1,1H31a1,1,0,0,1-1-1V12l-.72,2.45a1,1,0,0,1-.9.55H27V11a2.006,2.006,0,0,1,2-2h6A2.006,2.006,0,0,1,37,11Z" style="fill:#dbe0e9"/><ellipse cx="32" cy="5" rx="3" ry="4" style="fill:#fff"/><ellipse cx="32" cy="5" rx="2" ry="3" style="fill:none"/><path d="M34.72,14.45,34,12v2a1,1,0,0,1-1,1H32a24.082,24.082,0,0,1,5,.526V15H35.62A1,1,0,0,1,34.72,14.45Z" style="fill:#6e7685"/><path d="M31,15a1,1,0,0,1-1-1V12l-.72,2.45a1,1,0,0,1-.9.55H27v.526A24.082,24.082,0,0,1,32,15Z" style="fill:#6e7685"/><rect height="3" rx="1" ry="1" style="fill:#eff1f8" width="2" x="31" y="10"/><rect height="3" rx="1" ry="1" style="fill:#eff1f8" width="2" x="35" y="10"/><rect height="3" rx="1" ry="1" style="fill:#eff1f8" width="2" x="27" y="10"/><path d="M32,15A24,24,0,1,1,8,39,24.006,24.006,0,0,1,32,15Z" style="fill:#d8e2f7"/><path d="M30.98,36.21a1.415,1.415,0,0,1,.02.29,3,3,0,0,1-6,0,2.653,2.653,0,0,1,.16-.94A2.983,2.983,0,0,1,29.3,33.8,2.938,2.938,0,0,1,30.98,36.21Z" style="fill:#c22026"/><path d="M35.71,43.79A3.007,3.007,0,1,1,36,42.5,3.086,3.086,0,0,1,35.71,43.79Z" style="fill:#c22026"/><path d="M36,31.5a3,3,0,0,1,0,6,3.033,3.033,0,0,1-1.58-.45A3,3,0,0,1,36,31.5Z" style="fill:#c22026"/><path d="M19,23.5,29.3,33.8a2.983,2.983,0,0,0-4.14,1.76L25,35.5c-1.15-1.15-4-1-4-1,.21-.24,1.8-2.27.08-4a4.044,4.044,0,0,0-3.08-1S20.23,25.96,19,23.5Z" style="fill:#004a2d"/><path d="M19,53.5l11-11a3,3,0,0,0,3,3l1,3c-.19-.09-2.51-1.33-3.69-.15s-.39,2.97-.32,3.14c-.17-.15-2.22-1.83-3.99-.07-1.23,1.23,0,3.08,0,3.08S21.46,52.27,19,53.5Z" style="fill:#004a2d"/><path d="M32.31,38.5H52c-2.69.87-4,5-4,5A4.857,4.857,0,0,0,44.84,42,2.7,2.7,0,0,0,42,44.5a2.912,2.912,0,0,0-2.53-1.62C37.68,42.87,37,45.5,37,45.5a5.947,5.947,0,0,0-1.29-1.71A3.086,3.086,0,0,0,36,42.5a3,3,0,0,0-1.57-2.64A4.153,4.153,0,0,0,32.31,38.5Z" style="fill:#004a2d"/><path d="M24,38.5c.23.13,4.05,2.28,6.49,2.35A2.992,2.992,0,0,0,30,42.5l-11,11c1.23-2.46-1-6-1-6a4.044,4.044,0,0,0,3.08-1c1.76-1.77.08-3.82-.07-3.99.17.07,1.97.85,3.14-.32S24.09,38.69,24,38.5Z" style="fill:#007145"/><path d="M19,23.5c2.46,1.23,6-1,6-1a4.044,4.044,0,0,0,1,3.08c1.77,1.76,3.85.05,4-.08-.06.21-.84,2,.31,3.15,1.18,1.18,3.5-.06,3.69-.15-.17.3-3.64,6.36-1.85,8.15a3.616,3.616,0,0,0-1.17-.44A2.938,2.938,0,0,0,29.3,33.8Z" style="fill:#007145"/><path d="M52,38.5H32.31a2.884,2.884,0,0,0,2.11-1.45A3.033,3.033,0,0,0,36,37.5a3,3,0,0,0,3-3c1.79-.01,3-2,3-2A2.7,2.7,0,0,0,44.84,35,4.857,4.857,0,0,0,48,33.5S49.31,37.62,52,38.5Z" style="fill:#007145"/><path d="M32,15A24.006,24.006,0,0,0,8,39c0,.328.012.653.025.977l7-6.414a16.983,16.983,0,0,1,33.956,0l7,6.414c.013-.324.025-.649.025-.977A24.006,24.006,0,0,0,32,15Z" style="fill:#d8e2f7"/><path d="M49,34c0,.522-.032,1.035-.078,1.545A6.113,6.113,0,0,0,52,38.5c-2.69.87-4,5-4,5a5.627,5.627,0,0,0-1.3-.984A16.8,16.8,0,0,1,29.78,50.839a4.482,4.482,0,0,0,.21.651c-.17-.15-2.22-1.83-3.99-.07-1.23,1.23,0,3.08,0,3.08s-4.54-2.23-7-1c1.23-2.46-1-6-1-6a4.225,4.225,0,0,0,2.778-.753A16.942,16.942,0,0,1,15,34c0-.148.018-.29.022-.437l-7,6.414a23.995,23.995,0,0,0,47.95,0l-7-6.414C48.982,33.71,49,33.852,49,34Z" style="fill:#b2bfd6"/><path d="M19,53.5c2.46-1.23,7,1,7,1s-1.23-1.85,0-3.08c1.77-1.76,3.82-.08,3.99.07a4.482,4.482,0,0,1-.21-.651,16.887,16.887,0,0,1-6.1-2.021Z" style="fill:#003621"/><path d="M46.7,42.516A5.627,5.627,0,0,1,48,43.5s1.31-4.13,4-5H48.378A16.83,16.83,0,0,1,46.7,42.516Z" style="fill:#003621"/><path d="M20.778,46.747A4.225,4.225,0,0,1,18,47.5s2.23,3.54,1,6l4.682-4.682A17.031,17.031,0,0,1,20.778,46.747Z" style="fill:#004a2d"/><path d="M52,38.5a6.113,6.113,0,0,1-3.078-2.955,16.858,16.858,0,0,1-.544,2.955Z" style="fill:#004a2d"/><path d="M42,44.5a2.912,2.912,0,0,0-2.53-1.62C37.68,42.87,37,45.5,37,45.5a5.947,5.947,0,0,0-1.29-1.71A3,3,0,0,1,33,45.5l1,3c-.19-.09-2.51-1.33-3.69-.15a2.562,2.562,0,0,0-.53,2.489A16.8,16.8,0,0,0,46.7,42.516,3.9,3.9,0,0,0,44.84,42,2.7,2.7,0,0,0,42,44.5Z" style="fill:#d0daed"/><path d="M25.16,35.56,25,35.5a4.447,4.447,0,0,0-2.567-.946,4.871,4.871,0,0,1,.247.477h0A5,5,0,0,0,25.2,37.557,2.969,2.969,0,0,1,25,36.5,2.653,2.653,0,0,1,25.16,35.56Z" style="fill:#d8e2f7"/><path d="M21.6,33.51a2.568,2.568,0,0,0-.522-3.01,4.044,4.044,0,0,0-3.08-1s2.23-3.54,1-6c2.46,1.23,6-1,6-1a4.044,4.044,0,0,0,1,3.08c1.77,1.76,3.85.05,4-.08-.06.21-.84,2,.31,3.15,1.18,1.18,3.5-.06,3.69-.15-.17.3-3.64,6.36-1.85,8.15a3.616,3.616,0,0,0-1.17-.44,1.415,1.415,0,0,1,.02.29,2.974,2.974,0,0,1-.415,1.5H33.53a4.863,4.863,0,0,0,.89-.95A3,3,0,1,1,39,34.5c1.79-.01,3-2,3-2a3.1,3.1,0,0,0,.32,1.08,4.751,4.751,0,0,1,6.545-.121l.113.1a16.983,16.983,0,0,0-33.956,0l.113-.1A4.749,4.749,0,0,1,21.6,33.51Z" style="fill:#f5f9ff"/><path d="M20.778,46.747a3,3,0,0,0,.3-.247c1.76-1.77.08-3.82-.07-3.99.17.07,1.97.85,3.14-.32s-.06-3.5-.15-3.69c.23.13,4.05,2.28,6.49,2.35A3.014,3.014,0,0,1,33,39.5a2.974,2.974,0,0,1,1.43.36,4.153,4.153,0,0,0-2.12-1.36,1.981,1.981,0,0,0,1.22-.5H30.585a2.983,2.983,0,0,1-5.384-.443,5,5,0,0,1-2.521-2.526h0a4.871,4.871,0,0,0-.247-.477A10.123,10.123,0,0,0,21,34.5a4.06,4.06,0,0,0,.6-.99,4.749,4.749,0,0,0-6.467-.051l-.113.1c0,.147-.022.289-.022.437A16.942,16.942,0,0,0,20.778,46.747Z" style="fill:#d0daed"/><path d="M42.32,33.58A2.6,2.6,0,0,0,44.84,35,4.857,4.857,0,0,0,48,33.5a12.294,12.294,0,0,0,.922,2.045c.046-.51.078-1.023.078-1.545,0-.148-.018-.29-.022-.437l-.113-.1A4.751,4.751,0,0,0,42.32,33.58Z" style="fill:#d8e2f7"/><path d="M25.2,37.557A2.983,2.983,0,0,0,30.585,38H27.249A4.977,4.977,0,0,1,25.2,37.557Z" style="fill:#911a1c"/><path d="M30.98,36.21A3,3,0,0,0,28,33.5a2.979,2.979,0,0,0-2.84,2.06,2.653,2.653,0,0,0-.16.94,2.969,2.969,0,0,0,.2,1.057A4.977,4.977,0,0,0,27.249,38h3.336A2.974,2.974,0,0,0,31,36.5,1.415,1.415,0,0,0,30.98,36.21Z" style="fill:#c22026"/><path d="M33,45.5a3,3,0,0,0,2.71-1.71A3.086,3.086,0,0,0,36,42.5a3,3,0,1,0-3,3Z" style="fill:#911a1c"/><path d="M39,34.5a3,3,0,1,0-4.58,2.55A3.033,3.033,0,0,0,36,37.5,3,3,0,0,0,39,34.5Z" style="fill:#c22026"/><path d="M21.6,33.51a4.06,4.06,0,0,1-.6.99,10.123,10.123,0,0,1,1.433.054A4.7,4.7,0,0,0,21.6,33.51Z" style="fill:#004f30"/><path d="M25.16,35.56A2.983,2.983,0,0,1,29.3,33.8L19,23.5c1.23,2.46-1,6-1,6a4.044,4.044,0,0,1,3.08,1,2.568,2.568,0,0,1,.522,3.01,4.7,4.7,0,0,1,.831,1.044A4.447,4.447,0,0,1,25,35.5Z" style="fill:#007145"/><path d="M30.31,48.35c1.18-1.18,3.5.06,3.69.15l-1-3a3,3,0,0,1-3-3l-6.318,6.318a16.887,16.887,0,0,0,6.1,2.021A2.562,2.562,0,0,1,30.31,48.35Z" style="fill:#004a2d"/><path d="M32.31,38.5a4.153,4.153,0,0,1,2.12,1.36A3,3,0,0,1,36,42.5a3.086,3.086,0,0,1-.29,1.29A5.947,5.947,0,0,1,37,45.5s.68-2.63,2.47-2.62A2.912,2.912,0,0,1,42,44.5,2.7,2.7,0,0,1,44.84,42a3.9,3.9,0,0,1,1.857.516A16.83,16.83,0,0,0,48.378,38.5Z" style="fill:#004a2d"/><path d="M30,42.5a2.992,2.992,0,0,1,.49-1.65c-2.44-.07-6.26-2.22-6.49-2.35.09.19,1.33,2.51.15,3.69s-2.97.39-3.14.32c.15.17,1.83,2.22.07,3.99a3,3,0,0,1-.3.247,17.031,17.031,0,0,0,2.9,2.071Z" style="fill:#007145"/><path d="M30.98,36.21a3.616,3.616,0,0,1,1.17.44C30.36,34.86,33.83,28.8,34,28.5c-.19.09-2.51,1.33-3.69.15-1.15-1.15-.37-2.94-.31-3.15-.15.13-2.23,1.84-4,.08a4.044,4.044,0,0,1-1-3.08s-3.54,2.23-6,1L29.3,33.8A2.938,2.938,0,0,1,30.98,36.21Z" style="fill:#00995d"/><path d="M44.84,35a2.6,2.6,0,0,1-2.52-1.42,4.73,4.73,0,0,0-1,1.451h0A5,5,0,0,1,36.751,38H33.53a1.981,1.981,0,0,1-1.22.5H48.378a16.858,16.858,0,0,0,.544-2.955A12.294,12.294,0,0,1,48,33.5,4.857,4.857,0,0,1,44.84,35Z" style="fill:#007145"/><path d="M41.32,35.031h0a4.73,4.73,0,0,1,1-1.451A3.1,3.1,0,0,1,42,32.5s-1.21,1.99-3,2a3,3,0,0,1-3,3,3.033,3.033,0,0,1-1.58-.45,4.863,4.863,0,0,1-.89.95h3.221A5,5,0,0,0,41.32,35.031Z" style="fill:#00995d"/><path d="M34.77,20.49l-.05.07a3.327,3.327,0,0,0,1.75,5.26,36.143,36.143,0,0,1,6.73,2.9,1.78,1.78,0,0,0,2.77-1.63,9.551,9.551,0,0,0-6.88-7.93A4.107,4.107,0,0,0,34.77,20.49Z" style="fill:#fff"/><path d="M47.43,48.76l-.04-.04c-1.03-1.21-2.95-.85-3.88.73a30.027,30.027,0,0,1-3.12,4.45c-.76.84-.35,2.15.66,2.1a7.559,7.559,0,0,0,6.56-4.08A2.855,2.855,0,0,0,47.43,48.76Z" style="fill:#d0daed"/><path d="M37.99,57.27A1.955,1.955,0,0,1,37,59.22c-1.35.54-3.57,1.23-4.48.38a1.68,1.68,0,0,1-.5-1.54c.15-1.09.97-1.88,1.75-1.8a7.664,7.664,0,0,0,2.9-.22C37.34,55.84,37.93,56.38,37.99,57.27Z" style="fill:#d0daed"/><path d="M38.319,33.777c.419-.407.045-1.22-.455-1.5a2.975,2.975,0,0,0-1.4-.282,1.9,1.9,0,0,0-.576.067.543.543,0,0,0-.379.318.509.509,0,0,0,.142.427,3.655,3.655,0,0,0,.8.713,2.475,2.475,0,0,0,.891.442A1.134,1.134,0,0,0,38.319,33.777Z" style="fill:#ff5766"/><path d="M35.319,41.777c.419-.407.045-1.22-.455-1.5a2.975,2.975,0,0,0-1.4-.282,1.9,1.9,0,0,0-.576.067.543.543,0,0,0-.379.318.509.509,0,0,0,.142.427,3.655,3.655,0,0,0,.8.713,2.475,2.475,0,0,0,.891.442A1.134,1.134,0,0,0,35.319,41.777Z" style="fill:#c22026"/><path d="M30.319,35.777c.419-.407.045-1.22-.455-1.5a2.975,2.975,0,0,0-1.4-.282,1.9,1.9,0,0,0-.576.067.543.543,0,0,0-.379.318.509.509,0,0,0,.142.427,3.655,3.655,0,0,0,.8.713,2.475,2.475,0,0,0,.891.442A1.134,1.134,0,0,0,30.319,35.777Z" style="fill:#ff5766"/><circle cx="32" cy="39" r="24" style="fill:none;stroke:#000;stroke-linejoin:round;stroke-width:2px"/><path d="M37,15V11a2,2,0,0,0-2-2H29a2,2,0,0,0-2,2v4h1.382a1,1,0,0,0,.894-.553L30,12h0v2a1,1,0,0,0,1,1h2a1,1,0,0,0,1-1V12h0l.724,2.447a1,1,0,0,0,.894.553Z" style="fill:none;stroke:#000;stroke-linejoin:round;stroke-width:2px"/><ellipse cx="32" cy="5" rx="3" ry="4" style="fill:none;stroke:#000;stroke-linejoin:round;stroke-width:2px"/><path d="M30.98,36.21a1.415,1.415,0,0,1,.02.29,3,3,0,0,1-6,0,2.653,2.653,0,0,1,.16-.94A2.983,2.983,0,0,1,29.3,33.8,2.938,2.938,0,0,1,30.98,36.21Z" style="fill:none;stroke:#000;stroke-linejoin:round;stroke-width:2px"/><path d="M35.71,43.79A3.007,3.007,0,1,1,36,42.5,3.086,3.086,0,0,1,35.71,43.79Z" style="fill:none;stroke:#000;stroke-linejoin:round;stroke-width:2px"/><path d="M36,31.5a3,3,0,0,1,0,6,3.033,3.033,0,0,1-1.58-.45A3,3,0,0,1,36,31.5Z" style="fill:none;stroke:#000;stroke-linejoin:round;stroke-width:2px"/><path d="M19,23.5,29.3,33.8a2.983,2.983,0,0,0-4.14,1.76L25,35.5c-1.15-1.15-4-1-4-1,.21-.24,1.8-2.27.08-4a4.044,4.044,0,0,0-3.08-1S20.23,25.96,19,23.5Z" style="fill:none;stroke:#000;stroke-linejoin:round;stroke-width:2px"/><path d="M19,53.5l11-11a3,3,0,0,0,3,3l1,3c-.19-.09-2.51-1.33-3.69-.15s-.39,2.97-.32,3.14c-.17-.15-2.22-1.83-3.99-.07-1.23,1.23,0,3.08,0,3.08S21.46,52.27,19,53.5Z" style="fill:none;stroke:#000;stroke-linejoin:round;stroke-width:2px"/><path d="M32.31,38.5H52c-2.69.87-4,5-4,5A4.857,4.857,0,0,0,44.84,42,2.7,2.7,0,0,0,42,44.5a2.912,2.912,0,0,0-2.53-1.62C37.68,42.87,37,45.5,37,45.5a5.947,5.947,0,0,0-1.29-1.71A3.086,3.086,0,0,0,36,42.5a3,3,0,0,0-1.57-2.64A4.153,4.153,0,0,0,32.31,38.5Z" style="fill:none;stroke:#000;stroke-linejoin:round;stroke-width:2px"/><path d="M24,38.5c.23.13,4.05,2.28,6.49,2.35A2.992,2.992,0,0,0,30,42.5l-11,11c1.23-2.46-1-6-1-6a4.044,4.044,0,0,0,3.08-1c1.76-1.77.08-3.82-.07-3.99.17.07,1.97.85,3.14-.32S24.09,38.69,24,38.5Z" style="fill:none;stroke:#000;stroke-linejoin:round;stroke-width:2px"/><path d="M19,23.5c2.46,1.23,6-1,6-1a4.044,4.044,0,0,0,1,3.08c1.77,1.76,3.85.05,4-.08-.06.21-.84,2,.31,3.15,1.18,1.18,3.5-.06,3.69-.15-.17.3-3.64,6.36-1.85,8.15a3.616,3.616,0,0,0-1.17-.44A2.938,2.938,0,0,0,29.3,33.8Z" style="fill:none;stroke:#000;stroke-linejoin:round;stroke-width:2px"/><path d="M52,38.5H32.31a2.884,2.884,0,0,0,2.11-1.45A3.033,3.033,0,0,0,36,37.5a3,3,0,0,0,3-3c1.79-.01,3-2,3-2A2.7,2.7,0,0,0,44.84,35,4.857,4.857,0,0,0,48,33.5S49.31,37.62,52,38.5Z" style="fill:none;stroke:#000;stroke-linejoin:round;stroke-width:2px"/></g></svg>