<svg width="2118" height="401" viewBox="0 0 2118 401" fill="none" xmlns="http://www.w3.org/2000/svg">
<path d="M111.797 195.231L111.799 195.224C113.085 190.937 113.74 187.417 113.74 184.68C113.74 182.437 113.277 180.661 112.265 179.441C111.238 178.203 109.718 177.62 107.8 177.62C102.962 177.62 98.6696 180.778 94.8972 186.813C91.1265 192.739 88.2816 199.995 86.3522 208.57C84.4244 217.138 83.46 225.655 83.46 234.12V234.123V234.126V234.129V234.132V234.136V234.139V234.142V234.145V234.148V234.151V234.154V234.157V234.161V234.164V234.167V234.17V234.173V234.176V234.179V234.182V234.185V234.188V234.192V234.195V234.198V234.201V234.204V234.207V234.21V234.213V234.216V234.219V234.222V234.226V234.229V234.232V234.235V234.238V234.241V234.244V234.247V234.25V234.253V234.256V234.259V234.262V234.266V234.269V234.272V234.275V234.278V234.281V234.284V234.287V234.29V234.293V234.296V234.299V234.302V234.305V234.308V234.311V234.314V234.317V234.321V234.324V234.327V234.33V234.333V234.336V234.339V234.342V234.345V234.348V234.351V234.354V234.357V234.36V234.363V234.366V234.369V234.372V234.375V234.378V234.381V234.384V234.387V234.39V234.393V234.396V234.399V234.402V234.405V234.408V234.411V234.414V234.417V234.42V234.423V234.426V234.429V234.432V234.435V234.438V234.441V234.444V234.447V234.45V234.453V234.456V234.459V234.462V234.465V234.468V234.471V234.474V234.477V234.48V234.483V234.486V234.489V234.492V234.495V234.498V234.501V234.504V234.507V234.51V234.513V234.516V234.519V234.522V234.525V234.528V234.531V234.534V234.537V234.54V234.543V234.546V234.548V234.551V234.554V234.557V234.56V234.563V234.566V234.569V234.572V234.575V234.578V234.581V234.584V234.587V234.59V234.593V234.596V234.599V234.601V234.604V234.607V234.61V234.613V234.616V234.619V234.622V234.625V234.628V234.631V234.634V234.637V234.639V234.642V234.645V234.648V234.651V234.654V234.657V234.66V234.663V234.666V234.669V234.671V234.674V234.677V234.68V234.683V234.686V234.689V234.692V234.695V234.697V234.7V234.703V234.706V234.709V234.712V234.715V234.718V234.721V234.723V234.726V234.729V234.732V234.735V234.738V234.741V234.744V234.746V234.749V234.752V234.755V234.758V234.761V234.764V234.767V234.769V234.772V234.775V234.778V234.781V234.784V234.787V234.789V234.792V234.795V234.798V234.801V234.804V234.806V234.809V234.812V234.815V234.818V234.821V234.824V234.826V234.829V234.832V234.835V234.838V234.84V234.843V234.846V234.849V234.852V234.855V234.857V234.86V234.863V234.866V234.869V234.872V234.874V234.877V234.88V234.883V234.886V234.888V234.891V234.894V234.897V234.9V234.902V234.905V234.908V234.911V234.914V234.916V234.919V234.922V234.925V234.928V234.93V234.933V234.936V234.939V234.942V234.944V234.947V234.95V234.953V234.955V234.958V234.961V234.964V234.967V234.969V234.972V234.975V234.978V234.98V234.983V234.986V234.989V234.992V234.994V234.997V235V235.003V235.005V235.008V235.011V235.014V235.016V235.019V235.022V235.025V235.027V235.03V235.033V235.036V235.038V235.041V235.044V235.047V235.049V235.052V235.055V235.057V235.06V235.063V235.066V235.068V235.071V235.074V235.077V235.079V235.082V235.085V235.088V235.09V235.093V235.096V235.098V235.101V235.104V235.107V235.109V235.112V235.115V235.117V235.12V235.123V235.125V235.128V235.131V235.134V235.136V235.139V235.142V235.144V235.147V235.15V235.152V235.155V235.158V235.161V235.163V235.166V235.169V235.171V235.174V235.177V235.179V235.182V235.185V235.187V235.19V235.193V235.195V235.198V235.201V235.203V235.206V235.209V235.211V235.214V235.217V235.219V235.222V235.225V235.227V235.23V235.233V235.235V235.238V235.241V235.243V235.246V235.249V235.251V235.254V235.257V235.259V235.262V235.264V235.267V235.27V235.272V235.275V235.278V235.28V235.283V235.286V235.288V235.291V235.293V235.296V235.299V235.301V235.304V235.307V235.309V235.312V235.314V235.317V235.32V235.322V235.325V235.327V235.33V235.333V235.335V235.338V235.34V235.343V235.346V235.348V235.351V235.353V235.356V235.359V235.361V235.364V235.366V235.369V235.372V235.374V235.377V235.379V235.382V235.385V235.387V235.389C78.1274 242.291 73.2449 247.45 68.8137 250.885C64.3477 254.347 60.3882 256.02 56.92 256.02C53.8961 256.02 51.7005 255.015 50.2406 253.061C48.7603 251.079 47.98 248.046 47.98 243.88C47.98 235.459 51.6205 222.955 58.9767 206.324C61.8681 199.898 64.4356 192.675 66.6808 184.657C69.0363 176.52 70.22 169.219 70.22 162.76C70.22 151.696 67.5878 142.777 62.2735 136.051C56.9369 129.191 49.2602 125.78 39.32 125.78C34.1164 125.78 29.1822 127.028 24.5242 129.519L24.5242 129.519L24.5202 129.521C15.2124 134.608 8.47711 143.363 4.28688 155.718C2.03448 162.261 0.900024 168.184 0.900024 173.48C0.900024 178.75 1.59912 183.498 3.00568 187.718L3.00562 187.718L3.00834 187.726C4.73916 192.648 7.2692 196.381 10.6211 198.881C13.9757 201.383 18.1126 202.62 23 202.62C28.0171 202.62 32.3975 201.09 36.1179 198.026L36.1179 198.026L36.1245 198.02C39.8161 194.872 42.6844 190.754 44.7367 185.684C44.8789 185.391 44.9339 185.068 44.8408 184.743C44.7513 184.429 44.5437 184.179 44.2878 183.981C43.839 183.549 43.258 183.426 42.6289 183.541C42.3469 183.549 42.0794 183.626 41.8427 183.784C41.5948 183.949 41.4091 184.184 41.2728 184.456L41.2696 184.463L41.2667 184.469C39.1582 189.002 36.5786 192.367 33.5439 194.597C30.5151 196.823 27.007 197.94 23 197.94C20.6148 197.94 18.3925 197.474 16.3274 196.545C9.44619 193.36 5.90002 185.882 5.90002 173.8C5.90002 164.297 8.48543 155.266 13.6666 146.701C20.3165 135.935 28.864 130.62 39.32 130.62C46.1471 130.62 51.4444 132.664 55.2773 136.704C59.1194 140.754 61.06 146.115 61.06 152.84C61.06 159.605 59.7915 167.02 57.2432 175.089L57.242 175.093C54.7949 183.073 52.0302 190.303 48.9492 196.784C45.8447 203.207 43.0101 210.375 40.4444 218.286L40.4431 218.29C37.9797 226.109 36.74 233.041 36.74 239.08C36.74 246.295 38.4083 251.799 41.833 255.5C45.2646 259.208 50.3792 261.02 57.08 261.02C60.9521 261.02 65.1842 259.403 69.7635 256.252C74.121 253.253 78.8251 248.842 83.8763 243.034C84.5972 251.384 86.445 258.21 89.4443 263.485C92.6105 269.161 97.083 272.06 102.84 272.06C104.136 272.06 105.235 271.778 106.091 271.167C106.952 270.551 107.516 269.639 107.805 268.481L107.96 267.86H107.32C104.895 267.86 102.822 266.994 101.074 265.246C99.3133 263.486 97.8659 260.812 96.7594 257.178C94.9634 250.943 94.06 243.42 94.06 234.6C94.06 232.947 94.1104 231.243 94.2112 229.487C102.614 217.131 108.481 205.712 111.797 195.231ZM108.42 186.12C108.42 189.431 107.225 193.929 104.78 199.643C102.534 204.894 99.2477 211.133 94.9173 218.366C95.8983 209.096 97.4725 201.121 99.6351 194.436C100.855 190.775 102.103 188.07 103.368 186.289C104.64 184.498 105.856 183.74 107 183.74C107.494 183.74 107.808 183.913 108.024 184.237C108.264 184.597 108.42 185.2 108.42 186.12Z" fill="white" stroke="white"/>
<path d="M187.149 197.505C182.86 202.257 178.555 209.245 174.229 218.446C175.714 210.854 176.46 204.45 176.46 199.24C176.46 196.146 175.518 193.471 173.626 191.242C171.815 188.982 169.32 187.86 166.2 187.86C161.613 187.86 157.033 190.628 152.461 195.954C147.925 201.237 143.332 209.108 138.675 219.54H138.648L140.93 207.98C141.362 205.927 141.58 204.027 141.58 202.28C141.58 200.418 141.306 198.708 140.752 197.154C139.765 194.307 138.2 192.66 135.96 192.66C135.028 192.66 134.244 192.994 133.66 193.675C133.095 194.334 132.754 195.277 132.586 196.44C129.6 213.077 127.36 225.863 125.867 234.798C125.12 239.265 124.559 242.772 124.185 245.317C123.814 247.843 123.62 249.462 123.62 250.12C123.62 252.452 123.997 254.287 124.821 255.553C125.67 256.856 126.956 257.5 128.6 257.5C129.442 257.5 130.154 257.168 130.701 256.524C131.23 255.901 131.586 255.012 131.808 253.909C132.974 249.147 136.903 238.575 143.623 222.149L143.625 222.145C146.708 214.383 150.16 207.588 153.978 201.754L153.981 201.75C155.888 198.783 157.66 196.585 159.292 195.134C160.93 193.678 162.375 193.02 163.64 193.02C164.526 193.02 165.161 193.389 165.606 194.168C166.075 194.989 166.34 196.285 166.34 198.12C166.34 199.888 165.907 203.582 165.026 209.243C164.147 214.89 162.828 222.458 161.068 231.949L161.068 231.954C160.161 237.129 159.48 241.226 159.026 244.246C158.574 247.248 158.34 249.222 158.34 250.12C158.34 252.452 158.717 254.287 159.541 255.553C160.39 256.856 161.676 257.5 163.32 257.5C164.187 257.5 164.912 257.106 165.474 256.388C166.02 255.69 166.415 254.687 166.689 253.426L166.689 253.422C167.214 250.902 169.014 245.284 172.11 236.529C175.3 227.811 179.502 218.716 184.717 209.242C187.374 204.46 189.843 200.902 192.119 198.548C194.407 196.181 196.431 195.1 198.2 195.1C199.114 195.1 199.747 195.441 200.18 196.111C200.637 196.819 200.9 197.944 200.9 199.56C200.9 201.103 200.524 203.698 199.751 207.377C198.98 211.044 197.823 215.755 196.277 221.51C193.181 232.933 191.62 241.732 191.62 247.88C191.62 252.77 192.396 256.524 194.018 259.069C195.665 261.652 198.151 262.94 201.4 262.94C202.785 262.94 204.014 262.533 205.067 261.715C206.073 260.933 206.7 260.057 206.7 259.08V258.58H206.2C205.685 258.58 205.244 258.41 204.855 258.059C204.455 257.698 204.092 257.128 203.789 256.307C203.18 254.658 202.86 252.13 202.86 248.68C202.86 244.051 204.18 236.05 206.846 224.636C209.616 213.239 211.02 205.711 211.02 202.12C211.02 198.513 210.089 195.561 208.181 193.316C206.27 191.067 203.782 189.94 200.76 189.94C196.185 189.94 191.648 192.521 187.149 197.505Z" fill="white" stroke="white"/>
<path d="M363.944 254.314L362.757 252.336C360.09 247.688 355.563 245.5 349.8 245.5C339.718 245.5 330.203 248.306 321.299 253.865C312.429 259.137 305.217 266.216 299.68 275.075L299.674 275.084L299.669 275.094C294.502 283.523 290.42 292.366 287.425 301.621C284.403 310.688 282.9 320.286 282.9 330.4C282.9 340.725 285.691 351.499 291.153 362.696L291.158 362.707L291.164 362.718C295.694 371.778 303.032 378.93 313.022 384.205C323.321 389.77 335.477 392.5 349.4 392.5C377.685 392.5 399.415 383.634 414.135 365.583C421.436 356.66 427.663 347.321 432.811 337.567L432.812 337.566C443.331 317.606 451.819 279.567 458.448 223.879C467.824 222.82 476.665 220.643 484.961 217.339C485.316 227.942 487.209 236.955 490.749 244.287C492.749 248.43 495.293 251.704 498.456 253.941C501.644 256.196 505.324 257.3 509.4 257.3C511.79 257.3 514.015 256.861 515.742 255.642C517.577 254.347 518.507 252.415 518.691 250.208L518.917 247.5H516.2C514.252 247.5 512.656 247.008 511.313 246.088C509.952 245.155 508.706 243.682 507.648 241.506C505.498 237.087 504.3 230.144 504.3 220.4C504.3 216.302 504.638 211.721 505.323 206.648C509.071 204.085 512.589 201.288 515.875 198.256C532.124 183.897 540.7 169.144 540.7 154C540.7 150.06 539.792 146.64 537.534 144.201C535.243 141.727 531.97 140.7 528.2 140.7C516.088 140.7 506.319 147.728 498.838 160.745C491.641 173.011 487.196 187.167 485.456 203.164C477.856 206.806 469.376 209.427 459.997 211.009C460.2 209.25 460.3 207.447 460.3 205.6V205.605C460.3 205.605 460.301 205.575 460.305 205.499C460.309 205.416 460.316 205.303 460.326 205.156C460.345 204.863 460.376 204.463 460.417 203.951C460.499 202.928 460.624 201.487 460.79 199.622C461.123 195.895 461.622 190.5 462.289 183.435C463.613 169.405 465.998 153.759 469.452 136.49L469.454 136.479C471.567 125.648 473.919 117.329 476.475 111.438C479.271 105.605 482.935 100.692 487.461 96.6685C491.805 92.8071 496.815 90.9 502.6 90.9H505.65L505.051 87.9097L504.651 85.9097L504.603 85.667L504.508 85.4385C503.675 83.4404 502.402 81.8025 500.635 80.6863C498.881 79.5785 496.823 79.1 494.6 79.1C480.006 79.1 468.454 86.1976 460.068 99.8946L460.051 99.9224L460.035 99.9507C455.974 106.989 451.931 115.214 447.902 124.615C445.786 129.553 443.243 139.435 440.251 153.997C437.349 168.12 433.985 186.852 430.161 210.179C423.786 208.627 418.401 206.389 413.962 203.504L410.1 200.993V205.6V213.2V214.478L411.136 215.227C415.76 218.566 421.456 221.041 428.153 222.707C423.487 251.002 418.825 275.235 414.169 295.415C410.729 309.173 406.917 320.175 402.764 328.482L402.75 328.51L402.736 328.539C398.802 336.932 393.943 345.342 388.15 353.768C382.499 361.727 375.89 367.412 368.343 370.935L368.312 370.949L368.282 370.964C360.547 374.832 353.329 376.7 346.6 376.7C339.493 376.7 333.99 376.17 330.006 375.175L329.98 375.168L329.954 375.162C321.582 373.259 314.993 369.555 310.05 364.118C305.095 358.667 301.657 351.323 299.855 341.929L299.848 341.893L299.84 341.858C298.81 337.221 298.3 332.736 298.3 328.4C298.3 314.525 302.403 300.983 310.713 287.736C323.368 267.854 340.342 258.1 361.8 258.1H366.216L363.944 254.314ZM592.569 73.5461L592.577 73.5403C601.463 66.3202 606.3 58.2074 606.3 49.2C606.3 43.7072 605.147 39.1214 602.408 35.8852C599.602 32.5689 595.505 31.1 590.6 31.1C587.191 31.1 584.177 32.0415 581.773 34.1019C579.398 36.1373 577.858 39.0599 576.975 42.5937L576.198 45.7H579.185C579.201 45.7065 579.22 45.7141 579.24 45.7229C579.295 45.7465 579.362 45.777 579.44 45.8155C580.195 46.2379 580.588 46.7982 580.731 47.695C580.901 48.7571 580.719 50.3876 579.854 52.7357L579.837 52.7812L579.822 52.8273C578.377 57.2761 574.878 60.8116 568.763 63.2821C562.587 65.7774 553.918 67.1 542.6 67.1C527.777 67.1 506.065 62.9222 477.323 54.4069C448.67 45.5709 424.409 41.1 404.6 41.1C385.002 41.1 366.348 45.5951 348.668 54.5708L348.657 54.5763L348.647 54.582C321.411 68.7443 302.457 90.5726 291.849 119.951L291.848 119.953C286.967 133.51 284.5 146.464 284.5 158.8C284.5 171.165 287.113 182.99 292.332 194.251L292.335 194.258L292.339 194.266C297.989 206.255 305.904 215.36 316.12 221.448C326.322 227.527 338.655 230.5 353 230.5C356.419 230.5 359.433 229.103 361.968 226.568C364.293 224.242 365.9 221.639 365.9 218.8V216.3H363.4C354.658 216.3 346.903 214.631 340.085 211.348L340.078 211.344L340.071 211.341C320.433 202.025 310.3 183.001 310.3 153.2C310.3 132.415 316.654 112.91 329.448 94.6337L329.449 94.6323C348.167 67.8556 374.191 54.5 407.8 54.5C423.394 54.5 446.554 59.3301 477.44 69.1818C508.453 79.0739 533.145 84.1 551.4 84.1C569.737 84.1 583.638 80.7484 592.569 73.5461ZM516.822 164.747L516.829 164.732L516.836 164.718C518.906 160.579 520.923 157.654 522.84 155.795C524.742 153.951 526.385 153.3 527.8 153.3C527.922 153.3 528.015 153.307 528.084 153.316C528.093 153.385 528.1 153.478 528.1 153.6C528.1 155.22 527.87 157.002 527.384 158.957C524.598 168.785 518.43 178.211 508.682 187.207C510.848 178.531 513.567 171.052 516.822 164.747Z" fill="white" stroke="white" stroke-width="5"/>
<path d="M695.932 250.147L695.925 250.162L695.919 250.177C689.081 265.43 677.188 285.275 660.162 309.752C652.554 320.242 644.045 329.269 634.637 336.849C625.572 344.1 617.176 347.5 609.4 347.5C598.595 347.5 590.823 343.747 585.638 336.452C580.341 329 577.5 317.513 577.5 301.6C577.5 296.854 577.755 292.113 578.267 287.376L578.575 288.606L578.589 288.663L578.605 288.718C579.13 290.466 580.072 291.981 581.547 293.034C583.009 294.079 584.758 294.5 586.6 294.5H586.617L586.633 294.5C607.615 294.22 625.748 283.4 641.013 262.683L641.024 262.668L641.034 262.653C651.907 247.432 657.5 232.533 657.5 218C657.5 208.334 655.295 200.618 650.445 195.313C645.556 189.966 638.379 187.5 629.4 187.5C603.932 187.5 582.838 202.553 566.039 231.542C553.853 252.396 547.7 273.359 547.7 294.4C547.7 316.852 552.698 334.159 563.134 345.864C573.618 357.623 589.202 363.3 609.4 363.3C620.011 363.3 630.94 358.711 642.138 349.971L642.153 349.959L642.167 349.948C653.255 341.024 662.869 331.142 671 320.3C679.08 309.527 687.537 296.366 696.373 280.836L696.377 280.828L696.382 280.82C705.205 265.046 711.919 251.76 716.501 240.978L717.979 237.5H714.2H703.4H701.804L701.132 238.947L695.932 250.147ZM578.689 283.9C580.704 268.924 585.283 253.992 592.447 239.096C598.508 226.844 604.715 217.837 611.012 211.922C617.283 206.03 623.533 203.3 629.8 203.3C632.419 203.3 634.003 204.113 635.023 205.43C636.137 206.869 636.9 209.32 636.9 213.2C636.9 224.684 630.865 239.491 618.148 257.772L618.143 257.779C605.794 275.645 593.25 283.9 580.6 283.9H578.689Z" fill="white" stroke="white" stroke-width="5"/>
<path d="M743.1 365.2V362.7H740.6C737.309 362.7 734.539 361.877 732.195 360.301C729.834 358.713 727.761 356.262 726.04 352.79C722.564 345.776 720.7 334.941 720.7 320C720.7 303.645 723.882 276.46 730.305 238.329C730.43 238.477 730.573 238.62 730.738 238.752C731.253 239.164 731.895 239.4 732.581 239.4C733.217 239.4 733.739 239.199 734.102 239.006C734.783 238.642 735.324 238.076 735.721 237.6L735.727 237.592C740.877 231.359 746.667 223.273 753.097 213.36L753.103 213.352C777.198 175.871 795.691 138.359 808.563 100.815C815.253 81.5474 818.7 66.2947 818.7 55.2C818.7 47.8703 817.259 41.9113 813.959 37.7473C810.572 33.4724 805.56 31.5 799.4 31.5C791.563 31.5 784.002 34.8768 776.754 41.2186C769.527 47.5419 762.497 56.9065 755.622 69.172C741.897 93.3948 730.758 121.869 722.182 154.566C713.634 187.156 706.685 218.421 701.339 248.359C696.002 277.982 693.3 300.165 693.3 314.8C693.3 334.55 696.04 349.762 701.817 360.118C704.726 365.334 708.43 369.359 712.968 372.071C717.509 374.785 722.748 376.1 728.6 376.1C732.325 376.1 735.672 375 738.535 372.773C741.163 370.729 743.1 368.218 743.1 365.2ZM790.268 108.3C774.155 149.769 755.299 186.741 733.709 219.229C741.222 179.721 751.11 141.576 763.371 104.794C770.146 84.7348 776.733 69.8671 783.097 60.061C789.503 50.1915 795.197 46.1845 800.046 46.1013C801.242 46.2814 802.235 46.963 803.039 48.6675C803.941 50.5766 804.5 53.6098 804.5 58C804.5 62.1788 803.379 68.4425 800.993 76.9231C798.622 85.3545 795.052 95.8081 790.268 108.3Z" fill="white" stroke="white" stroke-width="5"/>
<path d="M820.617 153.558C821.221 155.535 822.506 157.049 824.336 158.012C826.094 158.938 828.244 159.3 830.6 159.3C834.244 159.3 838.198 157.669 842.363 154.896C850.946 149.451 855.5 142.052 855.5 132.8C855.5 128.43 854.702 124.699 852.708 122.01C850.609 119.182 847.487 117.9 843.8 117.9C840.803 117.9 838.082 118.698 835.747 120.366C833.434 122.018 831.653 124.413 830.32 127.374L830.308 127.402L830.296 127.43C828.1 132.645 826.451 138.002 825.351 143.497C824.846 145.893 824.232 147.418 823.637 148.288C823.091 149.087 822.747 149.1 822.6 149.1H819.131L820.228 152.391L820.617 153.558ZM893.4 237.5H891.845L891.157 238.895L877.557 266.495C868.547 284.782 857.807 303.081 845.334 321.393C839.111 330.528 833.661 337.261 828.983 341.683C824.201 346.202 820.649 347.9 818.2 347.9C817.06 347.9 816.181 347.644 815.475 347.214C814.763 346.781 814.088 346.086 813.493 344.999C812.261 342.749 811.5 339.054 811.5 333.6C811.5 322.339 812.941 309.441 815.851 294.89L815.856 294.869L815.86 294.847C817.457 286.065 818.918 278.628 820.243 272.531C821.569 266.433 823.429 258.594 825.825 249.006C828.227 239.402 829.966 232.176 831.04 227.342L831.044 227.329L831.046 227.315C832.144 222.102 832.7 217.129 832.7 212.4C832.7 207.697 832.15 203.557 830.981 200.037C829.848 196.366 828.289 193.354 826.168 191.232C823.977 189.041 821.279 187.9 818.2 187.9C815.686 187.9 813.542 188.959 811.902 190.873C810.34 192.695 809.283 195.222 808.571 198.207C807.762 201.445 806.956 205.075 806.152 209.093C805.364 212.769 804.587 215.732 803.828 218.009L803.788 218.132L803.76 218.258C803.23 220.639 802.435 224.087 801.371 228.607C790.44 271.804 784.9 303.263 784.9 322.8C784.9 335.851 787.403 346.099 792.82 353.126C798.332 360.277 806.549 363.7 817 363.7C824.218 363.7 832.048 358.756 840.395 350.14C849.049 341.216 856.753 331.349 863.508 320.544C870.483 309.812 877.714 297.491 885.201 283.585L885.206 283.577L885.21 283.568C892.662 269.463 897.628 259.671 900.069 254.251C902.727 248.668 904.849 244.292 906.436 241.118L908.245 237.5H904.2H893.4Z" fill="white" stroke="white" stroke-width="5"/>
<path d="M892.76 351.952L892.795 351.907L892.829 351.861C897.421 345.483 901.833 342.9 906 342.9C908.099 342.9 910.773 343.811 914.095 346.068C917.39 348.306 921.129 351.735 925.312 356.439C928.531 360.234 933.228 363.605 939.242 366.616C945.508 370.025 952.581 371.7 960.4 371.7C976.535 371.7 989.305 365.954 998.371 354.338C1007.16 343.073 1011.7 331.48 1011.7 319.6C1011.7 311.681 1010.45 305.314 1007.61 300.855C1004.64 296.206 1000.11 293.9 994.4 293.9C992.255 293.9 990.243 294.442 988.663 295.811C987.087 297.177 986.256 299.093 985.929 301.22L985.486 304.1H988.4C990.18 304.1 991.758 304.847 993.227 306.735C994.68 308.603 995.5 311.093 995.5 314.4C995.5 317.475 994.791 320.882 993.289 324.646C990.802 330.478 987.198 334.734 982.51 337.559C977.792 340.401 971.801 341.9 964.4 341.9C956.35 341.9 946.987 339.506 936.261 334.536C930.895 331.988 926.383 330.051 922.744 328.747C919.18 327.469 916.197 326.7 914 326.7C913.766 326.7 913.536 326.701 913.31 326.702C953.832 278.627 983.649 243.996 1002.77 222.788C1013.87 216.673 1021.75 210.654 1026.03 204.653C1028.06 201.82 1029.62 199.433 1030.69 197.514C1031.22 196.555 1031.65 195.669 1031.96 194.872C1032.25 194.116 1032.5 193.254 1032.5 192.4C1032.5 190.99 1031.99 189.569 1030.7 188.6C1029.54 187.732 1028.11 187.5 1026.8 187.5C1025.13 187.5 1023.31 188.162 1021.48 189.102C1019.59 190.073 1017.43 191.486 1015 193.297C1010.23 196.861 1004.23 202.124 997.035 209.044C988.399 212.283 979.525 213.9 970.4 213.9C961.169 213.9 954.475 212.968 950.11 211.272C943.042 208.494 940.5 205.011 940.5 201.2C940.5 200.346 940.606 199.328 940.843 198.132C941.302 196.208 942.005 195.045 942.767 194.363C943.496 193.711 944.5 193.3 946 193.3H949.143L948.436 190.238C947.541 186.36 945.69 183.244 942.72 181.21C939.907 178.828 935.744 177.9 930.8 177.9C925.104 177.9 920.067 180.625 915.725 185.546L915.719 185.554C911.719 190.124 909.5 194.952 909.5 200C909.5 204.283 910.215 208.323 911.667 212.097L911.685 212.144L911.704 212.19C918.168 227.175 934.038 234.1 957.6 234.1C963.139 234.1 968.675 233.602 974.205 232.609C939.024 270.162 904.328 310.476 870.118 353.55C869.162 354.564 868.7 355.835 868.7 357.2C868.7 358.141 868.962 359.068 869.541 359.878C870.102 360.664 870.86 361.2 871.643 361.565C873.143 362.266 875.084 362.5 877.2 362.5C879.881 362.5 882.512 361.428 885.042 359.642C887.572 357.856 890.141 355.26 892.76 351.952Z" fill="white" stroke="white" stroke-width="5"/>
<path d="M1358.97 52.5668C1344.12 78.2361 1329.01 119.832 1313.59 177.15L1313.58 177.159L1313.58 177.168C1307.48 200.525 1299.38 224.962 1289.28 250.48L1289.27 250.49L1289.27 250.501C1279.44 276.001 1268.96 298.273 1257.84 317.333C1246.83 335.952 1232.41 351.416 1214.58 363.743C1196.88 375.976 1176.85 382.1 1154.4 382.1C1142.17 382.1 1131.05 379.89 1121 375.508L1120.99 375.506C1099.63 366.239 1085.57 349.421 1078.81 324.75C1076.48 315.935 1075.3 305.893 1075.3 294.6C1075.3 283.646 1078.61 271.921 1085.4 259.391L1085.4 259.381C1091.23 248.511 1098.6 240.475 1107.49 235.144C1116.37 229.813 1126.91 227.1 1139.2 227.1C1148.75 227.1 1156.87 228.906 1163.65 232.419C1170.46 235.952 1175.09 240.525 1177.74 246.079C1180.6 252.054 1182.22 257.243 1182.72 261.676L1182.72 261.684L1182.72 261.692C1183.24 266.149 1183.5 270.183 1183.5 273.8C1183.5 276.871 1182.66 281.103 1180.83 286.592C1175.08 303.057 1167.11 314.056 1157.13 320.048C1151.1 323.56 1144.74 325.3 1138 325.3H1134.43L1135.65 328.654C1136.85 331.965 1138.72 334.662 1141.3 336.6L1141.38 336.664L1141.47 336.72C1144.1 338.361 1147.26 339.1 1150.8 339.1C1161.55 339.1 1170.93 336.157 1178.81 330.194C1186.66 324.251 1192.86 315.433 1197.52 303.938L1197.52 303.928C1201.36 294.332 1203.3 284.818 1203.3 275.4C1203.3 265.698 1201.22 256.281 1197.08 247.169C1192.08 236.073 1184.71 227.653 1174.95 222.033C1165.21 216.428 1153.25 213.7 1139.2 213.7C1126 213.7 1113.98 216.728 1103.18 222.818C1082.71 234.163 1069.68 253.238 1063.96 279.671L1063.95 279.682L1063.95 279.694C1062.32 287.584 1061.5 295.354 1061.5 303C1061.5 321.615 1066.57 339.007 1076.68 355.128L1076.69 355.137L1076.69 355.145C1095.11 384.003 1124.53 398.3 1164.4 398.3C1190.44 398.3 1213.34 391.646 1233 378.273C1252.78 364.992 1268.26 348.166 1279.39 327.809C1290.67 307.657 1300.86 284.319 1309.96 257.812C1319.06 231.333 1326.29 205.907 1331.64 181.537C1344.94 121.06 1358.8 79.5667 1373.11 56.7022C1380.29 58.6578 1387.83 60.336 1395.72 61.7381C1387.34 82.9569 1380.36 110.596 1374.73 144.592L1374.73 144.6L1374.73 144.607C1369.11 179.925 1366.3 213.923 1366.3 246.6C1366.3 275.05 1369.52 300.36 1376 322.502C1379.25 333.618 1383.46 342.218 1388.74 348.075C1394.1 354.006 1400.55 357.1 1408 357.1C1413.43 357.1 1418.34 353.585 1422.78 347.827C1427.26 342.016 1431.63 333.461 1435.93 322.306C1444.77 299.798 1453.46 272.642 1462.01 240.856C1470.8 208.896 1480.39 176.935 1490.78 144.973C1501.11 113.166 1514.21 86.3469 1530.02 64.4674C1546.02 42.4369 1563.36 31.9 1582 31.9H1585.25L1584.42 28.7559C1583.25 24.3684 1581.12 20.8766 1577.89 18.5881C1574.96 16.3348 1571.34 15.3 1567.2 15.3C1548.69 15.3 1531.77 26.8589 1516.36 48.7613C1500.99 70.5985 1488.09 97.0929 1477.63 128.203L1477.63 128.216C1467.48 158.92 1458.14 189.624 1449.59 220.33L1449.59 220.34L1449.59 220.349C1441.32 250.998 1433.87 277.1 1427.21 298.663C1423.89 309.419 1420.88 317.35 1418.18 322.549C1416.83 325.158 1415.62 326.954 1414.58 328.064C1413.49 329.218 1412.91 329.3 1412.8 329.3C1411.53 329.3 1409.85 328.454 1408.01 324.999C1406.19 321.595 1404.58 316.275 1403.26 308.862C1400.63 294.086 1399.3 271.765 1399.3 241.8C1399.3 218.162 1400.76 188.638 1403.69 153.213C1406.81 118.433 1412.07 88.6713 1419.46 63.9H1422.4C1438.23 63.9 1450.57 60.0799 1458.94 51.9985L1458.95 51.9833L1458.97 51.9678C1466.99 43.9418 1471.3 35.4764 1471.3 26.6C1471.3 23.6926 1470.87 20.7972 1470.01 17.9206C1468.73 13.1067 1466.67 9.22387 1463.67 6.5369C1460.61 3.80352 1456.79 2.5 1452.4 2.5C1449.87 2.5 1447.56 3.09674 1445.65 4.46567C1443.73 5.83643 1442.42 7.82318 1441.63 10.2094L1440.53 13.5H1444C1446.15 13.5 1448.02 14.338 1449.73 16.2609L1449.83 16.3708L1449.94 16.4685C1451.76 18.0865 1452.7 20.1834 1452.7 23C1452.7 25.7122 1451.91 28.794 1450.16 32.282L1450.15 32.3122L1450.13 32.3428C1447.53 37.9229 1443.83 42.0517 1439.04 44.8396C1435.07 47.1513 1430.25 48.5984 1424.52 49.1054C1426.83 43.424 1429.16 39.1693 1431.46 36.2491C1434.24 32.7343 1436.69 31.5 1438.8 31.5H1442L1441.23 28.3937L1440.83 26.7937L1440.81 26.7373L1440.79 26.6817C1440.2 24.6853 1438.91 23.1571 1437.06 22.1877C1435.31 21.262 1433.16 20.9 1430.8 20.9C1426.65 20.9 1422.68 22.4366 1418.9 25.2504L1418.88 25.1239C1418.59 22.4396 1417.81 20.0642 1416.35 18.2383C1414.69 16.1667 1412.29 15.3 1409.6 15.3C1393.29 15.3 1378.98 23.9412 1366.66 40.4535C1330.66 28.5516 1303.05 22.5 1284 22.5C1256.5 22.5 1233.5 27.7233 1215.15 38.3359C1196.77 48.9663 1183.22 64.9092 1174.49 86.0336C1169.08 98.7711 1166.3 110.439 1166.3 121C1166.3 131.397 1167.94 140.907 1171.27 149.499C1174.72 158.475 1179.49 165.409 1185.69 170.094C1191.92 174.798 1199.4 177.1 1208 177.1C1211.92 177.1 1215.35 176.303 1218.09 174.48C1220.86 172.629 1222.68 169.881 1223.61 166.458L1224.47 163.3H1221.2C1218.79 163.3 1216.52 162.939 1214.39 162.228L1214.33 162.208L1214.27 162.19C1203 159.075 1195.7 149.756 1192.86 132.983L1192.85 132.92L1192.84 132.858C1191.81 128.221 1191.3 123.736 1191.3 119.4C1191.3 104.208 1195.93 89.477 1205.29 75.1692L1205.3 75.153L1205.31 75.1366C1221.33 49.8257 1246.07 37.1 1280 37.1C1289.48 37.1 1298.14 37.7583 1305.98 39.0641C1310.5 39.8628 1314.23 40.5279 1317.15 41.0597C1319.99 41.576 1323.92 42.4905 1328.96 43.8177L1328.98 43.8216L1328.99 43.8254C1334.33 45.16 1337.89 46.0837 1339.71 46.6038L1339.75 46.6153L1339.79 46.6254C1341.82 47.1322 1345.6 48.3025 1351.21 50.1717L1351.23 50.1771L1351.24 50.1823C1354.46 51.2051 1357.04 52.0052 1358.97 52.5668ZM1382.14 44.7201C1392.16 33.5599 1403.36 28.0822 1415.77 27.9045C1415.56 28.1096 1415.35 28.3189 1415.13 28.5322C1410.54 33.1212 1406.1 39.7491 1401.76 48.2928C1395.22 47.4191 1388.68 46.2283 1382.14 44.7201Z" fill="white" stroke="white" stroke-width="5"/>
<path d="M1526.23 232.288L1526.23 232.299L1526.22 232.31C1517.12 252.973 1512.5 272.136 1512.5 289.766C1512.5 304.794 1514.99 316.501 1520.33 324.517C1525.79 332.712 1534.03 336.752 1544.64 336.752C1554.39 336.752 1564.69 330.126 1575.48 318.171C1585.47 307.122 1596.24 291.113 1607.83 270.228C1606.57 279.267 1605.93 287.402 1605.93 294.626C1605.93 308.293 1608.27 318.986 1613.31 326.323C1618.48 333.829 1626.25 337.5 1636.2 337.5C1643.03 337.5 1650.42 332.839 1658.25 324.78C1666.38 316.432 1673.61 307.202 1679.96 297.095C1686.5 287.061 1693.29 275.542 1700.31 262.544L1700.32 262.535L1700.32 262.526C1707.31 249.346 1711.97 240.191 1714.26 235.119C1716.76 229.903 1718.75 225.815 1720.23 222.85L1722.05 219.229H1718H1707.87H1706.32L1705.63 220.621L1692.87 246.415C1684.42 263.498 1674.35 280.593 1662.65 297.701C1656.82 306.234 1651.71 312.516 1647.34 316.638C1642.86 320.855 1639.56 322.407 1637.33 322.407C1636.34 322.407 1635.59 322.16 1634.97 321.73C1634.33 321.286 1633.69 320.544 1633.11 319.337C1631.91 316.856 1631.2 312.823 1631.2 306.963C1631.2 304.337 1631.44 299.955 1631.93 293.755C1632.69 287.587 1637.15 264.692 1645.4 224.853L1645.41 224.817L1645.42 224.782C1646.18 220.445 1646.58 216.555 1646.58 213.131C1646.58 207.73 1645.79 203.265 1643.88 200.073C1641.85 196.677 1638.68 194.93 1634.7 194.93C1631.8 194.93 1629.46 196.751 1627.63 199.207C1625.78 201.689 1624.11 205.24 1622.58 209.7C1619.66 218.175 1609.91 237.53 1593.11 267.999L1593.1 268.011L1593.1 268.024C1585.41 282.347 1577 294.908 1567.87 305.724L1567.87 305.728C1563.45 310.99 1559.42 314.829 1555.79 317.336C1552.15 319.85 1549.08 320.911 1546.52 320.911C1545.47 320.911 1544.65 320.622 1543.94 320.076C1543.2 319.502 1542.45 318.54 1541.78 316.998C1540.42 313.86 1539.64 308.853 1539.64 301.729C1539.64 278.735 1545.53 254.293 1557.42 228.379L1557.43 228.368C1563.74 214.431 1570.34 204.174 1577.17 197.433C1583.96 190.723 1590.87 187.593 1597.93 187.593C1602.11 187.593 1604.79 188.527 1606.4 189.956L1606.51 190.052L1606.63 190.135C1608.72 191.595 1609.31 192.915 1609.31 194.065C1609.31 195.595 1609.7 197.14 1610.8 198.358C1611.9 199.573 1613.39 200.12 1614.91 200.289L1615.05 200.304H1615.19C1616.76 200.304 1618.41 199.957 1619.67 198.824C1620.99 197.644 1621.44 196.021 1621.44 194.439C1621.44 188.699 1619.1 183.599 1614.7 179.21L1612.94 180.981L1614.7 179.21C1610.12 174.649 1603.92 172.5 1596.43 172.5C1589.32 172.5 1582.25 173.943 1575.22 176.796L1575.19 176.809L1575.16 176.824C1555.12 185.636 1538.88 204.308 1526.23 232.288Z" fill="white" stroke="white" stroke-width="5"/>
<path d="M1724.17 177.5C1709.78 233.105 1702.5 271.558 1702.5 292.6C1702.5 301.804 1703.31 310.877 1704.93 319.817C1706.34 328.75 1709.73 335.958 1715.28 341.215L1715.33 341.261L1715.38 341.305C1721.18 346.234 1728.03 348.7 1735.8 348.7C1744 348.7 1752.35 343.858 1760.79 335.14C1769.45 326.216 1777.15 316.349 1783.91 305.544C1790.88 294.812 1798.11 282.491 1805.6 268.585L1805.61 268.577L1805.61 268.568C1813.06 254.463 1818.03 244.671 1820.47 239.251C1823.13 233.668 1825.25 229.292 1826.84 226.118L1828.65 222.5H1824.6H1813.8H1812.24L1811.56 223.895L1797.96 251.495C1788.95 269.782 1778.21 288.081 1765.73 306.393C1759.51 315.528 1754.06 322.261 1749.38 326.683C1744.6 331.202 1741.05 332.9 1738.6 332.9C1736.96 332.9 1735.62 332.457 1734.49 331.615C1733.32 330.752 1732.22 329.365 1731.28 327.273C1729.37 323.028 1728.3 316.357 1728.3 307C1728.3 281.752 1736.32 238.657 1752.52 177.5H1777.8C1780.55 177.5 1783.24 176.736 1784.71 174.339C1785.44 173.224 1785.9 171.966 1785.9 170.6C1785.9 169.266 1785.47 168.036 1784.76 166.941C1783.37 164.307 1780.72 163.3 1777.8 163.3H1756.28L1763.01 138.864L1763.02 138.824L1763.03 138.783C1764.65 132.026 1765.5 126.345 1765.5 121.8C1765.5 117.395 1765.09 113.56 1764.21 110.346C1763.22 106.677 1761.82 103.649 1759.84 101.504C1757.79 99.2818 1755.2 98.1 1752.2 98.1C1749.78 98.1 1747.65 99.0194 1745.99 100.781C1744.39 102.467 1743.31 104.812 1742.58 107.564L1742.57 107.624L1742.55 107.685C1741.5 112.703 1740.17 118.26 1738.58 124.36L1732.99 145.15L1732.98 145.156C1731.09 152.244 1729.52 158.293 1728.25 163.3H1709.4C1707.27 163.3 1705.22 163.706 1703.66 164.934C1701.98 166.252 1701.3 168.166 1701.3 170.2C1701.3 171.71 1702.01 173.269 1702.86 174.686L1702.92 174.797L1703 174.9C1704.5 176.899 1706.96 177.5 1709.4 177.5H1724.17Z" fill="white" stroke="white" stroke-width="5"/>
<path d="M1812.23 232.288L1812.23 232.299L1812.22 232.31C1803.12 252.973 1798.5 272.136 1798.5 289.766C1798.5 304.794 1800.99 316.501 1806.33 324.517C1811.79 332.712 1820.03 336.752 1830.64 336.752C1840.39 336.752 1850.69 330.126 1861.48 318.171C1871.47 307.122 1882.24 291.113 1893.83 270.228C1892.57 279.267 1891.93 287.402 1891.93 294.626C1891.93 308.293 1894.27 318.986 1899.31 326.323C1904.48 333.829 1912.25 337.5 1922.2 337.5C1929.03 337.5 1936.42 332.839 1944.25 324.78C1952.38 316.432 1959.61 307.202 1965.96 297.095C1972.5 287.061 1979.29 275.542 1986.31 262.544L1986.32 262.535L1986.32 262.526C1993.31 249.346 1997.97 240.191 2000.26 235.119C2002.76 229.903 2004.75 225.815 2006.23 222.85L2008.05 219.229H2004H1993.87H1992.32L1991.63 220.621L1978.87 246.415C1970.42 263.498 1960.35 280.593 1948.65 297.701C1942.82 306.234 1937.71 312.516 1933.34 316.638C1928.86 320.855 1925.56 322.407 1923.33 322.407C1922.34 322.407 1921.59 322.16 1920.97 321.73C1920.33 321.286 1919.69 320.544 1919.11 319.337C1917.91 316.856 1917.2 312.823 1917.2 306.963C1917.2 304.337 1917.44 299.955 1917.93 293.755C1918.69 287.587 1923.15 264.692 1931.4 224.853L1931.41 224.817L1931.42 224.782C1932.18 220.445 1932.58 216.555 1932.58 213.131C1932.58 207.73 1931.79 203.265 1929.88 200.073C1927.85 196.677 1924.68 194.93 1920.7 194.93C1917.8 194.93 1915.46 196.751 1913.63 199.207C1911.78 201.689 1910.11 205.24 1908.58 209.7C1905.66 218.175 1895.91 237.53 1879.11 267.999L1879.1 268.011L1879.1 268.024C1871.41 282.347 1863 294.908 1853.87 305.724L1853.87 305.728C1849.45 310.99 1845.42 314.829 1841.79 317.336C1838.15 319.85 1835.08 320.911 1832.52 320.911C1831.47 320.911 1830.65 320.622 1829.94 320.076C1829.2 319.502 1828.45 318.54 1827.78 316.998C1826.42 313.86 1825.64 308.853 1825.64 301.729C1825.64 278.735 1831.53 254.293 1843.42 228.379L1843.43 228.368C1849.74 214.431 1856.34 204.174 1863.17 197.433C1869.96 190.723 1876.87 187.593 1883.93 187.593C1888.11 187.593 1890.79 188.527 1892.4 189.956L1892.51 190.052L1892.63 190.135C1894.72 191.595 1895.31 192.915 1895.31 194.065C1895.31 195.595 1895.7 197.14 1896.8 198.358C1897.9 199.573 1899.39 200.12 1900.91 200.289L1901.05 200.304H1901.19C1902.76 200.304 1904.41 199.957 1905.67 198.824C1906.99 197.644 1907.44 196.021 1907.44 194.439C1907.44 188.699 1905.1 183.599 1900.7 179.21L1898.94 180.981L1900.7 179.21C1896.12 174.649 1889.92 172.5 1882.43 172.5C1875.32 172.5 1868.25 173.943 1861.22 176.796L1861.19 176.809L1861.16 176.824C1841.12 185.636 1824.88 204.308 1812.23 232.288Z" fill="white" stroke="white" stroke-width="5"/>
<path d="M2039.1 352.2V349.7H2036.6C2033.31 349.7 2030.54 348.877 2028.2 347.301C2025.83 345.713 2023.76 343.262 2022.04 339.79C2018.56 332.776 2016.7 321.941 2016.7 307C2016.7 290.645 2019.88 263.46 2026.3 225.329C2026.43 225.477 2026.57 225.62 2026.74 225.752C2027.25 226.164 2027.89 226.4 2028.58 226.4C2029.22 226.4 2029.74 226.199 2030.1 226.006C2030.78 225.642 2031.32 225.076 2031.72 224.6L2031.73 224.592C2036.88 218.359 2042.67 210.273 2049.1 200.36L2049.1 200.352C2073.2 162.871 2091.69 125.359 2104.56 87.8151C2111.25 68.5474 2114.7 53.2947 2114.7 42.2C2114.7 34.8703 2113.26 28.9113 2109.96 24.7473C2106.57 20.4724 2101.56 18.5 2095.4 18.5C2087.56 18.5 2080 21.8768 2072.75 28.2186C2065.53 34.5419 2058.5 43.9065 2051.62 56.172C2037.9 80.3948 2026.76 108.869 2018.18 141.566C2009.63 174.156 2002.69 205.421 1997.34 235.359C1992 264.982 1989.3 287.165 1989.3 301.8C1989.3 321.55 1992.04 336.762 1997.82 347.118C2000.73 352.334 2004.43 356.359 2008.97 359.071C2013.51 361.785 2018.75 363.1 2024.6 363.1C2028.32 363.1 2031.67 362 2034.53 359.773C2037.16 357.729 2039.1 355.218 2039.1 352.2ZM2086.27 95.2995C2070.16 136.769 2051.3 173.741 2029.71 206.229C2037.22 166.721 2047.11 128.576 2059.37 91.7942C2066.15 71.7348 2072.73 56.8671 2079.1 47.061C2085.5 37.1915 2091.2 33.1845 2096.05 33.1013C2097.24 33.2814 2098.23 33.963 2099.04 35.6675C2099.94 37.5766 2100.5 40.6098 2100.5 45C2100.5 49.1788 2099.38 55.4425 2096.99 63.9231C2094.62 72.3545 2091.05 82.8081 2086.27 95.2995Z" fill="white" stroke="white" stroke-width="5"/>
</svg>
