<svg width="1713" height="785" viewBox="0 0 1713 785" fill="none" xmlns="http://www.w3.org/2000/svg">
<path d="M159.397 69.9508L159.399 69.9437C160.685 65.6571 161.34 62.137 161.34 59.4C161.34 57.1567 160.877 55.3811 159.865 54.1608C158.838 52.9226 157.318 52.34 155.4 52.34C150.562 52.34 146.27 55.4979 142.497 61.5332C138.727 67.459 135.882 74.7153 133.952 83.2902C132.024 91.8582 131.06 100.375 131.06 108.84V108.843V108.846V108.849V108.852V108.856V108.859V108.862V108.865V108.868V108.871V108.874V108.877V108.881V108.884V108.887V108.89V108.893V108.896V108.899V108.902V108.905V108.908V108.912V108.915V108.918V108.921V108.924V108.927V108.93V108.933V108.936V108.939V108.942V108.946V108.949V108.952V108.955V108.958V108.961V108.964V108.967V108.97V108.973V108.976V108.979V108.982V108.986V108.989V108.992V108.995V108.998V109.001V109.004V109.007V109.01V109.013V109.016V109.019V109.022V109.025V109.028V109.031V109.034V109.037V109.041V109.044V109.047V109.05V109.053V109.056V109.059V109.062V109.065V109.068V109.071V109.074V109.077V109.08V109.083V109.086V109.089V109.092V109.095V109.098V109.101V109.104V109.107V109.11V109.113V109.116V109.119V109.122V109.125V109.128V109.131V109.134V109.137V109.14V109.143V109.146V109.149V109.152V109.155V109.158V109.161V109.164V109.167V109.17V109.173V109.176V109.179V109.182V109.185V109.188V109.191V109.194V109.197V109.2V109.203V109.206V109.209V109.212V109.215V109.218V109.221V109.224V109.227V109.23V109.233V109.236V109.239V109.242V109.245V109.248V109.251V109.254V109.257V109.26V109.263V109.266V109.268V109.271V109.274V109.277V109.28V109.283V109.286V109.289V109.292V109.295V109.298V109.301V109.304V109.307V109.31V109.313V109.316V109.319V109.321V109.324V109.327V109.33V109.333V109.336V109.339V109.342V109.345V109.348V109.351V109.354V109.357V109.359V109.362V109.365V109.368V109.371V109.374V109.377V109.38V109.383V109.386V109.389V109.391V109.394V109.397V109.4V109.403V109.406V109.409V109.412V109.415V109.417V109.42V109.423V109.426V109.429V109.432V109.435V109.438V109.441V109.443V109.446V109.449V109.452V109.455V109.458V109.461V109.464V109.466V109.469V109.472V109.475V109.478V109.481V109.484V109.487V109.489V109.492V109.495V109.498V109.501V109.504V109.507V109.509V109.512V109.515V109.518V109.521V109.524V109.526V109.529V109.532V109.535V109.538V109.541V109.544V109.546V109.549V109.552V109.555V109.558V109.561V109.563V109.566V109.569V109.572V109.575V109.577V109.58V109.583V109.586V109.589V109.592V109.594V109.597V109.6V109.603V109.606V109.608V109.611V109.614V109.617V109.62V109.622V109.625V109.628V109.631V109.634V109.636V109.639V109.642V109.645V109.648V109.65V109.653V109.656V109.659V109.662V109.664V109.667V109.67V109.673V109.675V109.678V109.681V109.684V109.687V109.689V109.692V109.695V109.698V109.7V109.703V109.706V109.709V109.712V109.714V109.717V109.72V109.723V109.725V109.728V109.731V109.734V109.736V109.739V109.742V109.745V109.747V109.75V109.753V109.756V109.758V109.761V109.764V109.767V109.769V109.772V109.775V109.777V109.78V109.783V109.786V109.788V109.791V109.794V109.797V109.799V109.802V109.805V109.808V109.81V109.813V109.816V109.818V109.821V109.824V109.827V109.829V109.832V109.835V109.837V109.84V109.843V109.845V109.848V109.851V109.854V109.856V109.859V109.862V109.864V109.867V109.87V109.872V109.875V109.878V109.881V109.883V109.886V109.889V109.891V109.894V109.897V109.899V109.902V109.905V109.907V109.91V109.913V109.915V109.918V109.921V109.923V109.926V109.929V109.931V109.934V109.937V109.939V109.942V109.945V109.947V109.95V109.953V109.955V109.958V109.961V109.963V109.966V109.969V109.971V109.974V109.977V109.979V109.982V109.984V109.987V109.99V109.992V109.995V109.998V110V110.003V110.006V110.008V110.011V110.013V110.016V110.019V110.021V110.024V110.027V110.029V110.032V110.034V110.037V110.04V110.042V110.045V110.047V110.05V110.053V110.055V110.058V110.06V110.063V110.066V110.068V110.071V110.073V110.076V110.079V110.081V110.084V110.086V110.089V110.092V110.094V110.097V110.099V110.102V110.105V110.107V110.109C125.727 117.011 120.845 122.17 116.414 125.605C111.948 129.067 107.988 130.74 104.52 130.74C101.496 130.74 99.3004 129.735 97.8406 127.781C96.3603 125.799 95.58 122.766 95.58 118.6C95.58 110.179 99.2205 97.6752 106.577 81.0435C109.468 74.6181 112.036 67.3954 114.281 59.3772C116.636 51.2396 117.82 43.9388 117.82 37.48C117.82 26.416 115.188 17.4965 109.873 10.7714C104.537 3.91112 96.8602 0.5 86.92 0.5C81.7164 0.5 76.7822 1.74762 72.1242 4.23911L72.1242 4.23909L72.1202 4.24125C62.8124 9.32808 56.0771 18.0832 51.8869 30.4383C49.6345 36.9813 48.5 42.9038 48.5 48.2C48.5 53.4704 49.1991 58.2184 50.6057 62.4381L50.6056 62.4381L50.6083 62.4459C52.3391 67.3679 54.8692 71.1006 58.2211 73.6008C61.5757 76.103 65.7126 77.34 70.6 77.34C75.6171 77.34 79.9975 75.8098 83.7178 72.746L83.7179 72.746L83.7245 72.7404C87.416 69.5917 90.2844 65.4744 92.3367 60.4044C92.4789 60.1111 92.5339 59.7885 92.4408 59.4626C92.3513 59.1494 92.1436 58.8993 91.8878 58.7012C91.439 58.2694 90.858 58.1462 90.2289 58.2607C89.9468 58.269 89.6794 58.3462 89.4426 58.504C89.1948 58.6692 89.0091 58.9037 88.8728 59.1764L88.8696 59.1827L88.8666 59.1891C86.7582 63.7222 84.1786 67.0865 81.1439 69.3171C78.1151 71.5434 74.607 72.66 70.6 72.66C68.2147 72.66 65.9924 72.1939 63.9274 71.265C57.0462 68.0797 53.5 60.6022 53.5 48.52C53.5 39.0168 56.0854 29.9864 61.2666 21.4208C67.9164 10.6554 76.464 5.33999 86.92 5.33999C93.747 5.33999 99.0443 7.38402 102.877 11.4241C106.719 15.474 108.66 20.8354 108.66 27.56C108.66 34.3248 107.391 41.7401 104.843 49.8094L104.842 49.8134C102.395 57.7931 99.6302 65.0227 96.5492 71.5038C93.4447 77.927 90.6101 85.0948 88.0444 93.0057L88.0431 93.0097C85.5797 100.829 84.34 107.761 84.34 113.8C84.34 121.015 86.0082 126.519 89.433 130.22C92.8646 133.928 97.9792 135.74 104.68 135.74C108.552 135.74 112.784 134.123 117.363 130.972C121.721 127.973 126.425 123.562 131.476 117.754C132.197 126.104 134.045 132.93 137.044 138.205C140.21 143.881 144.683 146.78 150.44 146.78C151.736 146.78 152.835 146.498 153.691 145.887C154.552 145.271 155.116 144.359 155.405 143.201L155.56 142.58H154.92C152.495 142.58 150.422 141.714 148.674 139.966C146.913 138.206 145.466 135.532 144.359 131.898C142.563 125.663 141.66 118.14 141.66 109.32C141.66 107.667 141.71 105.963 141.811 104.207C150.214 91.851 156.081 80.4316 159.397 69.9508ZM156.02 60.84C156.02 64.1509 154.825 68.6492 152.38 74.3633C150.134 79.6136 146.848 85.8535 142.517 93.0856C143.498 83.8157 145.072 75.841 147.235 69.156C148.455 65.4954 149.703 62.7901 150.968 61.0095C152.24 59.2178 153.456 58.46 154.6 58.46C155.094 58.46 155.408 58.6335 155.624 58.9573C155.864 59.317 156.02 59.9198 156.02 60.84Z" fill="white" stroke="white"/>
<path d="M234.749 72.225C230.46 76.9766 226.155 83.9653 221.829 93.1664C223.314 85.5745 224.06 79.1701 224.06 73.96C224.06 70.8659 223.118 68.1907 221.226 65.9618C219.415 63.7017 216.92 62.58 213.8 62.58C209.213 62.58 204.633 65.3483 200.061 70.6743C195.525 75.9575 190.932 83.8284 186.275 94.26H186.248L188.53 82.6998C188.962 80.6474 189.18 78.7468 189.18 77C189.18 75.1384 188.906 73.4279 188.352 71.8741C187.365 69.0265 185.8 67.38 183.56 67.38C182.628 67.38 181.844 67.7136 181.26 68.3946C180.695 69.054 180.354 69.9969 180.186 71.1603C177.2 87.7967 174.96 100.583 173.467 109.518C172.72 113.985 172.159 117.492 171.785 120.037C171.414 122.563 171.22 124.182 171.22 124.84C171.22 127.172 171.597 129.007 172.421 130.273C173.269 131.576 174.556 132.22 176.2 132.22C177.042 132.22 177.754 131.888 178.301 131.244C178.83 130.621 179.186 129.732 179.408 128.629C180.574 123.867 184.503 113.295 191.223 96.8693L191.225 96.8646C194.308 89.1033 197.76 82.3076 201.578 76.4738L201.581 76.4704C203.488 73.5026 205.26 71.3046 206.892 69.8537C208.53 68.3981 209.975 67.74 211.24 67.74C212.125 67.74 212.761 68.109 213.206 68.8881C213.675 69.7089 213.94 71.0046 213.94 72.84C213.94 74.6077 213.507 78.3018 212.626 83.9631C211.747 89.6096 210.428 97.1775 208.668 106.669L208.667 106.674C207.761 111.849 207.08 115.946 206.626 118.966C206.174 121.968 205.94 123.942 205.94 124.84C205.94 127.172 206.317 129.007 207.141 130.273C207.989 131.576 209.276 132.22 210.92 132.22C211.787 132.22 212.512 131.826 213.074 131.108C213.62 130.41 214.015 129.407 214.289 128.146L214.289 128.142C214.814 125.622 216.614 120.004 219.71 111.249C222.9 102.531 227.102 93.4356 232.317 83.9624C234.974 79.1796 237.443 75.6225 239.719 73.2675C242.007 70.9013 244.031 69.82 245.8 69.82C246.714 69.82 247.347 70.1609 247.78 70.8311C248.236 71.5389 248.5 72.6644 248.5 74.28C248.5 75.823 248.124 78.418 247.351 82.0972C246.58 85.7645 245.423 90.4746 243.877 96.23C240.781 107.653 239.22 116.452 239.22 122.6C239.22 127.49 239.996 131.244 241.618 133.789C243.265 136.372 245.751 137.66 249 137.66C250.385 137.66 251.614 137.253 252.667 136.435C253.673 135.653 254.3 134.777 254.3 133.8V133.3H253.8C253.285 133.3 252.844 133.13 252.455 132.779C252.055 132.418 251.692 131.848 251.389 131.027C250.78 129.378 250.46 126.85 250.46 123.4C250.46 118.771 251.78 110.77 254.446 99.3562C257.216 87.9586 258.62 80.4312 258.62 76.84C258.62 73.2328 257.689 70.2813 255.781 68.0362C253.87 65.7875 251.382 64.66 248.36 64.66C243.785 64.66 239.248 67.2411 234.749 72.225Z" fill="white" stroke="white"/>
<path d="M83.9438 402.314L82.7568 400.336C80.0895 395.688 75.5635 393.5 69.8 393.5C59.7175 393.5 50.203 396.306 41.2994 401.865C32.4293 407.137 25.2166 414.216 19.68 423.075L19.6742 423.084L19.6685 423.094C14.5022 431.523 10.4195 440.366 7.42455 449.621C4.4035 458.688 2.90002 468.286 2.90002 478.4C2.90002 488.725 5.69124 499.499 11.1531 510.696L11.1585 510.707L11.164 510.718C15.6937 519.778 23.0318 526.93 33.0215 532.205C43.3211 537.77 55.4771 540.5 69.4 540.5C97.6854 540.5 119.415 531.634 134.135 513.583C141.436 504.66 147.663 495.321 152.811 485.567L152.812 485.566C163.331 465.606 171.819 427.567 178.448 371.879C187.824 370.82 196.665 368.643 204.961 365.339C205.316 375.942 207.209 384.955 210.749 392.287C212.749 396.43 215.293 399.704 218.456 401.941C221.644 404.196 225.324 405.3 229.4 405.3C231.79 405.3 234.015 404.861 235.742 403.642C237.577 402.347 238.507 400.415 238.691 398.208L238.917 395.5H236.2C234.252 395.5 232.656 395.008 231.313 394.088C229.952 393.155 228.706 391.682 227.648 389.506C225.498 385.087 224.3 378.144 224.3 368.4C224.3 364.302 224.638 359.721 225.323 354.648C229.071 352.085 232.589 349.288 235.875 346.256C252.124 331.897 260.7 317.144 260.7 302C260.7 298.06 259.792 294.64 257.534 292.201C255.243 289.727 251.97 288.7 248.2 288.7C236.088 288.7 226.319 295.728 218.838 308.745C211.641 321.011 207.196 335.167 205.456 351.164C197.856 354.806 189.376 357.427 179.997 359.009C180.2 357.25 180.3 355.447 180.3 353.6V353.605C180.3 353.605 180.301 353.575 180.305 353.499C180.309 353.416 180.316 353.303 180.326 353.156C180.345 352.863 180.376 352.463 180.417 351.951C180.499 350.928 180.624 349.487 180.79 347.622C181.123 343.895 181.622 338.5 182.289 331.435C183.613 317.405 185.998 301.759 189.452 284.49L189.454 284.479C191.567 273.648 193.919 265.329 196.475 259.438C199.271 253.605 202.935 248.692 207.461 244.669C211.805 240.807 216.815 238.9 222.6 238.9H225.65L225.051 235.91L224.651 233.91L224.603 233.667L224.508 233.438C223.675 231.44 222.402 229.802 220.635 228.686C218.881 227.578 216.823 227.1 214.6 227.1C200.006 227.1 188.454 234.198 180.068 247.895L180.051 247.922L180.035 247.951C175.974 254.989 171.931 263.214 167.902 272.615C165.786 277.553 163.243 287.435 160.251 301.997C157.349 316.12 153.985 334.852 150.161 358.179C143.786 356.627 138.401 354.389 133.962 351.504L130.1 348.993V353.6V361.2V362.478L131.136 363.227C135.76 366.566 141.456 369.041 148.153 370.707C143.487 399.002 138.825 423.235 134.169 443.415C130.729 457.173 126.917 468.175 122.764 476.482L122.75 476.51L122.736 476.539C118.802 484.932 113.943 493.342 108.15 501.768C102.499 509.727 95.8904 515.412 88.3428 518.935L88.3122 518.949L88.282 518.964C80.5468 522.832 73.3293 524.7 66.6 524.7C59.4925 524.7 53.9896 524.17 50.0064 523.175L49.9803 523.168L49.9541 523.162C41.5817 521.259 34.9926 517.555 30.0499 512.118C25.0946 506.667 21.6568 499.323 19.8553 489.929L19.8484 489.893L19.8405 489.858C18.8101 485.221 18.3 480.736 18.3 476.4C18.3 462.525 22.403 448.983 30.713 435.736C43.3678 415.854 60.3417 406.1 81.8 406.1H86.2155L83.9438 402.314ZM312.569 221.546L312.577 221.54C321.463 214.32 326.3 206.207 326.3 197.2C326.3 191.707 325.147 187.121 322.408 183.885C319.602 180.569 315.505 179.1 310.6 179.1C307.191 179.1 304.177 180.042 301.773 182.102C299.398 184.137 297.858 187.06 296.975 190.594L296.198 193.7H299.185C299.201 193.706 299.22 193.714 299.24 193.723C299.295 193.747 299.362 193.777 299.44 193.815C300.195 194.238 300.588 194.798 300.731 195.695C300.901 196.757 300.719 198.388 299.854 200.736L299.837 200.781L299.822 200.827C298.377 205.276 294.878 208.812 288.763 211.282C282.587 213.777 273.918 215.1 262.6 215.1C247.777 215.1 226.065 210.922 197.323 202.407C168.67 193.571 144.409 189.1 124.6 189.1C105.002 189.1 86.3478 193.595 68.6683 202.571L68.6574 202.576L68.6466 202.582C41.4114 216.744 22.4575 238.573 11.8486 267.951L11.8478 267.953C6.9673 281.51 4.50002 294.464 4.50002 306.8C4.50002 319.165 7.11309 330.99 12.3317 342.251L12.3351 342.258L12.3386 342.266C17.9885 354.255 25.9045 363.36 36.1203 369.448C46.3223 375.527 58.6551 378.5 73 378.5C76.419 378.5 79.4327 377.103 81.9678 374.568C84.2931 372.242 85.9 369.639 85.9 366.8V364.3H83.4C74.6581 364.3 66.9033 362.631 60.0846 359.348L60.078 359.344L60.0715 359.341C40.4326 350.025 30.3 331.001 30.3 301.2C30.3 280.415 36.6544 260.91 49.4481 242.634L49.449 242.632C68.1667 215.856 94.1906 202.5 127.8 202.5C143.394 202.5 166.554 207.33 197.44 217.182C228.453 227.074 253.145 232.1 271.4 232.1C289.737 232.1 303.638 228.748 312.569 221.546ZM236.822 312.747L236.829 312.732L236.836 312.718C238.906 308.579 240.923 305.654 242.84 303.795C244.742 301.951 246.385 301.3 247.8 301.3C247.922 301.3 248.015 301.307 248.084 301.316C248.093 301.385 248.1 301.478 248.1 301.6C248.1 303.22 247.87 305.002 247.384 306.957C244.598 316.785 238.43 326.211 228.682 335.207C230.848 326.531 233.567 319.052 236.822 312.747Z" fill="white" stroke="white" stroke-width="5"/>
<path d="M415.932 398.147L415.925 398.162L415.919 398.177C409.081 413.43 397.188 433.275 380.162 457.752C372.554 468.242 364.045 477.269 354.637 484.849C345.572 492.1 337.176 495.5 329.4 495.5C318.595 495.5 310.823 491.747 305.638 484.452C300.341 477 297.5 465.513 297.5 449.6C297.5 444.854 297.755 440.113 298.267 435.376L298.575 436.606L298.589 436.663L298.605 436.718C299.13 438.466 300.072 439.981 301.547 441.034C303.009 442.079 304.758 442.5 306.6 442.5H306.617L306.633 442.5C327.615 442.22 345.748 431.4 361.013 410.683L361.024 410.668L361.034 410.653C371.907 395.432 377.5 380.533 377.5 366C377.5 356.334 375.295 348.618 370.445 343.313C365.556 337.966 358.379 335.5 349.4 335.5C323.932 335.5 302.838 350.553 286.039 379.542C273.853 400.396 267.7 421.359 267.7 442.4C267.7 464.852 272.698 482.159 283.134 493.864C293.618 505.623 309.202 511.3 329.4 511.3C340.011 511.3 350.94 506.711 362.138 497.971L362.153 497.959L362.167 497.948C373.255 489.024 382.869 479.142 391 468.3C399.08 457.527 407.537 444.366 416.373 428.836L416.377 428.828L416.382 428.82C425.205 413.046 431.919 399.76 436.501 388.978L437.979 385.5H434.2H423.4H421.804L421.132 386.947L415.932 398.147ZM298.689 431.9C300.704 416.924 305.283 401.992 312.447 387.096C318.508 374.844 324.715 365.837 331.012 359.922C337.283 354.03 343.533 351.3 349.8 351.3C352.419 351.3 354.003 352.113 355.023 353.43C356.137 354.869 356.9 357.32 356.9 361.2C356.9 372.684 350.865 387.491 338.148 405.772L338.143 405.779C325.794 423.645 313.25 431.9 300.6 431.9H298.689Z" fill="white" stroke="white" stroke-width="5"/>
<path d="M463.1 513.2V510.7H460.6C457.309 510.7 454.539 509.877 452.195 508.301C449.834 506.713 447.761 504.262 446.04 500.79C442.564 493.776 440.7 482.941 440.7 468C440.7 451.645 443.882 424.46 450.305 386.329C450.43 386.477 450.573 386.62 450.738 386.752C451.253 387.164 451.895 387.4 452.581 387.4C453.217 387.4 453.739 387.199 454.102 387.006C454.783 386.642 455.324 386.076 455.721 385.6L455.727 385.592C460.877 379.359 466.667 371.273 473.097 361.36L473.103 361.352C497.198 323.871 515.691 286.359 528.563 248.815C535.253 229.547 538.7 214.295 538.7 203.2C538.7 195.87 537.259 189.911 533.959 185.747C530.572 181.472 525.56 179.5 519.4 179.5C511.563 179.5 504.002 182.877 496.754 189.219C489.527 195.542 482.497 204.907 475.622 217.172C461.897 241.395 450.758 269.869 442.182 302.566C433.634 335.156 426.685 366.421 421.339 396.359C416.002 425.982 413.3 448.165 413.3 462.8C413.3 482.551 416.04 497.762 421.817 508.118C424.726 513.334 428.43 517.359 432.968 520.071C437.509 522.785 442.748 524.1 448.6 524.1C452.325 524.1 455.672 523 458.535 520.773C461.163 518.729 463.1 516.218 463.1 513.2ZM510.268 256.3C494.155 297.769 475.299 334.741 453.709 367.229C461.222 327.721 471.11 289.576 483.371 252.794C490.146 232.735 496.733 217.867 503.097 208.061C509.503 198.191 515.197 194.185 520.046 194.101C521.242 194.281 522.235 194.963 523.039 196.668C523.941 198.577 524.5 201.61 524.5 206C524.5 210.179 523.379 216.442 520.993 224.923C518.622 233.355 515.052 243.808 510.268 256.3Z" fill="white" stroke="white" stroke-width="5"/>
<path d="M540.617 301.558C541.221 303.535 542.506 305.049 544.336 306.012C546.094 306.938 548.244 307.3 550.6 307.3C554.244 307.3 558.198 305.669 562.363 302.896C570.946 297.451 575.5 290.052 575.5 280.8C575.5 276.43 574.702 272.699 572.708 270.01C570.609 267.182 567.487 265.9 563.8 265.9C560.803 265.9 558.082 266.698 555.747 268.366C553.434 270.018 551.653 272.413 550.32 275.374L550.308 275.402L550.296 275.43C548.1 280.645 546.451 286.002 545.351 291.497C544.846 293.893 544.232 295.418 543.637 296.288C543.091 297.087 542.747 297.1 542.6 297.1H539.131L540.228 300.391L540.617 301.558ZM613.4 385.5H611.845L611.157 386.895L597.557 414.495C588.547 432.782 577.807 451.081 565.334 469.393C559.111 478.528 553.661 485.261 548.983 489.683C544.201 494.202 540.649 495.9 538.2 495.9C537.06 495.9 536.181 495.644 535.475 495.215C534.763 494.781 534.088 494.086 533.493 492.999C532.261 490.749 531.5 487.054 531.5 481.6C531.5 470.339 532.941 457.441 535.851 442.89L535.856 442.869L535.86 442.847C537.457 434.065 538.918 426.628 540.243 420.531C541.569 414.433 543.429 406.594 545.825 397.006C548.227 387.402 549.966 380.176 551.04 375.342L551.044 375.329L551.046 375.315C552.144 370.102 552.7 365.129 552.7 360.4C552.7 355.697 552.15 351.557 550.981 348.037C549.848 344.366 548.289 341.354 546.168 339.232C543.977 337.041 541.279 335.9 538.2 335.9C535.686 335.9 533.542 336.959 531.902 338.873C530.34 340.695 529.283 343.222 528.571 346.207C527.762 349.445 526.956 353.075 526.152 357.093C525.364 360.769 524.587 363.732 523.828 366.009L523.788 366.132L523.76 366.258C523.23 368.639 522.435 372.087 521.371 376.607C510.44 419.804 504.9 451.263 504.9 470.8C504.9 483.851 507.403 494.099 512.82 501.126C518.332 508.277 526.549 511.7 537 511.7C544.218 511.7 552.048 506.756 560.395 498.14C569.049 489.216 576.753 479.349 583.508 468.544C590.483 457.812 597.714 445.491 605.201 431.585L605.206 431.577L605.21 431.568C612.662 417.463 617.628 407.671 620.069 402.251C622.727 396.668 624.849 392.292 626.436 389.118L628.245 385.5H624.2H613.4Z" fill="white" stroke="white" stroke-width="5"/>
<path d="M612.76 499.952L612.795 499.907L612.829 499.861C617.421 493.483 621.833 490.9 626 490.9C628.099 490.9 630.773 491.811 634.095 494.068C637.39 496.306 641.129 499.735 645.312 504.439C648.531 508.234 653.228 511.605 659.242 514.616C665.508 518.025 672.581 519.7 680.4 519.7C696.535 519.7 709.305 513.954 718.371 502.338C727.163 491.073 731.7 479.48 731.7 467.6C731.7 459.681 730.452 453.314 727.608 448.855C724.642 444.206 720.11 441.9 714.4 441.9C712.255 441.9 710.243 442.442 708.663 443.811C707.087 445.177 706.256 447.093 705.929 449.22L705.486 452.1H708.4C710.18 452.1 711.758 452.847 713.227 454.735C714.68 456.603 715.5 459.093 715.5 462.4C715.5 465.475 714.791 468.882 713.289 472.646C710.802 478.478 707.198 482.734 702.51 485.559C697.792 488.401 691.801 489.9 684.4 489.9C676.35 489.9 666.987 487.506 656.261 482.536C650.895 479.988 646.383 478.051 642.744 476.747C639.18 475.469 636.197 474.7 634 474.7C633.766 474.7 633.536 474.701 633.31 474.702C673.832 426.627 703.649 391.996 722.774 370.788C733.871 364.673 741.748 358.654 746.034 352.653C748.058 349.82 749.619 347.433 750.685 345.514C751.218 344.555 751.652 343.669 751.958 342.872C752.249 342.116 752.5 341.254 752.5 340.4C752.5 338.99 751.992 337.569 750.7 336.6C749.543 335.732 748.107 335.5 746.8 335.5C745.131 335.5 743.309 336.162 741.481 337.102C739.595 338.073 737.43 339.486 735.004 341.297C730.23 344.861 724.234 350.124 717.035 357.044C708.399 360.283 699.525 361.9 690.4 361.9C681.169 361.9 674.475 360.968 670.11 359.272C663.042 356.494 660.5 353.011 660.5 349.2C660.5 348.346 660.606 347.328 660.843 346.132C661.302 344.208 662.005 343.045 662.767 342.363C663.496 341.711 664.5 341.3 666 341.3H669.143L668.436 338.238C667.541 334.36 665.69 331.244 662.72 329.21C659.907 326.828 655.744 325.9 650.8 325.9C645.104 325.9 640.067 328.625 635.725 333.546L635.719 333.554C631.719 338.124 629.5 342.952 629.5 348C629.5 352.283 630.215 356.323 631.667 360.097L631.685 360.144L631.704 360.19C638.168 375.175 654.038 382.1 677.6 382.1C683.139 382.1 688.675 381.602 694.205 380.609C659.024 418.162 624.328 458.476 590.118 501.55C589.162 502.564 588.7 503.835 588.7 505.2C588.7 506.141 588.962 507.068 589.541 507.878C590.102 508.664 590.86 509.2 591.643 509.565C593.143 510.266 595.084 510.5 597.2 510.5C599.881 510.5 602.512 509.428 605.042 507.642C607.572 505.856 610.141 503.26 612.76 499.952Z" fill="white" stroke="white" stroke-width="5"/>
<path d="M953.967 436.567C939.118 462.236 924.008 503.832 908.586 561.15L908.584 561.159L908.581 561.168C902.477 584.525 894.376 608.962 884.275 634.48L884.271 634.49L884.267 634.501C874.439 660.001 863.963 682.273 852.845 701.333C841.83 719.952 827.414 735.416 809.579 747.743C791.881 759.976 771.847 766.1 749.4 766.1C737.174 766.1 726.052 763.89 715.999 759.508L715.995 759.506C694.627 750.239 680.569 733.421 673.814 708.75C671.482 699.935 670.3 689.893 670.3 678.6C670.3 667.646 673.611 655.921 680.398 643.391L680.404 643.381C686.227 632.511 693.601 624.475 702.486 619.144C711.371 613.813 721.911 611.1 734.2 611.1C743.752 611.1 751.874 612.906 758.649 616.419C765.463 619.952 770.088 624.525 772.745 630.079C775.602 636.054 777.223 641.243 777.715 645.676L777.716 645.684L777.717 645.692C778.241 650.149 778.5 654.183 778.5 657.8C778.5 660.871 777.663 665.103 775.834 670.592C770.082 687.057 762.106 698.056 752.127 704.048C746.102 707.56 739.739 709.3 733 709.3H729.431L730.651 712.654C731.854 715.965 733.716 718.662 736.3 720.6L736.385 720.664L736.475 720.72C739.101 722.361 742.258 723.1 745.8 723.1C756.55 723.1 765.928 720.157 773.809 714.194C781.662 708.251 787.865 699.433 792.517 687.938L792.521 687.928C796.36 678.332 798.3 668.818 798.3 659.4C798.3 649.698 796.219 640.281 792.078 631.169C787.083 620.073 779.711 611.653 769.947 606.033C760.208 600.428 748.249 597.7 734.2 597.7C721.005 597.7 708.98 600.728 698.18 606.818C677.71 618.163 664.679 637.238 658.957 663.671L658.954 663.682L658.952 663.694C657.319 671.584 656.5 679.354 656.5 687C656.5 705.615 661.572 723.007 671.682 739.128L671.687 739.137L671.693 739.145C690.107 768.003 719.525 782.3 759.4 782.3C785.444 782.3 808.343 775.646 827.998 762.273C847.782 748.992 863.258 732.166 874.388 711.809C885.672 691.657 895.861 668.319 904.964 641.812C914.058 615.333 921.286 589.907 926.642 565.537C939.936 505.06 953.799 463.567 968.113 440.702C975.291 442.658 982.828 444.336 990.722 445.738C982.342 466.957 975.357 494.596 969.733 528.592L969.732 528.6L969.731 528.607C964.112 563.925 961.3 597.923 961.3 630.6C961.3 659.05 964.52 684.36 971.001 706.502C974.254 717.618 978.458 726.218 983.744 732.075C989.096 738.006 995.547 741.1 1003 741.1C1008.43 741.1 1013.34 737.585 1017.78 731.827C1022.26 726.016 1026.63 717.461 1030.93 706.306C1039.77 683.798 1048.46 656.642 1057.01 624.856C1065.8 592.896 1075.39 560.935 1085.78 528.973C1096.11 497.166 1109.21 470.347 1125.02 448.467C1141.02 426.437 1158.36 415.9 1177 415.9H1180.25L1179.42 412.756C1178.25 408.368 1176.12 404.877 1172.89 402.588C1169.96 400.335 1166.34 399.3 1162.2 399.3C1143.69 399.3 1126.77 410.859 1111.36 432.761C1095.99 454.598 1083.09 481.093 1072.63 512.203L1072.63 512.216C1062.48 542.92 1053.14 573.624 1044.59 604.33L1044.59 604.34L1044.59 604.349C1036.32 634.998 1028.87 661.1 1022.21 682.663C1018.89 693.419 1015.88 701.35 1013.18 706.549C1011.83 709.158 1010.62 710.954 1009.58 712.064C1008.49 713.218 1007.91 713.3 1007.8 713.3C1006.53 713.3 1004.85 712.454 1003.01 708.999C1001.19 705.595 999.579 700.275 998.261 692.862C995.635 678.086 994.3 655.765 994.3 625.8C994.3 602.162 995.761 572.638 998.691 537.213C1001.81 502.433 1007.07 472.671 1014.46 447.9H1017.4C1033.23 447.9 1045.57 444.08 1053.94 435.999L1053.95 435.983L1053.97 435.968C1061.99 427.942 1066.3 419.476 1066.3 410.6C1066.3 407.693 1065.87 404.797 1065.01 401.921C1063.73 397.107 1061.67 393.224 1058.67 390.537C1055.61 387.804 1051.79 386.5 1047.4 386.5C1044.87 386.5 1042.56 387.097 1040.65 388.466C1038.73 389.836 1037.42 391.823 1036.63 394.209L1035.53 397.5H1039C1041.15 397.5 1043.02 398.338 1044.73 400.261L1044.83 400.371L1044.94 400.469C1046.76 402.087 1047.7 404.183 1047.7 407C1047.7 409.712 1046.91 412.794 1045.16 416.282L1045.15 416.312L1045.13 416.343C1042.53 421.923 1038.83 426.052 1034.04 428.84C1030.07 431.151 1025.25 432.598 1019.52 433.105C1021.83 427.424 1024.16 423.169 1026.46 420.249C1029.24 416.734 1031.69 415.5 1033.8 415.5H1037L1036.23 412.394L1035.83 410.794L1035.81 410.737L1035.79 410.682C1035.2 408.685 1033.91 407.157 1032.06 406.188C1030.31 405.262 1028.16 404.9 1025.8 404.9C1021.65 404.9 1017.68 406.437 1013.9 409.25L1013.88 409.124C1013.59 406.44 1012.81 404.064 1011.35 402.238C1009.69 400.167 1007.29 399.3 1004.6 399.3C988.289 399.3 973.98 407.941 961.659 424.454C925.661 412.552 898.054 406.5 879 406.5C851.496 406.5 828.498 411.723 810.148 422.336C791.768 432.966 778.219 448.909 769.494 470.034C764.076 482.771 761.3 494.439 761.3 505C761.3 515.397 762.942 524.907 766.267 533.499C769.72 542.475 774.493 549.409 780.693 554.094C786.916 558.798 794.398 561.1 803 561.1C806.92 561.1 810.352 560.303 813.087 558.48C815.864 556.629 817.678 553.881 818.612 550.458L819.473 547.3H816.2C813.787 547.3 811.522 546.939 809.391 546.228L809.329 546.208L809.266 546.19C798.002 543.075 790.703 533.756 787.865 516.983L787.854 516.92L787.84 516.858C786.81 512.221 786.3 507.736 786.3 503.4C786.3 488.208 790.927 473.477 800.292 459.169L800.302 459.153L800.313 459.137C816.326 433.826 841.068 421.1 875 421.1C884.482 421.1 893.138 421.758 900.978 423.064C905.503 423.863 909.228 424.528 912.153 425.06C914.992 425.576 918.921 426.491 923.964 427.818L923.979 427.822L923.994 427.825C929.332 429.16 932.893 430.084 934.713 430.604L934.753 430.615L934.794 430.625C936.821 431.132 940.602 432.303 946.209 434.172L946.226 434.177L946.242 434.182C949.456 435.205 952.043 436.005 953.967 436.567ZM977.141 428.72C987.163 417.56 998.362 412.082 1010.77 411.904C1010.56 412.11 1010.35 412.319 1010.13 412.532C1005.54 417.121 1001.1 423.749 996.759 432.293C990.221 431.419 983.682 430.228 977.141 428.72Z" fill="white" stroke="white" stroke-width="5"/>
<path d="M1121.23 616.288L1121.23 616.299L1121.22 616.31C1112.12 636.973 1107.5 656.136 1107.5 673.766C1107.5 688.794 1109.99 700.501 1115.33 708.517C1120.79 716.712 1129.03 720.752 1139.64 720.752C1149.39 720.752 1159.69 714.126 1170.48 702.171C1180.47 691.122 1191.24 675.113 1202.83 654.228C1201.57 663.267 1200.93 671.402 1200.93 678.626C1200.93 692.293 1203.27 702.986 1208.31 710.323C1213.48 717.829 1221.25 721.5 1231.2 721.5C1238.03 721.5 1245.42 716.839 1253.25 708.78C1261.38 700.432 1268.61 691.202 1274.96 681.095C1281.5 671.061 1288.29 659.542 1295.31 646.544L1295.32 646.535L1295.32 646.526C1302.31 633.346 1306.97 624.191 1309.26 619.119C1311.76 613.903 1313.75 609.815 1315.23 606.85L1317.05 603.229H1313H1302.87H1301.32L1300.63 604.621L1287.87 630.415C1279.42 647.498 1269.35 664.593 1257.65 681.701C1251.82 690.234 1246.71 696.516 1242.34 700.638C1237.86 704.855 1234.56 706.407 1232.33 706.407C1231.34 706.407 1230.59 706.16 1229.97 705.73C1229.33 705.286 1228.69 704.544 1228.11 703.337C1226.91 700.856 1226.2 696.823 1226.2 690.963C1226.2 688.337 1226.44 683.955 1226.93 677.755C1227.69 671.587 1232.15 648.692 1240.4 608.853L1240.41 608.817L1240.42 608.782C1241.18 604.445 1241.58 600.555 1241.58 597.131C1241.58 591.73 1240.79 587.265 1238.88 584.073C1236.85 580.677 1233.68 578.93 1229.7 578.93C1226.8 578.93 1224.46 580.751 1222.63 583.207C1220.78 585.689 1219.11 589.24 1217.58 593.7C1214.66 602.175 1204.91 621.53 1188.11 651.999L1188.1 652.011L1188.1 652.024C1180.41 666.347 1172 678.908 1162.87 689.724L1162.87 689.728C1158.45 694.99 1154.42 698.829 1150.79 701.336C1147.15 703.85 1144.08 704.911 1141.52 704.911C1140.47 704.911 1139.65 704.622 1138.94 704.076C1138.2 703.502 1137.45 702.54 1136.78 700.998C1135.42 697.86 1134.64 692.853 1134.64 685.729C1134.64 662.735 1140.53 638.293 1152.42 612.379L1152.43 612.368C1158.74 598.431 1165.34 588.174 1172.17 581.433C1178.96 574.723 1185.87 571.593 1192.93 571.593C1197.11 571.593 1199.79 572.527 1201.4 573.956L1201.51 574.052L1201.63 574.135C1203.72 575.595 1204.31 576.915 1204.31 578.065C1204.31 579.595 1204.7 581.14 1205.8 582.358C1206.9 583.573 1208.39 584.12 1209.91 584.289L1210.05 584.304H1210.19C1211.76 584.304 1213.41 583.957 1214.67 582.824C1215.99 581.644 1216.44 580.021 1216.44 578.439C1216.44 572.699 1214.1 567.599 1209.7 563.21L1207.94 564.981L1209.7 563.21C1205.12 558.649 1198.92 556.5 1191.43 556.5C1184.32 556.5 1177.25 557.943 1170.22 560.796L1170.19 560.809L1170.16 560.824C1150.12 569.636 1133.88 588.308 1121.23 616.288Z" fill="white" stroke="white" stroke-width="5"/>
<path d="M1319.17 561.5C1304.78 617.105 1297.5 655.558 1297.5 676.6C1297.5 685.804 1298.31 694.877 1299.93 703.817C1301.34 712.75 1304.73 719.958 1310.28 725.215L1310.33 725.261L1310.38 725.305C1316.18 730.234 1323.03 732.7 1330.8 732.7C1339 732.7 1347.35 727.858 1355.79 719.14C1364.45 710.216 1372.15 700.349 1378.91 689.544C1385.88 678.812 1393.11 666.491 1400.6 652.585L1400.61 652.577L1400.61 652.568C1408.06 638.463 1413.03 628.671 1415.47 623.251C1418.13 617.668 1420.25 613.292 1421.84 610.118L1423.65 606.5H1419.6H1408.8H1407.24L1406.56 607.895L1392.96 635.495C1383.95 653.782 1373.21 672.081 1360.73 690.393C1354.51 699.528 1349.06 706.261 1344.38 710.683C1339.6 715.202 1336.05 716.9 1333.6 716.9C1331.96 716.9 1330.62 716.457 1329.49 715.615C1328.32 714.752 1327.22 713.365 1326.28 711.273C1324.37 707.028 1323.3 700.357 1323.3 691C1323.3 665.752 1331.32 622.657 1347.52 561.5H1372.8C1375.55 561.5 1378.24 560.736 1379.71 558.339C1380.44 557.224 1380.9 555.966 1380.9 554.6C1380.9 553.266 1380.47 552.036 1379.76 550.941C1378.37 548.307 1375.72 547.3 1372.8 547.3H1351.28L1358.01 522.864L1358.02 522.824L1358.03 522.783C1359.65 516.026 1360.5 510.345 1360.5 505.8C1360.5 501.395 1360.09 497.56 1359.21 494.346C1358.22 490.677 1356.82 487.649 1354.84 485.504C1352.79 483.282 1350.2 482.1 1347.2 482.1C1344.78 482.1 1342.65 483.019 1340.99 484.781C1339.39 486.467 1338.31 488.812 1337.58 491.564L1337.57 491.624L1337.55 491.685C1336.5 496.703 1335.17 502.26 1333.58 508.36L1327.99 529.15L1327.98 529.156C1326.09 536.244 1324.52 542.293 1323.25 547.3H1304.4C1302.27 547.3 1300.22 547.706 1298.66 548.934C1296.98 550.253 1296.3 552.166 1296.3 554.2C1296.3 555.71 1297.01 557.269 1297.86 558.686L1297.92 558.797L1298 558.9C1299.5 560.899 1301.96 561.5 1304.4 561.5H1319.17Z" fill="white" stroke="white" stroke-width="5"/>
<path d="M1407.23 616.288L1407.23 616.299L1407.22 616.31C1398.12 636.973 1393.5 656.136 1393.5 673.766C1393.5 688.794 1395.99 700.501 1401.33 708.517C1406.79 716.712 1415.03 720.752 1425.64 720.752C1435.39 720.752 1445.69 714.126 1456.48 702.171C1466.47 691.122 1477.24 675.113 1488.83 654.228C1487.57 663.267 1486.93 671.402 1486.93 678.626C1486.93 692.293 1489.27 702.986 1494.31 710.323C1499.48 717.829 1507.25 721.5 1517.2 721.5C1524.03 721.5 1531.42 716.839 1539.25 708.78C1547.38 700.432 1554.61 691.202 1560.96 681.095C1567.5 671.061 1574.29 659.542 1581.31 646.544L1581.32 646.535L1581.32 646.526C1588.31 633.346 1592.97 624.191 1595.26 619.119C1597.76 613.903 1599.75 609.815 1601.23 606.85L1603.05 603.229H1599H1588.87H1587.32L1586.63 604.621L1573.87 630.415C1565.42 647.498 1555.35 664.593 1543.65 681.701C1537.82 690.234 1532.71 696.516 1528.34 700.638C1523.86 704.855 1520.56 706.407 1518.33 706.407C1517.34 706.407 1516.59 706.16 1515.97 705.73C1515.33 705.286 1514.69 704.544 1514.11 703.337C1512.91 700.856 1512.2 696.823 1512.2 690.963C1512.2 688.337 1512.44 683.955 1512.93 677.755C1513.69 671.587 1518.15 648.692 1526.4 608.853L1526.41 608.817L1526.42 608.782C1527.18 604.445 1527.58 600.555 1527.58 597.131C1527.58 591.73 1526.79 587.265 1524.88 584.073C1522.85 580.677 1519.68 578.93 1515.7 578.93C1512.8 578.93 1510.46 580.751 1508.63 583.207C1506.78 585.689 1505.11 589.24 1503.58 593.7C1500.66 602.175 1490.91 621.53 1474.11 651.999L1474.1 652.011L1474.1 652.024C1466.41 666.347 1458 678.908 1448.87 689.724L1448.87 689.728C1444.45 694.99 1440.42 698.829 1436.79 701.336C1433.15 703.85 1430.08 704.911 1427.52 704.911C1426.47 704.911 1425.65 704.622 1424.94 704.076C1424.2 703.502 1423.45 702.54 1422.78 700.998C1421.42 697.86 1420.64 692.853 1420.64 685.729C1420.64 662.735 1426.53 638.293 1438.42 612.379L1438.43 612.368C1444.74 598.431 1451.34 588.174 1458.17 581.433C1464.96 574.723 1471.87 571.593 1478.93 571.593C1483.11 571.593 1485.79 572.527 1487.4 573.956L1487.51 574.052L1487.63 574.135C1489.72 575.595 1490.31 576.915 1490.31 578.065C1490.31 579.595 1490.7 581.14 1491.8 582.358C1492.9 583.573 1494.39 584.12 1495.91 584.289L1496.05 584.304H1496.19C1497.76 584.304 1499.41 583.957 1500.67 582.824C1501.99 581.644 1502.44 580.021 1502.44 578.439C1502.44 572.699 1500.1 567.599 1495.7 563.21L1493.94 564.981L1495.7 563.21C1491.12 558.649 1484.92 556.5 1477.43 556.5C1470.32 556.5 1463.25 557.943 1456.22 560.796L1456.19 560.809L1456.16 560.824C1436.12 569.636 1419.88 588.308 1407.23 616.288Z" fill="white" stroke="white" stroke-width="5"/>
<path d="M1634.1 736.2V733.7H1631.6C1628.31 733.7 1625.54 732.877 1623.2 731.301C1620.83 729.713 1618.76 727.262 1617.04 723.79C1613.56 716.776 1611.7 705.941 1611.7 691C1611.7 674.645 1614.88 647.46 1621.3 609.329C1621.43 609.477 1621.57 609.62 1621.74 609.752C1622.25 610.164 1622.89 610.4 1623.58 610.4C1624.22 610.4 1624.74 610.199 1625.1 610.006C1625.78 609.642 1626.32 609.076 1626.72 608.6L1626.73 608.592C1631.88 602.359 1637.67 594.273 1644.1 584.36L1644.1 584.352C1668.2 546.871 1686.69 509.359 1699.56 471.815C1706.25 452.547 1709.7 437.295 1709.7 426.2C1709.7 418.87 1708.26 412.911 1704.96 408.747C1701.57 404.472 1696.56 402.5 1690.4 402.5C1682.56 402.5 1675 405.877 1667.75 412.219C1660.53 418.542 1653.5 427.907 1646.62 440.172C1632.9 464.395 1621.76 492.869 1613.18 525.566C1604.63 558.156 1597.69 589.421 1592.34 619.359C1587 648.982 1584.3 671.165 1584.3 685.8C1584.3 705.551 1587.04 720.762 1592.82 731.118C1595.73 736.334 1599.43 740.359 1603.97 743.071C1608.51 745.785 1613.75 747.1 1619.6 747.1C1623.32 747.1 1626.67 746 1629.53 743.773C1632.16 741.729 1634.1 739.218 1634.1 736.2ZM1681.27 479.3C1665.16 520.769 1646.3 557.741 1624.71 590.229C1632.22 550.721 1642.11 512.576 1654.37 475.794C1661.15 455.735 1667.73 440.867 1674.1 431.061C1680.5 421.191 1686.2 417.185 1691.05 417.101C1692.24 417.281 1693.23 417.963 1694.04 419.668C1694.94 421.577 1695.5 424.61 1695.5 429C1695.5 433.179 1694.38 439.442 1691.99 447.923C1689.62 456.355 1686.05 466.808 1681.27 479.3Z" fill="white" stroke="white" stroke-width="5"/>
</svg>
